<?xml version="1.0" encoding="UTF-8" standalone="no"?>
<!-- Created with Inkscape (http://www.inkscape.org/) -->

<svg
   width="200mm"
   height="200mm"
   viewBox="0 0 200 200"
   version="1.1"
   id="svg3739"
   sodipodi:docname="decor-02.svg"
   inkscape:version="1.1.2 (0a00cf5339, 2022-02-04)"
   xmlns:inkscape="http://www.inkscape.org/namespaces/inkscape"
   xmlns:sodipodi="http://sodipodi.sourceforge.net/DTD/sodipodi-0.dtd"
   xmlns="http://www.w3.org/2000/svg"
   xmlns:svg="http://www.w3.org/2000/svg">
  <sodipodi:namedview
     id="namedview3741"
     pagecolor="#ffffff"
     bordercolor="#666666"
     borderopacity="1.0"
     inkscape:pageshadow="2"
     inkscape:pageopacity="0.0"
     inkscape:pagecheckerboard="0"
     inkscape:document-units="mm"
     showgrid="false"
     inkscape:snap-page="true"
     inkscape:zoom="0.51319221"
     inkscape:cx="288.39097"
     inkscape:cy="215.31894"
     inkscape:window-width="1600"
     inkscape:window-height="863"
     inkscape:window-x="0"
     inkscape:window-y="0"
     inkscape:window-maximized="1"
     inkscape:current-layer="layer1"
     showguides="true"
     inkscape:guide-bbox="true" />
  <defs
     id="defs3736">
    <inkscape:path-effect
       effect="powerstroke"
       id="path-effect18733"
       is_visible="true"
       lpeversion="1"
       offset_points="1,3.33024"
       not_jump="false"
       sort_points="true"
       interpolator_type="CubicBezierJohan"
       interpolator_beta="0.2"
       start_linecap_type="zerowidth"
       linejoin_type="extrp_arc"
       miter_limit="4"
       scale_width="1"
       end_linecap_type="zerowidth" />
    <inkscape:path-effect
       effect="powerstroke"
       id="path-effect16712"
       is_visible="true"
       lpeversion="1"
       offset_points="1,3.33024"
       not_jump="false"
       sort_points="true"
       interpolator_type="CubicBezierJohan"
       interpolator_beta="0.2"
       start_linecap_type="zerowidth"
       linejoin_type="extrp_arc"
       miter_limit="4"
       scale_width="1"
       end_linecap_type="zerowidth" />
    <inkscape:path-effect
       effect="powerstroke"
       id="path-effect13765"
       is_visible="true"
       lpeversion="1"
       offset_points="1,1.9684151"
       not_jump="false"
       sort_points="true"
       interpolator_type="CubicBezierJohan"
       interpolator_beta="0.2"
       start_linecap_type="zerowidth"
       linejoin_type="extrp_arc"
       miter_limit="4"
       scale_width="1"
       end_linecap_type="zerowidth" />
    <inkscape:path-effect
       effect="powerstroke"
       id="path-effect11045"
       is_visible="true"
       lpeversion="1"
       offset_points="1,7.1454502"
       not_jump="false"
       sort_points="true"
       interpolator_type="CubicBezierJohan"
       interpolator_beta="0.2"
       start_linecap_type="zerowidth"
       linejoin_type="extrp_arc"
       miter_limit="4"
       scale_width="1"
       end_linecap_type="zerowidth" />
    <inkscape:path-effect
       effect="powerstroke"
       id="path-effect4349"
       is_visible="true"
       lpeversion="1"
       offset_points="1,1.7415223"
       not_jump="false"
       sort_points="true"
       interpolator_type="CubicBezierJohan"
       interpolator_beta="0.2"
       start_linecap_type="zerowidth"
       linejoin_type="extrp_arc"
       miter_limit="4"
       scale_width="1"
       end_linecap_type="zerowidth" />
    <inkscape:path-effect
       effect="powerstroke"
       id="path-effect4345"
       is_visible="true"
       lpeversion="1"
       offset_points="3,4.99214"
       not_jump="false"
       sort_points="true"
       interpolator_type="CubicBezierJohan"
       interpolator_beta="0.2"
       start_linecap_type="zerowidth"
       linejoin_type="extrp_arc"
       miter_limit="4"
       scale_width="1"
       end_linecap_type="zerowidth" />
    <inkscape:path-effect
       effect="powerstroke"
       id="path-effect4341"
       is_visible="true"
       lpeversion="1"
       offset_points="8,4.99214"
       not_jump="false"
       sort_points="true"
       interpolator_type="CubicBezierJohan"
       interpolator_beta="0.2"
       start_linecap_type="zerowidth"
       linejoin_type="extrp_arc"
       miter_limit="4"
       scale_width="1"
       end_linecap_type="zerowidth" />
    <inkscape:path-effect
       effect="powerstroke"
       id="path-effect4337"
       is_visible="true"
       lpeversion="1"
       offset_points="9,4.99214"
       not_jump="false"
       sort_points="true"
       interpolator_type="CubicBezierJohan"
       interpolator_beta="0.2"
       start_linecap_type="zerowidth"
       linejoin_type="extrp_arc"
       miter_limit="4"
       scale_width="1"
       end_linecap_type="zerowidth" />
    <inkscape:path-effect
       effect="powerstroke"
       id="path-effect4333"
       is_visible="true"
       lpeversion="1"
       offset_points="3,4.99214"
       not_jump="false"
       sort_points="true"
       interpolator_type="CubicBezierJohan"
       interpolator_beta="0.2"
       start_linecap_type="zerowidth"
       linejoin_type="extrp_arc"
       miter_limit="4"
       scale_width="1"
       end_linecap_type="zerowidth" />
    <inkscape:path-effect
       effect="powerstroke"
       id="path-effect13765-6"
       is_visible="true"
       lpeversion="1"
       offset_points="1,3.33024"
       not_jump="false"
       sort_points="true"
       interpolator_type="CubicBezierJohan"
       interpolator_beta="0.2"
       start_linecap_type="zerowidth"
       linejoin_type="extrp_arc"
       miter_limit="4"
       scale_width="1"
       end_linecap_type="zerowidth" />
  </defs>
  <g
     inkscape:label="Layer 1"
     inkscape:groupmode="layer"
     id="layer1">
    <g
       id="g10261">
      <g
         id="path9375"
         transform="translate(1.7616575,-65.003469)">
        <path
           style="color:#000000;fill:#000000;stroke-width:3;-inkscape-stroke:none"
           d="m 111.74734,66.512534 c -4.06063,-0.169944 -8.75535,1.950977 -14.39753,7.577984 l 1.776911,1.794742 c 6.148139,-6.131605 10.384739,-7.387121 13.817859,-6.681587 3.43314,0.705535 6.44865,3.63309 9.60164,6.793903 3.15298,3.160812 6.44659,6.55753 10.89787,7.427718 4.45092,0.870124 9.66044,-1.037816 16.11682,-7.543003 l 0.003,0.003 c 6.14813,-6.131604 10.38521,-7.387121 13.81834,-6.681586 3.43313,0.705535 6.44864,3.63309 9.60163,6.793903 3.15298,3.160811 6.44659,6.55753 10.89786,7.427719 4.45129,0.870191 9.6612,-1.038036 16.11829,-7.544489 l -1.7858,-1.789169 c -6.16215,6.209264 -10.41652,7.518232 -13.85084,6.846848 -3.43432,-0.671383 -6.44777,-3.575298 -9.59867,-6.734032 -3.15092,-3.158733 -6.43617,-6.569981 -10.87719,-7.482643 -4.44101,-0.912663 -9.65185,0.934514 -15.96246,7.256803 -6.3106,6.322288 -10.56498,7.631256 -13.9993,6.959872 -3.43431,-0.671383 -6.44776,-3.575298 -9.59867,-6.734032 -3.15091,-3.158733 -6.43618,-6.569981 -10.87719,-7.482643 -0.55512,-0.114083 -1.12246,-0.185018 -1.70254,-0.209295 z m -100.873262,0.0044 C 6.8134588,66.347025 2.1187364,68.464636 -3.5234375,74.091643 l 1.7769117,1.798052 c 6.148131,-6.131605 10.3847255,-7.387121 13.8178528,-6.681587 3.433127,0.705535 6.448644,3.63309 9.601627,6.793903 3.152984,3.160812 6.446587,6.55753 10.897866,7.427721 4.450922,0.870124 9.660437,-1.037819 16.116807,-7.543006 l 0.003,0.003 c 6.148132,-6.131604 10.385216,-7.387121 13.818343,-6.681586 3.433131,0.705535 6.448643,3.63309 9.601627,6.793903 3.152984,3.160812 6.446587,6.55753 10.897866,7.427721 4.451283,0.870191 9.661197,-1.038038 16.118285,-7.544491 L 97.34981,74.090518 c -6.162152,6.209264 -10.425413,7.523805 -13.859729,6.852421 -3.434316,-0.671383 -6.447767,-3.575298 -9.598674,-6.734032 -3.150913,-3.158733 -6.43617,-6.569981 -10.877184,-7.482643 -4.44101,-0.912663 -9.651856,0.934514 -15.962457,7.256803 -6.310599,6.322288 -10.564981,7.631256 -13.999295,6.959872 -3.434309,-0.671383 -6.447755,-3.575298 -9.598665,-6.734032 -3.15091,-3.158733 -6.436171,-6.569981 -10.877182,-7.482643 -0.555126,-0.114083 -1.122457,-0.185017 -1.702546,-0.209295 z"
           id="path10165" />
        <path
           style="color:#000000;fill:#000000;-inkscape-stroke:none"
           d="m 111.81055,65.013672 c -4.31941,-0.180774 -9.06112,2.036019 -14.386722,7.017578 l -0.07227,-0.07227 -1.066406,1.074219 c -5.993043,6.038863 -9.66473,6.993302 -12.507812,6.4375 -2.797163,-0.546824 -5.686397,-3.174696 -8.824219,-6.320312 -3.137737,-3.145525 -6.616677,-6.860922 -11.636719,-7.892579 -5.058542,-1.03957 -10.82711,1.154918 -17.326172,7.666016 -6.145592,6.156976 -9.805299,7.10307 -12.65039,6.546875 -2.797154,-0.546824 -5.686393,-3.174695 -8.824219,-6.320312 -3.137735,-3.145525 -6.61668,-6.860922 -11.636719,-7.892579 -0.164156,-0.03374 -0.33768,-0.03543 -0.503906,-0.0625 v -0.117187 l -1.4375,-0.06055 C 6.308502,64.823886 1.2214839,67.241382 -4.5820312,73.029297 l -1.0585938,1.054687 3.8867188,3.931641 1.0664062,-1.064453 c 5.9766605,-5.960596 9.6059568,-6.859355 12.457031,-6.273438 2.80134,0.575698 5.699481,3.232693 8.841797,6.382813 3.142375,3.150176 6.635994,6.85732 11.671875,7.841797 4.773172,0.933121 10.183178,-1.161345 16.332031,-6.966797 l 0.07422,0.07422 L 49.75,76.951172 c 5.976633,-5.960567 9.605985,-6.85935 12.457031,-6.273438 2.801345,0.575698 5.699479,3.232692 8.841797,6.382813 3.142375,3.150176 6.635994,6.85732 11.671875,7.841797 4.771896,0.932868 10.181277,-1.160992 16.328125,-6.962891 l 0.07031,0.07031 1.066412,-1.0625 c 0.002,-0.0023 0.004,-0.0036 0.006,-0.0059 5.97259,-5.954459 9.60119,-6.853271 12.45117,-6.267578 2.80135,0.575699 5.69947,3.232691 8.8418,6.382813 3.14237,3.150177 6.63599,6.85537 11.67187,7.839843 4.77311,0.93311 10.18327,-1.159562 16.33203,-6.964843 l 0.0742,0.07422 1.06055,-1.058593 c 5.97663,-5.960567 9.60598,-6.859351 12.45703,-6.273438 2.80134,0.575698 5.69947,3.232691 8.84179,6.382813 3.14238,3.150176 6.63601,6.855369 11.67188,7.839843 5.07282,0.991695 10.83274,-1.270279 17.4707,-7.958984 l 1.05274,-1.060547 -3.90625,-3.912109 -1.06055,1.070312 c -5.99323,6.039056 -9.6549,6.987837 -12.5,6.431641 -2.79717,-0.546825 -5.6864,-3.17665 -8.82422,-6.322266 -3.13774,-3.145522 -6.61667,-6.860922 -11.63672,-7.892578 -5.05854,-1.039571 -10.8271,1.156871 -17.32617,7.667969 -6.14559,6.156976 -9.80529,7.103071 -12.65039,6.546875 -2.79715,-0.546824 -5.68639,-3.176649 -8.82422,-6.322266 -3.13773,-3.145526 -6.61668,-6.860921 -11.63672,-7.892578 -0.51853,-0.106564 -1.05358,-0.15698 -1.59179,-0.195312 l -0.0723,-0.03125 z"
           id="path10167" />
      </g>
      <g
         id="g10173"
         transform="translate(1.7616575,-33.253467)">
        <path
           style="color:#000000;fill:#000000;stroke-width:3;-inkscape-stroke:none"
           d="m 111.74734,66.512534 c -4.06063,-0.169944 -8.75535,1.950977 -14.39753,7.577984 l 1.776911,1.794742 c 6.148139,-6.131605 10.384739,-7.387121 13.817859,-6.681587 3.43314,0.705535 6.44865,3.63309 9.60164,6.793903 3.15298,3.160812 6.44659,6.55753 10.89787,7.427718 4.45092,0.870124 9.66044,-1.037816 16.11682,-7.543003 l 0.003,0.003 c 6.14813,-6.131604 10.38521,-7.387121 13.81834,-6.681586 3.43313,0.705535 6.44864,3.63309 9.60163,6.793903 3.15298,3.160811 6.44659,6.55753 10.89786,7.427719 4.45129,0.870191 9.6612,-1.038036 16.11829,-7.544489 l -1.7858,-1.789169 c -6.16215,6.209264 -10.41652,7.518232 -13.85084,6.846848 -3.43432,-0.671383 -6.44777,-3.575298 -9.59867,-6.734032 -3.15092,-3.158733 -6.43617,-6.569981 -10.87719,-7.482643 -4.44101,-0.912663 -9.65185,0.934514 -15.96246,7.256803 -6.3106,6.322288 -10.56498,7.631256 -13.9993,6.959872 -3.43431,-0.671383 -6.44776,-3.575298 -9.59867,-6.734032 -3.15091,-3.158733 -6.43618,-6.569981 -10.87719,-7.482643 -0.55512,-0.114083 -1.12246,-0.185018 -1.70254,-0.209295 z m -100.873262,0.0044 C 6.8134588,66.347025 2.1187364,68.464636 -3.5234375,74.091643 l 1.7769117,1.798052 c 6.148131,-6.131605 10.3847255,-7.387121 13.8178528,-6.681587 3.433127,0.705535 6.448644,3.63309 9.601627,6.793903 3.152984,3.160812 6.446587,6.55753 10.897866,7.427721 4.450922,0.870124 9.660437,-1.037819 16.116807,-7.543006 l 0.003,0.003 c 6.148132,-6.131604 10.385216,-7.387121 13.818343,-6.681586 3.433131,0.705535 6.448643,3.63309 9.601627,6.793903 3.152984,3.160812 6.446587,6.55753 10.897866,7.427721 4.451283,0.870191 9.661197,-1.038038 16.118285,-7.544491 L 97.34981,74.090518 c -6.162152,6.209264 -10.425413,7.523805 -13.859729,6.852421 -3.434316,-0.671383 -6.447767,-3.575298 -9.598674,-6.734032 -3.150913,-3.158733 -6.43617,-6.569981 -10.877184,-7.482643 -4.44101,-0.912663 -9.651856,0.934514 -15.962457,7.256803 -6.310599,6.322288 -10.564981,7.631256 -13.999295,6.959872 -3.434309,-0.671383 -6.447755,-3.575298 -9.598665,-6.734032 -3.15091,-3.158733 -6.436171,-6.569981 -10.877182,-7.482643 -0.555126,-0.114083 -1.122457,-0.185017 -1.702546,-0.209295 z"
           id="path10169" />
        <path
           style="color:#000000;fill:#000000;-inkscape-stroke:none"
           d="m 111.81055,65.013672 c -4.31941,-0.180774 -9.06112,2.036019 -14.386722,7.017578 l -0.07227,-0.07227 -1.066406,1.074219 c -5.993043,6.038863 -9.66473,6.993302 -12.507812,6.4375 -2.797163,-0.546824 -5.686397,-3.174696 -8.824219,-6.320312 -3.137737,-3.145525 -6.616677,-6.860922 -11.636719,-7.892579 -5.058542,-1.03957 -10.82711,1.154918 -17.326172,7.666016 -6.145592,6.156976 -9.805299,7.10307 -12.65039,6.546875 -2.797154,-0.546824 -5.686393,-3.174695 -8.824219,-6.320312 -3.137735,-3.145525 -6.61668,-6.860922 -11.636719,-7.892579 -0.164156,-0.03374 -0.33768,-0.03543 -0.503906,-0.0625 v -0.117187 l -1.4375,-0.06055 C 6.308502,64.823886 1.2214839,67.241382 -4.5820312,73.029297 l -1.0585938,1.054687 3.8867188,3.931641 1.0664062,-1.064453 c 5.9766605,-5.960596 9.6059568,-6.859355 12.457031,-6.273438 2.80134,0.575698 5.699481,3.232693 8.841797,6.382813 3.142375,3.150176 6.635994,6.85732 11.671875,7.841797 4.773172,0.933121 10.183178,-1.161345 16.332031,-6.966797 l 0.07422,0.07422 L 49.75,76.951172 c 5.976633,-5.960567 9.605985,-6.85935 12.457031,-6.273438 2.801345,0.575698 5.699479,3.232692 8.841797,6.382813 3.142375,3.150176 6.635994,6.85732 11.671875,7.841797 4.771896,0.932868 10.181277,-1.160992 16.328125,-6.962891 l 0.07031,0.07031 1.066412,-1.0625 c 0.002,-0.0023 0.004,-0.0036 0.006,-0.0059 5.97259,-5.954459 9.60119,-6.853271 12.45117,-6.267578 2.80135,0.575699 5.69947,3.232691 8.8418,6.382813 3.14237,3.150177 6.63599,6.85537 11.67187,7.839843 4.77311,0.93311 10.18327,-1.159562 16.33203,-6.964843 l 0.0742,0.07422 1.06055,-1.058593 c 5.97663,-5.960567 9.60598,-6.859351 12.45703,-6.273438 2.80134,0.575698 5.69947,3.232691 8.84179,6.382813 3.14238,3.150176 6.63601,6.855369 11.67188,7.839843 5.07282,0.991695 10.83274,-1.270279 17.4707,-7.958984 l 1.05274,-1.060547 -3.90625,-3.912109 -1.06055,1.070312 c -5.99323,6.039056 -9.6549,6.987837 -12.5,6.431641 -2.79717,-0.546825 -5.6864,-3.17665 -8.82422,-6.322266 -3.13774,-3.145522 -6.61667,-6.860922 -11.63672,-7.892578 -5.05854,-1.039571 -10.8271,1.156871 -17.32617,7.667969 -6.14559,6.156976 -9.80529,7.103071 -12.65039,6.546875 -2.79715,-0.546824 -5.68639,-3.176649 -8.82422,-6.322266 -3.13773,-3.145526 -6.61668,-6.860921 -11.63672,-7.892578 -0.51853,-0.106564 -1.05358,-0.15698 -1.59179,-0.195312 l -0.0723,-0.03125 z"
           id="path10171" />
      </g>
      <g
         id="g10179"
         transform="translate(1.7616575,-1.5034656)">
        <path
           style="color:#000000;fill:#000000;stroke-width:3;-inkscape-stroke:none"
           d="m 111.74734,66.512534 c -4.06063,-0.169944 -8.75535,1.950977 -14.39753,7.577984 l 1.776911,1.794742 c 6.148139,-6.131605 10.384739,-7.387121 13.817859,-6.681587 3.43314,0.705535 6.44865,3.63309 9.60164,6.793903 3.15298,3.160812 6.44659,6.55753 10.89787,7.427718 4.45092,0.870124 9.66044,-1.037816 16.11682,-7.543003 l 0.003,0.003 c 6.14813,-6.131604 10.38521,-7.387121 13.81834,-6.681586 3.43313,0.705535 6.44864,3.63309 9.60163,6.793903 3.15298,3.160811 6.44659,6.55753 10.89786,7.427719 4.45129,0.870191 9.6612,-1.038036 16.11829,-7.544489 l -1.7858,-1.789169 c -6.16215,6.209264 -10.41652,7.518232 -13.85084,6.846848 -3.43432,-0.671383 -6.44777,-3.575298 -9.59867,-6.734032 -3.15092,-3.158733 -6.43617,-6.569981 -10.87719,-7.482643 -4.44101,-0.912663 -9.65185,0.934514 -15.96246,7.256803 -6.3106,6.322288 -10.56498,7.631256 -13.9993,6.959872 -3.43431,-0.671383 -6.44776,-3.575298 -9.59867,-6.734032 -3.15091,-3.158733 -6.43618,-6.569981 -10.87719,-7.482643 -0.55512,-0.114083 -1.12246,-0.185018 -1.70254,-0.209295 z m -100.873262,0.0044 C 6.8134588,66.347025 2.1187364,68.464636 -3.5234375,74.091643 l 1.7769117,1.798052 c 6.148131,-6.131605 10.3847255,-7.387121 13.8178528,-6.681587 3.433127,0.705535 6.448644,3.63309 9.601627,6.793903 3.152984,3.160812 6.446587,6.55753 10.897866,7.427721 4.450922,0.870124 9.660437,-1.037819 16.116807,-7.543006 l 0.003,0.003 c 6.148132,-6.131604 10.385216,-7.387121 13.818343,-6.681586 3.433131,0.705535 6.448643,3.63309 9.601627,6.793903 3.152984,3.160812 6.446587,6.55753 10.897866,7.427721 4.451283,0.870191 9.661197,-1.038038 16.118285,-7.544491 L 97.34981,74.090518 c -6.162152,6.209264 -10.425413,7.523805 -13.859729,6.852421 -3.434316,-0.671383 -6.447767,-3.575298 -9.598674,-6.734032 -3.150913,-3.158733 -6.43617,-6.569981 -10.877184,-7.482643 -4.44101,-0.912663 -9.651856,0.934514 -15.962457,7.256803 -6.310599,6.322288 -10.564981,7.631256 -13.999295,6.959872 -3.434309,-0.671383 -6.447755,-3.575298 -9.598665,-6.734032 -3.15091,-3.158733 -6.436171,-6.569981 -10.877182,-7.482643 -0.555126,-0.114083 -1.122457,-0.185017 -1.702546,-0.209295 z"
           id="path10175" />
        <path
           style="color:#000000;fill:#000000;-inkscape-stroke:none"
           d="m 111.81055,65.013672 c -4.31941,-0.180774 -9.06112,2.036019 -14.386722,7.017578 l -0.07227,-0.07227 -1.066406,1.074219 c -5.993043,6.038863 -9.66473,6.993302 -12.507812,6.4375 -2.797163,-0.546824 -5.686397,-3.174696 -8.824219,-6.320312 -3.137737,-3.145525 -6.616677,-6.860922 -11.636719,-7.892579 -5.058542,-1.03957 -10.82711,1.154918 -17.326172,7.666016 -6.145592,6.156976 -9.805299,7.10307 -12.65039,6.546875 -2.797154,-0.546824 -5.686393,-3.174695 -8.824219,-6.320312 -3.137735,-3.145525 -6.61668,-6.860922 -11.636719,-7.892579 -0.164156,-0.03374 -0.33768,-0.03543 -0.503906,-0.0625 v -0.117187 l -1.4375,-0.06055 C 6.308502,64.823886 1.2214839,67.241382 -4.5820312,73.029297 l -1.0585938,1.054687 3.8867188,3.931641 1.0664062,-1.064453 c 5.9766605,-5.960596 9.6059568,-6.859355 12.457031,-6.273438 2.80134,0.575698 5.699481,3.232693 8.841797,6.382813 3.142375,3.150176 6.635994,6.85732 11.671875,7.841797 4.773172,0.933121 10.183178,-1.161345 16.332031,-6.966797 l 0.07422,0.07422 L 49.75,76.951172 c 5.976633,-5.960567 9.605985,-6.85935 12.457031,-6.273438 2.801345,0.575698 5.699479,3.232692 8.841797,6.382813 3.142375,3.150176 6.635994,6.85732 11.671875,7.841797 4.771896,0.932868 10.181277,-1.160992 16.328125,-6.962891 l 0.07031,0.07031 1.066412,-1.0625 c 0.002,-0.0023 0.004,-0.0036 0.006,-0.0059 5.97259,-5.954459 9.60119,-6.853271 12.45117,-6.267578 2.80135,0.575699 5.69947,3.232691 8.8418,6.382813 3.14237,3.150177 6.63599,6.85537 11.67187,7.839843 4.77311,0.93311 10.18327,-1.159562 16.33203,-6.964843 l 0.0742,0.07422 1.06055,-1.058593 c 5.97663,-5.960567 9.60598,-6.859351 12.45703,-6.273438 2.80134,0.575698 5.69947,3.232691 8.84179,6.382813 3.14238,3.150176 6.63601,6.855369 11.67188,7.839843 5.07282,0.991695 10.83274,-1.270279 17.4707,-7.958984 l 1.05274,-1.060547 -3.90625,-3.912109 -1.06055,1.070312 c -5.99323,6.039056 -9.6549,6.987837 -12.5,6.431641 -2.79717,-0.546825 -5.6864,-3.17665 -8.82422,-6.322266 -3.13774,-3.145522 -6.61667,-6.860922 -11.63672,-7.892578 -5.05854,-1.039571 -10.8271,1.156871 -17.32617,7.667969 -6.14559,6.156976 -9.80529,7.103071 -12.65039,6.546875 -2.79715,-0.546824 -5.68639,-3.176649 -8.82422,-6.322266 -3.13773,-3.145526 -6.61668,-6.860921 -11.63672,-7.892578 -0.51853,-0.106564 -1.05358,-0.15698 -1.59179,-0.195312 l -0.0723,-0.03125 z"
           id="path10177" />
      </g>
      <g
         id="g10185"
         transform="translate(1.7616575,30.246535)">
        <path
           style="color:#000000;fill:#000000;stroke-width:3;-inkscape-stroke:none"
           d="m 111.74734,66.512534 c -4.06063,-0.169944 -8.75535,1.950977 -14.39753,7.577984 l 1.776911,1.794742 c 6.148139,-6.131605 10.384739,-7.387121 13.817859,-6.681587 3.43314,0.705535 6.44865,3.63309 9.60164,6.793903 3.15298,3.160812 6.44659,6.55753 10.89787,7.427718 4.45092,0.870124 9.66044,-1.037816 16.11682,-7.543003 l 0.003,0.003 c 6.14813,-6.131604 10.38521,-7.387121 13.81834,-6.681586 3.43313,0.705535 6.44864,3.63309 9.60163,6.793903 3.15298,3.160811 6.44659,6.55753 10.89786,7.427719 4.45129,0.870191 9.6612,-1.038036 16.11829,-7.544489 l -1.7858,-1.789169 c -6.16215,6.209264 -10.41652,7.518232 -13.85084,6.846848 -3.43432,-0.671383 -6.44777,-3.575298 -9.59867,-6.734032 -3.15092,-3.158733 -6.43617,-6.569981 -10.87719,-7.482643 -4.44101,-0.912663 -9.65185,0.934514 -15.96246,7.256803 -6.3106,6.322288 -10.56498,7.631256 -13.9993,6.959872 -3.43431,-0.671383 -6.44776,-3.575298 -9.59867,-6.734032 -3.15091,-3.158733 -6.43618,-6.569981 -10.87719,-7.482643 -0.55512,-0.114083 -1.12246,-0.185018 -1.70254,-0.209295 z m -100.873262,0.0044 C 6.8134588,66.347025 2.1187364,68.464636 -3.5234375,74.091643 l 1.7769117,1.798052 c 6.148131,-6.131605 10.3847255,-7.387121 13.8178528,-6.681587 3.433127,0.705535 6.448644,3.63309 9.601627,6.793903 3.152984,3.160812 6.446587,6.55753 10.897866,7.427721 4.450922,0.870124 9.660437,-1.037819 16.116807,-7.543006 l 0.003,0.003 c 6.148132,-6.131604 10.385216,-7.387121 13.818343,-6.681586 3.433131,0.705535 6.448643,3.63309 9.601627,6.793903 3.152984,3.160812 6.446587,6.55753 10.897866,7.427721 4.451283,0.870191 9.661197,-1.038038 16.118285,-7.544491 L 97.34981,74.090518 c -6.162152,6.209264 -10.425413,7.523805 -13.859729,6.852421 -3.434316,-0.671383 -6.447767,-3.575298 -9.598674,-6.734032 -3.150913,-3.158733 -6.43617,-6.569981 -10.877184,-7.482643 -4.44101,-0.912663 -9.651856,0.934514 -15.962457,7.256803 -6.310599,6.322288 -10.564981,7.631256 -13.999295,6.959872 -3.434309,-0.671383 -6.447755,-3.575298 -9.598665,-6.734032 -3.15091,-3.158733 -6.436171,-6.569981 -10.877182,-7.482643 -0.555126,-0.114083 -1.122457,-0.185017 -1.702546,-0.209295 z"
           id="path10181" />
        <path
           style="color:#000000;fill:#000000;-inkscape-stroke:none"
           d="m 111.81055,65.013672 c -4.31941,-0.180774 -9.06112,2.036019 -14.386722,7.017578 l -0.07227,-0.07227 -1.066406,1.074219 c -5.993043,6.038863 -9.66473,6.993302 -12.507812,6.4375 -2.797163,-0.546824 -5.686397,-3.174696 -8.824219,-6.320312 -3.137737,-3.145525 -6.616677,-6.860922 -11.636719,-7.892579 -5.058542,-1.03957 -10.82711,1.154918 -17.326172,7.666016 -6.145592,6.156976 -9.805299,7.10307 -12.65039,6.546875 -2.797154,-0.546824 -5.686393,-3.174695 -8.824219,-6.320312 -3.137735,-3.145525 -6.61668,-6.860922 -11.636719,-7.892579 -0.164156,-0.03374 -0.33768,-0.03543 -0.503906,-0.0625 v -0.117187 l -1.4375,-0.06055 C 6.308502,64.823886 1.2214839,67.241382 -4.5820312,73.029297 l -1.0585938,1.054687 3.8867188,3.931641 1.0664062,-1.064453 c 5.9766605,-5.960596 9.6059568,-6.859355 12.457031,-6.273438 2.80134,0.575698 5.699481,3.232693 8.841797,6.382813 3.142375,3.150176 6.635994,6.85732 11.671875,7.841797 4.773172,0.933121 10.183178,-1.161345 16.332031,-6.966797 l 0.07422,0.07422 L 49.75,76.951172 c 5.976633,-5.960567 9.605985,-6.85935 12.457031,-6.273438 2.801345,0.575698 5.699479,3.232692 8.841797,6.382813 3.142375,3.150176 6.635994,6.85732 11.671875,7.841797 4.771896,0.932868 10.181277,-1.160992 16.328125,-6.962891 l 0.07031,0.07031 1.066412,-1.0625 c 0.002,-0.0023 0.004,-0.0036 0.006,-0.0059 5.97259,-5.954459 9.60119,-6.853271 12.45117,-6.267578 2.80135,0.575699 5.69947,3.232691 8.8418,6.382813 3.14237,3.150177 6.63599,6.85537 11.67187,7.839843 4.77311,0.93311 10.18327,-1.159562 16.33203,-6.964843 l 0.0742,0.07422 1.06055,-1.058593 c 5.97663,-5.960567 9.60598,-6.859351 12.45703,-6.273438 2.80134,0.575698 5.69947,3.232691 8.84179,6.382813 3.14238,3.150176 6.63601,6.855369 11.67188,7.839843 5.07282,0.991695 10.83274,-1.270279 17.4707,-7.958984 l 1.05274,-1.060547 -3.90625,-3.912109 -1.06055,1.070312 c -5.99323,6.039056 -9.6549,6.987837 -12.5,6.431641 -2.79717,-0.546825 -5.6864,-3.17665 -8.82422,-6.322266 -3.13774,-3.145522 -6.61667,-6.860922 -11.63672,-7.892578 -5.05854,-1.039571 -10.8271,1.156871 -17.32617,7.667969 -6.14559,6.156976 -9.80529,7.103071 -12.65039,6.546875 -2.79715,-0.546824 -5.68639,-3.176649 -8.82422,-6.322266 -3.13773,-3.145526 -6.61668,-6.860921 -11.63672,-7.892578 -0.51853,-0.106564 -1.05358,-0.15698 -1.59179,-0.195312 l -0.0723,-0.03125 z"
           id="path10183" />
      </g>
      <g
         id="g10191"
         transform="translate(1.7616575,61.996537)">
        <path
           style="color:#000000;fill:#000000;stroke-width:3;-inkscape-stroke:none"
           d="m 111.74734,66.512534 c -4.06063,-0.169944 -8.75535,1.950977 -14.39753,7.577984 l 1.776911,1.794742 c 6.148139,-6.131605 10.384739,-7.387121 13.817859,-6.681587 3.43314,0.705535 6.44865,3.63309 9.60164,6.793903 3.15298,3.160812 6.44659,6.55753 10.89787,7.427718 4.45092,0.870124 9.66044,-1.037816 16.11682,-7.543003 l 0.003,0.003 c 6.14813,-6.131604 10.38521,-7.387121 13.81834,-6.681586 3.43313,0.705535 6.44864,3.63309 9.60163,6.793903 3.15298,3.160811 6.44659,6.55753 10.89786,7.427719 4.45129,0.870191 9.6612,-1.038036 16.11829,-7.544489 l -1.7858,-1.789169 c -6.16215,6.209264 -10.41652,7.518232 -13.85084,6.846848 -3.43432,-0.671383 -6.44777,-3.575298 -9.59867,-6.734032 -3.15092,-3.158733 -6.43617,-6.569981 -10.87719,-7.482643 -4.44101,-0.912663 -9.65185,0.934514 -15.96246,7.256803 -6.3106,6.322288 -10.56498,7.631256 -13.9993,6.959872 -3.43431,-0.671383 -6.44776,-3.575298 -9.59867,-6.734032 -3.15091,-3.158733 -6.43618,-6.569981 -10.87719,-7.482643 -0.55512,-0.114083 -1.12246,-0.185018 -1.70254,-0.209295 z m -100.873262,0.0044 C 6.8134588,66.347025 2.1187364,68.464636 -3.5234375,74.091643 l 1.7769117,1.798052 c 6.148131,-6.131605 10.3847255,-7.387121 13.8178528,-6.681587 3.433127,0.705535 6.448644,3.63309 9.601627,6.793903 3.152984,3.160812 6.446587,6.55753 10.897866,7.427721 4.450922,0.870124 9.660437,-1.037819 16.116807,-7.543006 l 0.003,0.003 c 6.148132,-6.131604 10.385216,-7.387121 13.818343,-6.681586 3.433131,0.705535 6.448643,3.63309 9.601627,6.793903 3.152984,3.160812 6.446587,6.55753 10.897866,7.427721 4.451283,0.870191 9.661197,-1.038038 16.118285,-7.544491 L 97.34981,74.090518 c -6.162152,6.209264 -10.425413,7.523805 -13.859729,6.852421 -3.434316,-0.671383 -6.447767,-3.575298 -9.598674,-6.734032 -3.150913,-3.158733 -6.43617,-6.569981 -10.877184,-7.482643 -4.44101,-0.912663 -9.651856,0.934514 -15.962457,7.256803 -6.310599,6.322288 -10.564981,7.631256 -13.999295,6.959872 -3.434309,-0.671383 -6.447755,-3.575298 -9.598665,-6.734032 -3.15091,-3.158733 -6.436171,-6.569981 -10.877182,-7.482643 -0.555126,-0.114083 -1.122457,-0.185017 -1.702546,-0.209295 z"
           id="path10187" />
        <path
           style="color:#000000;fill:#000000;-inkscape-stroke:none"
           d="m 111.81055,65.013672 c -4.31941,-0.180774 -9.06112,2.036019 -14.386722,7.017578 l -0.07227,-0.07227 -1.066406,1.074219 c -5.993043,6.038863 -9.66473,6.993302 -12.507812,6.4375 -2.797163,-0.546824 -5.686397,-3.174696 -8.824219,-6.320312 -3.137737,-3.145525 -6.616677,-6.860922 -11.636719,-7.892579 -5.058542,-1.03957 -10.82711,1.154918 -17.326172,7.666016 -6.145592,6.156976 -9.805299,7.10307 -12.65039,6.546875 -2.797154,-0.546824 -5.686393,-3.174695 -8.824219,-6.320312 -3.137735,-3.145525 -6.61668,-6.860922 -11.636719,-7.892579 -0.164156,-0.03374 -0.33768,-0.03543 -0.503906,-0.0625 v -0.117187 l -1.4375,-0.06055 C 6.308502,64.823886 1.2214839,67.241382 -4.5820312,73.029297 l -1.0585938,1.054687 3.8867188,3.931641 1.0664062,-1.064453 c 5.9766605,-5.960596 9.6059568,-6.859355 12.457031,-6.273438 2.80134,0.575698 5.699481,3.232693 8.841797,6.382813 3.142375,3.150176 6.635994,6.85732 11.671875,7.841797 4.773172,0.933121 10.183178,-1.161345 16.332031,-6.966797 l 0.07422,0.07422 L 49.75,76.951172 c 5.976633,-5.960567 9.605985,-6.85935 12.457031,-6.273438 2.801345,0.575698 5.699479,3.232692 8.841797,6.382813 3.142375,3.150176 6.635994,6.85732 11.671875,7.841797 4.771896,0.932868 10.181277,-1.160992 16.328125,-6.962891 l 0.07031,0.07031 1.066412,-1.0625 c 0.002,-0.0023 0.004,-0.0036 0.006,-0.0059 5.97259,-5.954459 9.60119,-6.853271 12.45117,-6.267578 2.80135,0.575699 5.69947,3.232691 8.8418,6.382813 3.14237,3.150177 6.63599,6.85537 11.67187,7.839843 4.77311,0.93311 10.18327,-1.159562 16.33203,-6.964843 l 0.0742,0.07422 1.06055,-1.058593 c 5.97663,-5.960567 9.60598,-6.859351 12.45703,-6.273438 2.80134,0.575698 5.69947,3.232691 8.84179,6.382813 3.14238,3.150176 6.63601,6.855369 11.67188,7.839843 5.07282,0.991695 10.83274,-1.270279 17.4707,-7.958984 l 1.05274,-1.060547 -3.90625,-3.912109 -1.06055,1.070312 c -5.99323,6.039056 -9.6549,6.987837 -12.5,6.431641 -2.79717,-0.546825 -5.6864,-3.17665 -8.82422,-6.322266 -3.13774,-3.145522 -6.61667,-6.860922 -11.63672,-7.892578 -5.05854,-1.039571 -10.8271,1.156871 -17.32617,7.667969 -6.14559,6.156976 -9.80529,7.103071 -12.65039,6.546875 -2.79715,-0.546824 -5.68639,-3.176649 -8.82422,-6.322266 -3.13773,-3.145526 -6.61668,-6.860921 -11.63672,-7.892578 -0.51853,-0.106564 -1.05358,-0.15698 -1.59179,-0.195312 l -0.0723,-0.03125 z"
           id="path10189" />
      </g>
      <g
         id="g10197"
         transform="translate(1.7616575,93.746539)">
        <path
           style="color:#000000;fill:#000000;stroke-width:3;-inkscape-stroke:none"
           d="m 111.74734,66.512534 c -4.06063,-0.169944 -8.75535,1.950977 -14.39753,7.577984 l 1.776911,1.794742 c 6.148139,-6.131605 10.384739,-7.387121 13.817859,-6.681587 3.43314,0.705535 6.44865,3.63309 9.60164,6.793903 3.15298,3.160812 6.44659,6.55753 10.89787,7.427718 4.45092,0.870124 9.66044,-1.037816 16.11682,-7.543003 l 0.003,0.003 c 6.14813,-6.131604 10.38521,-7.387121 13.81834,-6.681586 3.43313,0.705535 6.44864,3.63309 9.60163,6.793903 3.15298,3.160811 6.44659,6.55753 10.89786,7.427719 4.45129,0.870191 9.6612,-1.038036 16.11829,-7.544489 l -1.7858,-1.789169 c -6.16215,6.209264 -10.41652,7.518232 -13.85084,6.846848 -3.43432,-0.671383 -6.44777,-3.575298 -9.59867,-6.734032 -3.15092,-3.158733 -6.43617,-6.569981 -10.87719,-7.482643 -4.44101,-0.912663 -9.65185,0.934514 -15.96246,7.256803 -6.3106,6.322288 -10.56498,7.631256 -13.9993,6.959872 -3.43431,-0.671383 -6.44776,-3.575298 -9.59867,-6.734032 -3.15091,-3.158733 -6.43618,-6.569981 -10.87719,-7.482643 -0.55512,-0.114083 -1.12246,-0.185018 -1.70254,-0.209295 z m -100.873262,0.0044 C 6.8134588,66.347025 2.1187364,68.464636 -3.5234375,74.091643 l 1.7769117,1.798052 c 6.148131,-6.131605 10.3847255,-7.387121 13.8178528,-6.681587 3.433127,0.705535 6.448644,3.63309 9.601627,6.793903 3.152984,3.160812 6.446587,6.55753 10.897866,7.427721 4.450922,0.870124 9.660437,-1.037819 16.116807,-7.543006 l 0.003,0.003 c 6.148132,-6.131604 10.385216,-7.387121 13.818343,-6.681586 3.433131,0.705535 6.448643,3.63309 9.601627,6.793903 3.152984,3.160812 6.446587,6.55753 10.897866,7.427721 4.451283,0.870191 9.661197,-1.038038 16.118285,-7.544491 L 97.34981,74.090518 c -6.162152,6.209264 -10.425413,7.523805 -13.859729,6.852421 -3.434316,-0.671383 -6.447767,-3.575298 -9.598674,-6.734032 -3.150913,-3.158733 -6.43617,-6.569981 -10.877184,-7.482643 -4.44101,-0.912663 -9.651856,0.934514 -15.962457,7.256803 -6.310599,6.322288 -10.564981,7.631256 -13.999295,6.959872 -3.434309,-0.671383 -6.447755,-3.575298 -9.598665,-6.734032 -3.15091,-3.158733 -6.436171,-6.569981 -10.877182,-7.482643 -0.555126,-0.114083 -1.122457,-0.185017 -1.702546,-0.209295 z"
           id="path10193" />
        <path
           style="color:#000000;fill:#000000;-inkscape-stroke:none"
           d="m 111.81055,65.013672 c -4.31941,-0.180774 -9.06112,2.036019 -14.386722,7.017578 l -0.07227,-0.07227 -1.066406,1.074219 c -5.993043,6.038863 -9.66473,6.993302 -12.507812,6.4375 -2.797163,-0.546824 -5.686397,-3.174696 -8.824219,-6.320312 -3.137737,-3.145525 -6.616677,-6.860922 -11.636719,-7.892579 -5.058542,-1.03957 -10.82711,1.154918 -17.326172,7.666016 -6.145592,6.156976 -9.805299,7.10307 -12.65039,6.546875 -2.797154,-0.546824 -5.686393,-3.174695 -8.824219,-6.320312 -3.137735,-3.145525 -6.61668,-6.860922 -11.636719,-7.892579 -0.164156,-0.03374 -0.33768,-0.03543 -0.503906,-0.0625 v -0.117187 l -1.4375,-0.06055 C 6.308502,64.823886 1.2214839,67.241382 -4.5820312,73.029297 l -1.0585938,1.054687 3.8867188,3.931641 1.0664062,-1.064453 c 5.9766605,-5.960596 9.6059568,-6.859355 12.457031,-6.273438 2.80134,0.575698 5.699481,3.232693 8.841797,6.382813 3.142375,3.150176 6.635994,6.85732 11.671875,7.841797 4.773172,0.933121 10.183178,-1.161345 16.332031,-6.966797 l 0.07422,0.07422 L 49.75,76.951172 c 5.976633,-5.960567 9.605985,-6.85935 12.457031,-6.273438 2.801345,0.575698 5.699479,3.232692 8.841797,6.382813 3.142375,3.150176 6.635994,6.85732 11.671875,7.841797 4.771896,0.932868 10.181277,-1.160992 16.328125,-6.962891 l 0.07031,0.07031 1.066412,-1.0625 c 0.002,-0.0023 0.004,-0.0036 0.006,-0.0059 5.97259,-5.954459 9.60119,-6.853271 12.45117,-6.267578 2.80135,0.575699 5.69947,3.232691 8.8418,6.382813 3.14237,3.150177 6.63599,6.85537 11.67187,7.839843 4.77311,0.93311 10.18327,-1.159562 16.33203,-6.964843 l 0.0742,0.07422 1.06055,-1.058593 c 5.97663,-5.960567 9.60598,-6.859351 12.45703,-6.273438 2.80134,0.575698 5.69947,3.232691 8.84179,6.382813 3.14238,3.150176 6.63601,6.855369 11.67188,7.839843 5.07282,0.991695 10.83274,-1.270279 17.4707,-7.958984 l 1.05274,-1.060547 -3.90625,-3.912109 -1.06055,1.070312 c -5.99323,6.039056 -9.6549,6.987837 -12.5,6.431641 -2.79717,-0.546825 -5.6864,-3.17665 -8.82422,-6.322266 -3.13774,-3.145522 -6.61667,-6.860922 -11.63672,-7.892578 -5.05854,-1.039571 -10.8271,1.156871 -17.32617,7.667969 -6.14559,6.156976 -9.80529,7.103071 -12.65039,6.546875 -2.79715,-0.546824 -5.68639,-3.176649 -8.82422,-6.322266 -3.13773,-3.145526 -6.61668,-6.860921 -11.63672,-7.892578 -0.51853,-0.106564 -1.05358,-0.15698 -1.59179,-0.195312 l -0.0723,-0.03125 z"
           id="path10195" />
      </g>
      <g
         id="g10203"
         transform="translate(1.7616575,125.49655)">
        <path
           style="color:#000000;fill:#000000;stroke-width:3;-inkscape-stroke:none"
           d="m 111.74734,66.512534 c -4.06063,-0.169944 -8.75535,1.950977 -14.39753,7.577984 l 1.776911,1.794742 c 6.148139,-6.131605 10.384739,-7.387121 13.817859,-6.681587 3.43314,0.705535 6.44865,3.63309 9.60164,6.793903 3.15298,3.160812 6.44659,6.55753 10.89787,7.427718 4.45092,0.870124 9.66044,-1.037816 16.11682,-7.543003 l 0.003,0.003 c 6.14813,-6.131604 10.38521,-7.387121 13.81834,-6.681586 3.43313,0.705535 6.44864,3.63309 9.60163,6.793903 3.15298,3.160811 6.44659,6.55753 10.89786,7.427719 4.45129,0.870191 9.6612,-1.038036 16.11829,-7.544489 l -1.7858,-1.789169 c -6.16215,6.209264 -10.41652,7.518232 -13.85084,6.846848 -3.43432,-0.671383 -6.44777,-3.575298 -9.59867,-6.734032 -3.15092,-3.158733 -6.43617,-6.569981 -10.87719,-7.482643 -4.44101,-0.912663 -9.65185,0.934514 -15.96246,7.256803 -6.3106,6.322288 -10.56498,7.631256 -13.9993,6.959872 -3.43431,-0.671383 -6.44776,-3.575298 -9.59867,-6.734032 -3.15091,-3.158733 -6.43618,-6.569981 -10.87719,-7.482643 -0.55512,-0.114083 -1.12246,-0.185018 -1.70254,-0.209295 z m -100.873262,0.0044 C 6.8134588,66.347025 2.1187364,68.464636 -3.5234375,74.091643 l 1.7769117,1.798052 c 6.148131,-6.131605 10.3847255,-7.387121 13.8178528,-6.681587 3.433127,0.705535 6.448644,3.63309 9.601627,6.793903 3.152984,3.160812 6.446587,6.55753 10.897866,7.427721 4.450922,0.870124 9.660437,-1.037819 16.116807,-7.543006 l 0.003,0.003 c 6.148132,-6.131604 10.385216,-7.387121 13.818343,-6.681586 3.433131,0.705535 6.448643,3.63309 9.601627,6.793903 3.152984,3.160812 6.446587,6.55753 10.897866,7.427721 4.451283,0.870191 9.661197,-1.038038 16.118285,-7.544491 L 97.34981,74.090518 c -6.162152,6.209264 -10.425413,7.523805 -13.859729,6.852421 -3.434316,-0.671383 -6.447767,-3.575298 -9.598674,-6.734032 -3.150913,-3.158733 -6.43617,-6.569981 -10.877184,-7.482643 -4.44101,-0.912663 -9.651856,0.934514 -15.962457,7.256803 -6.310599,6.322288 -10.564981,7.631256 -13.999295,6.959872 -3.434309,-0.671383 -6.447755,-3.575298 -9.598665,-6.734032 -3.15091,-3.158733 -6.436171,-6.569981 -10.877182,-7.482643 -0.555126,-0.114083 -1.122457,-0.185017 -1.702546,-0.209295 z"
           id="path10199" />
        <path
           style="color:#000000;fill:#000000;-inkscape-stroke:none"
           d="m 111.81055,65.013672 c -4.31941,-0.180774 -9.06112,2.036019 -14.386722,7.017578 l -0.07227,-0.07227 -1.066406,1.074219 c -5.993043,6.038863 -9.66473,6.993302 -12.507812,6.4375 -2.797163,-0.546824 -5.686397,-3.174696 -8.824219,-6.320312 -3.137737,-3.145525 -6.616677,-6.860922 -11.636719,-7.892579 -5.058542,-1.03957 -10.82711,1.154918 -17.326172,7.666016 -6.145592,6.156976 -9.805299,7.10307 -12.65039,6.546875 -2.797154,-0.546824 -5.686393,-3.174695 -8.824219,-6.320312 -3.137735,-3.145525 -6.61668,-6.860922 -11.636719,-7.892579 -0.164156,-0.03374 -0.33768,-0.03543 -0.503906,-0.0625 v -0.117187 l -1.4375,-0.06055 C 6.308502,64.823886 1.2214839,67.241382 -4.5820312,73.029297 l -1.0585938,1.054687 3.8867188,3.931641 1.0664062,-1.064453 c 5.9766605,-5.960596 9.6059568,-6.859355 12.457031,-6.273438 2.80134,0.575698 5.699481,3.232693 8.841797,6.382813 3.142375,3.150176 6.635994,6.85732 11.671875,7.841797 4.773172,0.933121 10.183178,-1.161345 16.332031,-6.966797 l 0.07422,0.07422 L 49.75,76.951172 c 5.976633,-5.960567 9.605985,-6.85935 12.457031,-6.273438 2.801345,0.575698 5.699479,3.232692 8.841797,6.382813 3.142375,3.150176 6.635994,6.85732 11.671875,7.841797 4.771896,0.932868 10.181277,-1.160992 16.328125,-6.962891 l 0.07031,0.07031 1.066412,-1.0625 c 0.002,-0.0023 0.004,-0.0036 0.006,-0.0059 5.97259,-5.954459 9.60119,-6.853271 12.45117,-6.267578 2.80135,0.575699 5.69947,3.232691 8.8418,6.382813 3.14237,3.150177 6.63599,6.85537 11.67187,7.839843 4.77311,0.93311 10.18327,-1.159562 16.33203,-6.964843 l 0.0742,0.07422 1.06055,-1.058593 c 5.97663,-5.960567 9.60598,-6.859351 12.45703,-6.273438 2.80134,0.575698 5.69947,3.232691 8.84179,6.382813 3.14238,3.150176 6.63601,6.855369 11.67188,7.839843 5.07282,0.991695 10.83274,-1.270279 17.4707,-7.958984 l 1.05274,-1.060547 -3.90625,-3.912109 -1.06055,1.070312 c -5.99323,6.039056 -9.6549,6.987837 -12.5,6.431641 -2.79717,-0.546825 -5.6864,-3.17665 -8.82422,-6.322266 -3.13774,-3.145522 -6.61667,-6.860922 -11.63672,-7.892578 -5.05854,-1.039571 -10.8271,1.156871 -17.32617,7.667969 -6.14559,6.156976 -9.80529,7.103071 -12.65039,6.546875 -2.79715,-0.546824 -5.68639,-3.176649 -8.82422,-6.322266 -3.13773,-3.145526 -6.61668,-6.860921 -11.63672,-7.892578 -0.51853,-0.106564 -1.05358,-0.15698 -1.59179,-0.195312 l -0.0723,-0.03125 z"
           id="path10201" />
      </g>
    </g>
  </g>
</svg>
