<?xml version="1.0" encoding="UTF-8" standalone="no"?>
<!-- Created with Inkscape (http://www.inkscape.org/) -->

<svg
   width="200mm"
   height="200mm"
   viewBox="0 0 200 200"
   version="1.1"
   id="svg3739"
   sodipodi:docname="decor-00.svg"
   inkscape:version="1.1.2 (0a00cf5339, 2022-02-04)"
   xmlns:inkscape="http://www.inkscape.org/namespaces/inkscape"
   xmlns:sodipodi="http://sodipodi.sourceforge.net/DTD/sodipodi-0.dtd"
   xmlns="http://www.w3.org/2000/svg"
   xmlns:svg="http://www.w3.org/2000/svg">
  <sodipodi:namedview
     id="namedview3741"
     pagecolor="#ffffff"
     bordercolor="#666666"
     borderopacity="1.0"
     inkscape:pageshadow="2"
     inkscape:pageopacity="0.0"
     inkscape:pagecheckerboard="0"
     inkscape:document-units="mm"
     showgrid="false"
     inkscape:snap-page="false"
     inkscape:zoom="0.41516682"
     inkscape:cx="60.216758"
     inkscape:cy="538.33782"
     inkscape:window-width="1600"
     inkscape:window-height="863"
     inkscape:window-x="0"
     inkscape:window-y="0"
     inkscape:window-maximized="1"
     inkscape:current-layer="layer1" />
  <defs
     id="defs3736">
    <inkscape:path-effect
       effect="powerstroke"
       id="path-effect18733"
       is_visible="true"
       lpeversion="1"
       offset_points="1,3.33024"
       not_jump="false"
       sort_points="true"
       interpolator_type="CubicBezierJohan"
       interpolator_beta="0.2"
       start_linecap_type="zerowidth"
       linejoin_type="extrp_arc"
       miter_limit="4"
       scale_width="1"
       end_linecap_type="zerowidth" />
    <inkscape:path-effect
       effect="powerstroke"
       id="path-effect16712"
       is_visible="true"
       lpeversion="1"
       offset_points="1,3.33024"
       not_jump="false"
       sort_points="true"
       interpolator_type="CubicBezierJohan"
       interpolator_beta="0.2"
       start_linecap_type="zerowidth"
       linejoin_type="extrp_arc"
       miter_limit="4"
       scale_width="1"
       end_linecap_type="zerowidth" />
    <inkscape:path-effect
       effect="powerstroke"
       id="path-effect13765"
       is_visible="true"
       lpeversion="1"
       offset_points="1,1.9684151"
       not_jump="false"
       sort_points="true"
       interpolator_type="CubicBezierJohan"
       interpolator_beta="0.2"
       start_linecap_type="zerowidth"
       linejoin_type="extrp_arc"
       miter_limit="4"
       scale_width="1"
       end_linecap_type="zerowidth" />
    <inkscape:path-effect
       effect="powerstroke"
       id="path-effect11045"
       is_visible="true"
       lpeversion="1"
       offset_points="1,7.1454502"
       not_jump="false"
       sort_points="true"
       interpolator_type="CubicBezierJohan"
       interpolator_beta="0.2"
       start_linecap_type="zerowidth"
       linejoin_type="extrp_arc"
       miter_limit="4"
       scale_width="1"
       end_linecap_type="zerowidth" />
    <inkscape:path-effect
       effect="powerstroke"
       id="path-effect4349"
       is_visible="true"
       lpeversion="1"
       offset_points="1,1.7415223"
       not_jump="false"
       sort_points="true"
       interpolator_type="CubicBezierJohan"
       interpolator_beta="0.2"
       start_linecap_type="zerowidth"
       linejoin_type="extrp_arc"
       miter_limit="4"
       scale_width="1"
       end_linecap_type="zerowidth" />
    <inkscape:path-effect
       effect="powerstroke"
       id="path-effect4345"
       is_visible="true"
       lpeversion="1"
       offset_points="3,4.99214"
       not_jump="false"
       sort_points="true"
       interpolator_type="CubicBezierJohan"
       interpolator_beta="0.2"
       start_linecap_type="zerowidth"
       linejoin_type="extrp_arc"
       miter_limit="4"
       scale_width="1"
       end_linecap_type="zerowidth" />
    <inkscape:path-effect
       effect="powerstroke"
       id="path-effect4341"
       is_visible="true"
       lpeversion="1"
       offset_points="8,4.99214"
       not_jump="false"
       sort_points="true"
       interpolator_type="CubicBezierJohan"
       interpolator_beta="0.2"
       start_linecap_type="zerowidth"
       linejoin_type="extrp_arc"
       miter_limit="4"
       scale_width="1"
       end_linecap_type="zerowidth" />
    <inkscape:path-effect
       effect="powerstroke"
       id="path-effect4337"
       is_visible="true"
       lpeversion="1"
       offset_points="9,4.99214"
       not_jump="false"
       sort_points="true"
       interpolator_type="CubicBezierJohan"
       interpolator_beta="0.2"
       start_linecap_type="zerowidth"
       linejoin_type="extrp_arc"
       miter_limit="4"
       scale_width="1"
       end_linecap_type="zerowidth" />
    <inkscape:path-effect
       effect="powerstroke"
       id="path-effect4333"
       is_visible="true"
       lpeversion="1"
       offset_points="3,4.99214"
       not_jump="false"
       sort_points="true"
       interpolator_type="CubicBezierJohan"
       interpolator_beta="0.2"
       start_linecap_type="zerowidth"
       linejoin_type="extrp_arc"
       miter_limit="4"
       scale_width="1"
       end_linecap_type="zerowidth" />
    <inkscape:path-effect
       effect="powerstroke"
       id="path-effect13765-6"
       is_visible="true"
       lpeversion="1"
       offset_points="1,3.33024"
       not_jump="false"
       sort_points="true"
       interpolator_type="CubicBezierJohan"
       interpolator_beta="0.2"
       start_linecap_type="zerowidth"
       linejoin_type="extrp_arc"
       miter_limit="4"
       scale_width="1"
       end_linecap_type="zerowidth" />
  </defs>
  <g
     inkscape:label="Layer 1"
     inkscape:groupmode="layer"
     id="layer1">
    <g
       id="g3567"
       transform="matrix(1.21,0,0,1.21,-11.401964,-11.328547)">
      <path
         sodipodi:type="star"
         style="fill:#000000;fill-opacity:1;stroke:#000000;stroke-width:3.77953;stroke-linecap:round;stroke-linejoin:round;stroke-miterlimit:4;stroke-dasharray:none;stroke-opacity:1"
         id="path3003"
         inkscape:flatsided="false"
         sodipodi:sides="5"
         sodipodi:cx="73.35273"
         sodipodi:cy="89.530609"
         sodipodi:r1="67.986618"
         sodipodi:r2="25.698677"
         sodipodi:arg1="1.0838605"
         sodipodi:arg2="1.712179"
         inkscape:rounded="0.075399559"
         inkscape:randomized="0"
         d="m 105.16503,149.6152 c -3.30209,1.74832 -31.734465,-34.11583 -35.433555,-34.64233 -3.699091,-0.5265 -41.008883,25.98041 -43.692041,23.3802 C 23.356275,135.75285 48.679025,97.629423 48.036675,93.948681 47.394324,90.267939 10.655389,62.975306 12.299202,59.619959 c 1.643813,-3.355347 45.726504,8.947234 49.028601,7.19891 3.302096,-1.748323 17.905977,-45.123015 21.605068,-44.596514 3.69909,0.5265 5.620942,46.253337 8.3041,48.853555 2.683158,2.600219 48.447789,3.085818 49.090139,6.76656 0.64235,3.680742 -42.252571,19.638901 -43.896384,22.99425 -1.643813,3.35534 12.036404,47.03015 8.734304,48.77848 z"
         transform="matrix(0.19246098,0,0,0.19246098,-1.9885452,-3.9112971)"
         inkscape:transform-center-x="-0.31952133"
         inkscape:transform-center-y="-0.63554323" />
      <path
         sodipodi:type="star"
         style="fill:#000000;fill-opacity:1;stroke:#000000;stroke-width:3.77953;stroke-linecap:round;stroke-linejoin:round;stroke-miterlimit:4;stroke-dasharray:none;stroke-opacity:1"
         id="path3275"
         inkscape:flatsided="false"
         sodipodi:sides="5"
         sodipodi:cx="73.35273"
         sodipodi:cy="89.530609"
         sodipodi:r1="67.986618"
         sodipodi:r2="25.698677"
         sodipodi:arg1="1.0838605"
         sodipodi:arg2="1.712179"
         inkscape:rounded="0.075399559"
         inkscape:randomized="0"
         d="m 105.16503,149.6152 c -3.30209,1.74832 -31.734465,-34.11583 -35.433555,-34.64233 -3.699091,-0.5265 -41.008883,25.98041 -43.692041,23.3802 C 23.356275,135.75285 48.679025,97.629423 48.036675,93.948681 47.394324,90.267939 10.655389,62.975306 12.299202,59.619959 c 1.643813,-3.355347 45.726504,8.947234 49.028601,7.19891 3.302096,-1.748323 17.905977,-45.123015 21.605068,-44.596514 3.69909,0.5265 5.620942,46.253337 8.3041,48.853555 2.683158,2.600219 48.447789,3.085818 49.090139,6.76656 0.64235,3.680742 -42.252571,19.638901 -43.896384,22.99425 -1.643813,3.35534 12.036404,47.03015 8.734304,48.77848 z"
         transform="matrix(0.19246098,0,0,0.19246098,29.761456,-3.9112971)"
         inkscape:transform-center-x="-0.31952133"
         inkscape:transform-center-y="-0.63554323" />
      <path
         sodipodi:type="star"
         style="fill:#000000;fill-opacity:1;stroke:#000000;stroke-width:3.77953;stroke-linecap:round;stroke-linejoin:round;stroke-miterlimit:4;stroke-dasharray:none;stroke-opacity:1"
         id="path3277"
         inkscape:flatsided="false"
         sodipodi:sides="5"
         sodipodi:cx="73.35273"
         sodipodi:cy="89.530609"
         sodipodi:r1="67.986618"
         sodipodi:r2="25.698677"
         sodipodi:arg1="1.0838605"
         sodipodi:arg2="1.712179"
         inkscape:rounded="0.075399559"
         inkscape:randomized="0"
         d="m 105.16503,149.6152 c -3.30209,1.74832 -31.734465,-34.11583 -35.433555,-34.64233 -3.699091,-0.5265 -41.008883,25.98041 -43.692041,23.3802 C 23.356275,135.75285 48.679025,97.629423 48.036675,93.948681 47.394324,90.267939 10.655389,62.975306 12.299202,59.619959 c 1.643813,-3.355347 45.726504,8.947234 49.028601,7.19891 3.302096,-1.748323 17.905977,-45.123015 21.605068,-44.596514 3.69909,0.5265 5.620942,46.253337 8.3041,48.853555 2.683158,2.600219 48.447789,3.085818 49.090139,6.76656 0.64235,3.680742 -42.252571,19.638901 -43.896384,22.99425 -1.643813,3.35534 12.036404,47.03015 8.734304,48.77848 z"
         transform="matrix(0.19246098,0,0,0.19246098,61.511458,-3.9112971)"
         inkscape:transform-center-x="-0.31952133"
         inkscape:transform-center-y="-0.63554323" />
      <path
         sodipodi:type="star"
         style="fill:#000000;fill-opacity:1;stroke:#000000;stroke-width:3.77953;stroke-linecap:round;stroke-linejoin:round;stroke-miterlimit:4;stroke-dasharray:none;stroke-opacity:1"
         id="path3279"
         inkscape:flatsided="false"
         sodipodi:sides="5"
         sodipodi:cx="73.35273"
         sodipodi:cy="89.530609"
         sodipodi:r1="67.986618"
         sodipodi:r2="25.698677"
         sodipodi:arg1="1.0838605"
         sodipodi:arg2="1.712179"
         inkscape:rounded="0.075399559"
         inkscape:randomized="0"
         d="m 105.16503,149.6152 c -3.30209,1.74832 -31.734465,-34.11583 -35.433555,-34.64233 -3.699091,-0.5265 -41.008883,25.98041 -43.692041,23.3802 C 23.356275,135.75285 48.679025,97.629423 48.036675,93.948681 47.394324,90.267939 10.655389,62.975306 12.299202,59.619959 c 1.643813,-3.355347 45.726504,8.947234 49.028601,7.19891 3.302096,-1.748323 17.905977,-45.123015 21.605068,-44.596514 3.69909,0.5265 5.620942,46.253337 8.3041,48.853555 2.683158,2.600219 48.447789,3.085818 49.090139,6.76656 0.64235,3.680742 -42.252571,19.638901 -43.896384,22.99425 -1.643813,3.35534 12.036404,47.03015 8.734304,48.77848 z"
         transform="matrix(0.19246098,0,0,0.19246098,93.26146,-3.9112971)"
         inkscape:transform-center-x="-0.31952133"
         inkscape:transform-center-y="-0.63554323" />
      <path
         sodipodi:type="star"
         style="fill:#000000;fill-opacity:1;stroke:#000000;stroke-width:3.77953;stroke-linecap:round;stroke-linejoin:round;stroke-miterlimit:4;stroke-dasharray:none;stroke-opacity:1"
         id="path3281"
         inkscape:flatsided="false"
         sodipodi:sides="5"
         sodipodi:cx="73.35273"
         sodipodi:cy="89.530609"
         sodipodi:r1="67.986618"
         sodipodi:r2="25.698677"
         sodipodi:arg1="1.0838605"
         sodipodi:arg2="1.712179"
         inkscape:rounded="0.075399559"
         inkscape:randomized="0"
         d="m 105.16503,149.6152 c -3.30209,1.74832 -31.734465,-34.11583 -35.433555,-34.64233 -3.699091,-0.5265 -41.008883,25.98041 -43.692041,23.3802 C 23.356275,135.75285 48.679025,97.629423 48.036675,93.948681 47.394324,90.267939 10.655389,62.975306 12.299202,59.619959 c 1.643813,-3.355347 45.726504,8.947234 49.028601,7.19891 3.302096,-1.748323 17.905977,-45.123015 21.605068,-44.596514 3.69909,0.5265 5.620942,46.253337 8.3041,48.853555 2.683158,2.600219 48.447789,3.085818 49.090139,6.76656 0.64235,3.680742 -42.252571,19.638901 -43.896384,22.99425 -1.643813,3.35534 12.036404,47.03015 8.734304,48.77848 z"
         transform="matrix(0.19246098,0,0,0.19246098,125.01147,-3.9112971)"
         inkscape:transform-center-x="-0.31952133"
         inkscape:transform-center-y="-0.63554323" />
      <path
         sodipodi:type="star"
         style="fill:#000000;fill-opacity:1;stroke:#000000;stroke-width:3.77953;stroke-linecap:round;stroke-linejoin:round;stroke-miterlimit:4;stroke-dasharray:none;stroke-opacity:1"
         id="path3283"
         inkscape:flatsided="false"
         sodipodi:sides="5"
         sodipodi:cx="73.35273"
         sodipodi:cy="89.530609"
         sodipodi:r1="67.986618"
         sodipodi:r2="25.698677"
         sodipodi:arg1="1.0838605"
         sodipodi:arg2="1.712179"
         inkscape:rounded="0.075399559"
         inkscape:randomized="0"
         d="m 105.16503,149.6152 c -3.30209,1.74832 -31.734465,-34.11583 -35.433555,-34.64233 -3.699091,-0.5265 -41.008883,25.98041 -43.692041,23.3802 C 23.356275,135.75285 48.679025,97.629423 48.036675,93.948681 47.394324,90.267939 10.655389,62.975306 12.299202,59.619959 c 1.643813,-3.355347 45.726504,8.947234 49.028601,7.19891 3.302096,-1.748323 17.905977,-45.123015 21.605068,-44.596514 3.69909,0.5265 5.620942,46.253337 8.3041,48.853555 2.683158,2.600219 48.447789,3.085818 49.090139,6.76656 0.64235,3.680742 -42.252571,19.638901 -43.896384,22.99425 -1.643813,3.35534 12.036404,47.03015 8.734304,48.77848 z"
         transform="matrix(0.19246098,0,0,0.19246098,156.76149,-3.9112971)"
         inkscape:transform-center-x="-0.31952133"
         inkscape:transform-center-y="-0.63554323" />
      <path
         sodipodi:type="star"
         style="fill:#000000;fill-opacity:1;stroke:#000000;stroke-width:3.77953;stroke-linecap:round;stroke-linejoin:round;stroke-miterlimit:4;stroke-dasharray:none;stroke-opacity:1"
         id="path3287"
         inkscape:flatsided="false"
         sodipodi:sides="5"
         sodipodi:cx="73.35273"
         sodipodi:cy="89.530609"
         sodipodi:r1="67.986618"
         sodipodi:r2="25.698677"
         sodipodi:arg1="1.0838605"
         sodipodi:arg2="1.712179"
         inkscape:rounded="0.075399559"
         inkscape:randomized="0"
         d="m 105.16503,149.6152 c -3.30209,1.74832 -31.734465,-34.11583 -35.433555,-34.64233 -3.699091,-0.5265 -41.008883,25.98041 -43.692041,23.3802 C 23.356275,135.75285 48.679025,97.629423 48.036675,93.948681 47.394324,90.267939 10.655389,62.975306 12.299202,59.619959 c 1.643813,-3.355347 45.726504,8.947234 49.028601,7.19891 3.302096,-1.748323 17.905977,-45.123015 21.605068,-44.596514 3.69909,0.5265 5.620942,46.253337 8.3041,48.853555 2.683158,2.600219 48.447789,3.085818 49.090139,6.76656 0.64235,3.680742 -42.252571,19.638901 -43.896384,22.99425 -1.643813,3.35534 12.036404,47.03015 8.734304,48.77848 z"
         transform="matrix(0.19246098,0,0,0.19246098,-1.9885452,27.838704)"
         inkscape:transform-center-x="-0.31952133"
         inkscape:transform-center-y="-0.63554323" />
      <path
         sodipodi:type="star"
         style="fill:#000000;fill-opacity:1;stroke:#000000;stroke-width:3.77953;stroke-linecap:round;stroke-linejoin:round;stroke-miterlimit:4;stroke-dasharray:none;stroke-opacity:1"
         id="path3289"
         inkscape:flatsided="false"
         sodipodi:sides="5"
         sodipodi:cx="73.35273"
         sodipodi:cy="89.530609"
         sodipodi:r1="67.986618"
         sodipodi:r2="25.698677"
         sodipodi:arg1="1.0838605"
         sodipodi:arg2="1.712179"
         inkscape:rounded="0.075399559"
         inkscape:randomized="0"
         d="m 105.16503,149.6152 c -3.30209,1.74832 -31.734465,-34.11583 -35.433555,-34.64233 -3.699091,-0.5265 -41.008883,25.98041 -43.692041,23.3802 C 23.356275,135.75285 48.679025,97.629423 48.036675,93.948681 47.394324,90.267939 10.655389,62.975306 12.299202,59.619959 c 1.643813,-3.355347 45.726504,8.947234 49.028601,7.19891 3.302096,-1.748323 17.905977,-45.123015 21.605068,-44.596514 3.69909,0.5265 5.620942,46.253337 8.3041,48.853555 2.683158,2.600219 48.447789,3.085818 49.090139,6.76656 0.64235,3.680742 -42.252571,19.638901 -43.896384,22.99425 -1.643813,3.35534 12.036404,47.03015 8.734304,48.77848 z"
         transform="matrix(0.19246098,0,0,0.19246098,29.761456,27.838704)"
         inkscape:transform-center-x="-0.31952133"
         inkscape:transform-center-y="-0.63554323" />
      <path
         sodipodi:type="star"
         style="fill:#000000;fill-opacity:1;stroke:#000000;stroke-width:3.77953;stroke-linecap:round;stroke-linejoin:round;stroke-miterlimit:4;stroke-dasharray:none;stroke-opacity:1"
         id="path3291"
         inkscape:flatsided="false"
         sodipodi:sides="5"
         sodipodi:cx="73.35273"
         sodipodi:cy="89.530609"
         sodipodi:r1="67.986618"
         sodipodi:r2="25.698677"
         sodipodi:arg1="1.0838605"
         sodipodi:arg2="1.712179"
         inkscape:rounded="0.075399559"
         inkscape:randomized="0"
         d="m 105.16503,149.6152 c -3.30209,1.74832 -31.734465,-34.11583 -35.433555,-34.64233 -3.699091,-0.5265 -41.008883,25.98041 -43.692041,23.3802 C 23.356275,135.75285 48.679025,97.629423 48.036675,93.948681 47.394324,90.267939 10.655389,62.975306 12.299202,59.619959 c 1.643813,-3.355347 45.726504,8.947234 49.028601,7.19891 3.302096,-1.748323 17.905977,-45.123015 21.605068,-44.596514 3.69909,0.5265 5.620942,46.253337 8.3041,48.853555 2.683158,2.600219 48.447789,3.085818 49.090139,6.76656 0.64235,3.680742 -42.252571,19.638901 -43.896384,22.99425 -1.643813,3.35534 12.036404,47.03015 8.734304,48.77848 z"
         transform="matrix(0.19246098,0,0,0.19246098,61.511458,27.838704)"
         inkscape:transform-center-x="-0.31952133"
         inkscape:transform-center-y="-0.63554323" />
      <path
         sodipodi:type="star"
         style="fill:#000000;fill-opacity:1;stroke:#000000;stroke-width:3.77953;stroke-linecap:round;stroke-linejoin:round;stroke-miterlimit:4;stroke-dasharray:none;stroke-opacity:1"
         id="path3293"
         inkscape:flatsided="false"
         sodipodi:sides="5"
         sodipodi:cx="73.35273"
         sodipodi:cy="89.530609"
         sodipodi:r1="67.986618"
         sodipodi:r2="25.698677"
         sodipodi:arg1="1.0838605"
         sodipodi:arg2="1.712179"
         inkscape:rounded="0.075399559"
         inkscape:randomized="0"
         d="m 105.16503,149.6152 c -3.30209,1.74832 -31.734465,-34.11583 -35.433555,-34.64233 -3.699091,-0.5265 -41.008883,25.98041 -43.692041,23.3802 C 23.356275,135.75285 48.679025,97.629423 48.036675,93.948681 47.394324,90.267939 10.655389,62.975306 12.299202,59.619959 c 1.643813,-3.355347 45.726504,8.947234 49.028601,7.19891 3.302096,-1.748323 17.905977,-45.123015 21.605068,-44.596514 3.69909,0.5265 5.620942,46.253337 8.3041,48.853555 2.683158,2.600219 48.447789,3.085818 49.090139,6.76656 0.64235,3.680742 -42.252571,19.638901 -43.896384,22.99425 -1.643813,3.35534 12.036404,47.03015 8.734304,48.77848 z"
         transform="matrix(0.19246098,0,0,0.19246098,93.26146,27.838704)"
         inkscape:transform-center-x="-0.31952133"
         inkscape:transform-center-y="-0.63554323" />
      <path
         sodipodi:type="star"
         style="fill:#000000;fill-opacity:1;stroke:#000000;stroke-width:3.77953;stroke-linecap:round;stroke-linejoin:round;stroke-miterlimit:4;stroke-dasharray:none;stroke-opacity:1"
         id="path3295"
         inkscape:flatsided="false"
         sodipodi:sides="5"
         sodipodi:cx="73.35273"
         sodipodi:cy="89.530609"
         sodipodi:r1="67.986618"
         sodipodi:r2="25.698677"
         sodipodi:arg1="1.0838605"
         sodipodi:arg2="1.712179"
         inkscape:rounded="0.075399559"
         inkscape:randomized="0"
         d="m 105.16503,149.6152 c -3.30209,1.74832 -31.734465,-34.11583 -35.433555,-34.64233 -3.699091,-0.5265 -41.008883,25.98041 -43.692041,23.3802 C 23.356275,135.75285 48.679025,97.629423 48.036675,93.948681 47.394324,90.267939 10.655389,62.975306 12.299202,59.619959 c 1.643813,-3.355347 45.726504,8.947234 49.028601,7.19891 3.302096,-1.748323 17.905977,-45.123015 21.605068,-44.596514 3.69909,0.5265 5.620942,46.253337 8.3041,48.853555 2.683158,2.600219 48.447789,3.085818 49.090139,6.76656 0.64235,3.680742 -42.252571,19.638901 -43.896384,22.99425 -1.643813,3.35534 12.036404,47.03015 8.734304,48.77848 z"
         transform="matrix(0.19246098,0,0,0.19246098,125.01147,27.838704)"
         inkscape:transform-center-x="-0.31952133"
         inkscape:transform-center-y="-0.63554323" />
      <path
         sodipodi:type="star"
         style="fill:#000000;fill-opacity:1;stroke:#000000;stroke-width:3.77953;stroke-linecap:round;stroke-linejoin:round;stroke-miterlimit:4;stroke-dasharray:none;stroke-opacity:1"
         id="path3297"
         inkscape:flatsided="false"
         sodipodi:sides="5"
         sodipodi:cx="73.35273"
         sodipodi:cy="89.530609"
         sodipodi:r1="67.986618"
         sodipodi:r2="25.698677"
         sodipodi:arg1="1.0838605"
         sodipodi:arg2="1.712179"
         inkscape:rounded="0.075399559"
         inkscape:randomized="0"
         d="m 105.16503,149.6152 c -3.30209,1.74832 -31.734465,-34.11583 -35.433555,-34.64233 -3.699091,-0.5265 -41.008883,25.98041 -43.692041,23.3802 C 23.356275,135.75285 48.679025,97.629423 48.036675,93.948681 47.394324,90.267939 10.655389,62.975306 12.299202,59.619959 c 1.643813,-3.355347 45.726504,8.947234 49.028601,7.19891 3.302096,-1.748323 17.905977,-45.123015 21.605068,-44.596514 3.69909,0.5265 5.620942,46.253337 8.3041,48.853555 2.683158,2.600219 48.447789,3.085818 49.090139,6.76656 0.64235,3.680742 -42.252571,19.638901 -43.896384,22.99425 -1.643813,3.35534 12.036404,47.03015 8.734304,48.77848 z"
         transform="matrix(0.19246098,0,0,0.19246098,156.76149,27.838704)"
         inkscape:transform-center-x="-0.31952133"
         inkscape:transform-center-y="-0.63554323" />
      <path
         sodipodi:type="star"
         style="fill:#000000;fill-opacity:1;stroke:#000000;stroke-width:3.77953;stroke-linecap:round;stroke-linejoin:round;stroke-miterlimit:4;stroke-dasharray:none;stroke-opacity:1"
         id="path3301"
         inkscape:flatsided="false"
         sodipodi:sides="5"
         sodipodi:cx="73.35273"
         sodipodi:cy="89.530609"
         sodipodi:r1="67.986618"
         sodipodi:r2="25.698677"
         sodipodi:arg1="1.0838605"
         sodipodi:arg2="1.712179"
         inkscape:rounded="0.075399559"
         inkscape:randomized="0"
         d="m 105.16503,149.6152 c -3.30209,1.74832 -31.734465,-34.11583 -35.433555,-34.64233 -3.699091,-0.5265 -41.008883,25.98041 -43.692041,23.3802 C 23.356275,135.75285 48.679025,97.629423 48.036675,93.948681 47.394324,90.267939 10.655389,62.975306 12.299202,59.619959 c 1.643813,-3.355347 45.726504,8.947234 49.028601,7.19891 3.302096,-1.748323 17.905977,-45.123015 21.605068,-44.596514 3.69909,0.5265 5.620942,46.253337 8.3041,48.853555 2.683158,2.600219 48.447789,3.085818 49.090139,6.76656 0.64235,3.680742 -42.252571,19.638901 -43.896384,22.99425 -1.643813,3.35534 12.036404,47.03015 8.734304,48.77848 z"
         transform="matrix(0.19246098,0,0,0.19246098,-1.9885452,59.588706)"
         inkscape:transform-center-x="-0.31952133"
         inkscape:transform-center-y="-0.63554323" />
      <path
         sodipodi:type="star"
         style="fill:#000000;fill-opacity:1;stroke:#000000;stroke-width:3.77953;stroke-linecap:round;stroke-linejoin:round;stroke-miterlimit:4;stroke-dasharray:none;stroke-opacity:1"
         id="path3303"
         inkscape:flatsided="false"
         sodipodi:sides="5"
         sodipodi:cx="73.35273"
         sodipodi:cy="89.530609"
         sodipodi:r1="67.986618"
         sodipodi:r2="25.698677"
         sodipodi:arg1="1.0838605"
         sodipodi:arg2="1.712179"
         inkscape:rounded="0.075399559"
         inkscape:randomized="0"
         d="m 105.16503,149.6152 c -3.30209,1.74832 -31.734465,-34.11583 -35.433555,-34.64233 -3.699091,-0.5265 -41.008883,25.98041 -43.692041,23.3802 C 23.356275,135.75285 48.679025,97.629423 48.036675,93.948681 47.394324,90.267939 10.655389,62.975306 12.299202,59.619959 c 1.643813,-3.355347 45.726504,8.947234 49.028601,7.19891 3.302096,-1.748323 17.905977,-45.123015 21.605068,-44.596514 3.69909,0.5265 5.620942,46.253337 8.3041,48.853555 2.683158,2.600219 48.447789,3.085818 49.090139,6.76656 0.64235,3.680742 -42.252571,19.638901 -43.896384,22.99425 -1.643813,3.35534 12.036404,47.03015 8.734304,48.77848 z"
         transform="matrix(0.19246098,0,0,0.19246098,29.761456,59.588706)"
         inkscape:transform-center-x="-0.31952133"
         inkscape:transform-center-y="-0.63554323" />
      <path
         sodipodi:type="star"
         style="fill:#000000;fill-opacity:1;stroke:#000000;stroke-width:3.77953;stroke-linecap:round;stroke-linejoin:round;stroke-miterlimit:4;stroke-dasharray:none;stroke-opacity:1"
         id="path3305"
         inkscape:flatsided="false"
         sodipodi:sides="5"
         sodipodi:cx="73.35273"
         sodipodi:cy="89.530609"
         sodipodi:r1="67.986618"
         sodipodi:r2="25.698677"
         sodipodi:arg1="1.0838605"
         sodipodi:arg2="1.712179"
         inkscape:rounded="0.075399559"
         inkscape:randomized="0"
         d="m 105.16503,149.6152 c -3.30209,1.74832 -31.734465,-34.11583 -35.433555,-34.64233 -3.699091,-0.5265 -41.008883,25.98041 -43.692041,23.3802 C 23.356275,135.75285 48.679025,97.629423 48.036675,93.948681 47.394324,90.267939 10.655389,62.975306 12.299202,59.619959 c 1.643813,-3.355347 45.726504,8.947234 49.028601,7.19891 3.302096,-1.748323 17.905977,-45.123015 21.605068,-44.596514 3.69909,0.5265 5.620942,46.253337 8.3041,48.853555 2.683158,2.600219 48.447789,3.085818 49.090139,6.76656 0.64235,3.680742 -42.252571,19.638901 -43.896384,22.99425 -1.643813,3.35534 12.036404,47.03015 8.734304,48.77848 z"
         transform="matrix(0.19246098,0,0,0.19246098,61.511458,59.588706)"
         inkscape:transform-center-x="-0.31952133"
         inkscape:transform-center-y="-0.63554323" />
      <path
         sodipodi:type="star"
         style="fill:#000000;fill-opacity:1;stroke:#000000;stroke-width:3.77953;stroke-linecap:round;stroke-linejoin:round;stroke-miterlimit:4;stroke-dasharray:none;stroke-opacity:1"
         id="path3307"
         inkscape:flatsided="false"
         sodipodi:sides="5"
         sodipodi:cx="73.35273"
         sodipodi:cy="89.530609"
         sodipodi:r1="67.986618"
         sodipodi:r2="25.698677"
         sodipodi:arg1="1.0838605"
         sodipodi:arg2="1.712179"
         inkscape:rounded="0.075399559"
         inkscape:randomized="0"
         d="m 105.16503,149.6152 c -3.30209,1.74832 -31.734465,-34.11583 -35.433555,-34.64233 -3.699091,-0.5265 -41.008883,25.98041 -43.692041,23.3802 C 23.356275,135.75285 48.679025,97.629423 48.036675,93.948681 47.394324,90.267939 10.655389,62.975306 12.299202,59.619959 c 1.643813,-3.355347 45.726504,8.947234 49.028601,7.19891 3.302096,-1.748323 17.905977,-45.123015 21.605068,-44.596514 3.69909,0.5265 5.620942,46.253337 8.3041,48.853555 2.683158,2.600219 48.447789,3.085818 49.090139,6.76656 0.64235,3.680742 -42.252571,19.638901 -43.896384,22.99425 -1.643813,3.35534 12.036404,47.03015 8.734304,48.77848 z"
         transform="matrix(0.19246098,0,0,0.19246098,93.26146,59.588706)"
         inkscape:transform-center-x="-0.31952133"
         inkscape:transform-center-y="-0.63554323" />
      <path
         sodipodi:type="star"
         style="fill:#000000;fill-opacity:1;stroke:#000000;stroke-width:3.77953;stroke-linecap:round;stroke-linejoin:round;stroke-miterlimit:4;stroke-dasharray:none;stroke-opacity:1"
         id="path3309"
         inkscape:flatsided="false"
         sodipodi:sides="5"
         sodipodi:cx="73.35273"
         sodipodi:cy="89.530609"
         sodipodi:r1="67.986618"
         sodipodi:r2="25.698677"
         sodipodi:arg1="1.0838605"
         sodipodi:arg2="1.712179"
         inkscape:rounded="0.075399559"
         inkscape:randomized="0"
         d="m 105.16503,149.6152 c -3.30209,1.74832 -31.734465,-34.11583 -35.433555,-34.64233 -3.699091,-0.5265 -41.008883,25.98041 -43.692041,23.3802 C 23.356275,135.75285 48.679025,97.629423 48.036675,93.948681 47.394324,90.267939 10.655389,62.975306 12.299202,59.619959 c 1.643813,-3.355347 45.726504,8.947234 49.028601,7.19891 3.302096,-1.748323 17.905977,-45.123015 21.605068,-44.596514 3.69909,0.5265 5.620942,46.253337 8.3041,48.853555 2.683158,2.600219 48.447789,3.085818 49.090139,6.76656 0.64235,3.680742 -42.252571,19.638901 -43.896384,22.99425 -1.643813,3.35534 12.036404,47.03015 8.734304,48.77848 z"
         transform="matrix(0.19246098,0,0,0.19246098,125.01147,59.588706)"
         inkscape:transform-center-x="-0.31952133"
         inkscape:transform-center-y="-0.63554323" />
      <path
         sodipodi:type="star"
         style="fill:#000000;fill-opacity:1;stroke:#000000;stroke-width:3.77953;stroke-linecap:round;stroke-linejoin:round;stroke-miterlimit:4;stroke-dasharray:none;stroke-opacity:1"
         id="path3311"
         inkscape:flatsided="false"
         sodipodi:sides="5"
         sodipodi:cx="73.35273"
         sodipodi:cy="89.530609"
         sodipodi:r1="67.986618"
         sodipodi:r2="25.698677"
         sodipodi:arg1="1.0838605"
         sodipodi:arg2="1.712179"
         inkscape:rounded="0.075399559"
         inkscape:randomized="0"
         d="m 105.16503,149.6152 c -3.30209,1.74832 -31.734465,-34.11583 -35.433555,-34.64233 -3.699091,-0.5265 -41.008883,25.98041 -43.692041,23.3802 C 23.356275,135.75285 48.679025,97.629423 48.036675,93.948681 47.394324,90.267939 10.655389,62.975306 12.299202,59.619959 c 1.643813,-3.355347 45.726504,8.947234 49.028601,7.19891 3.302096,-1.748323 17.905977,-45.123015 21.605068,-44.596514 3.69909,0.5265 5.620942,46.253337 8.3041,48.853555 2.683158,2.600219 48.447789,3.085818 49.090139,6.76656 0.64235,3.680742 -42.252571,19.638901 -43.896384,22.99425 -1.643813,3.35534 12.036404,47.03015 8.734304,48.77848 z"
         transform="matrix(0.19246098,0,0,0.19246098,156.76149,59.588706)"
         inkscape:transform-center-x="-0.31952133"
         inkscape:transform-center-y="-0.63554323" />
      <path
         sodipodi:type="star"
         style="fill:#000000;fill-opacity:1;stroke:#000000;stroke-width:3.77953;stroke-linecap:round;stroke-linejoin:round;stroke-miterlimit:4;stroke-dasharray:none;stroke-opacity:1"
         id="path3315"
         inkscape:flatsided="false"
         sodipodi:sides="5"
         sodipodi:cx="73.35273"
         sodipodi:cy="89.530609"
         sodipodi:r1="67.986618"
         sodipodi:r2="25.698677"
         sodipodi:arg1="1.0838605"
         sodipodi:arg2="1.712179"
         inkscape:rounded="0.075399559"
         inkscape:randomized="0"
         d="m 105.16503,149.6152 c -3.30209,1.74832 -31.734465,-34.11583 -35.433555,-34.64233 -3.699091,-0.5265 -41.008883,25.98041 -43.692041,23.3802 C 23.356275,135.75285 48.679025,97.629423 48.036675,93.948681 47.394324,90.267939 10.655389,62.975306 12.299202,59.619959 c 1.643813,-3.355347 45.726504,8.947234 49.028601,7.19891 3.302096,-1.748323 17.905977,-45.123015 21.605068,-44.596514 3.69909,0.5265 5.620942,46.253337 8.3041,48.853555 2.683158,2.600219 48.447789,3.085818 49.090139,6.76656 0.64235,3.680742 -42.252571,19.638901 -43.896384,22.99425 -1.643813,3.35534 12.036404,47.03015 8.734304,48.77848 z"
         transform="matrix(0.19246098,0,0,0.19246098,-1.9885452,91.338708)"
         inkscape:transform-center-x="-0.31952133"
         inkscape:transform-center-y="-0.63554323" />
      <path
         sodipodi:type="star"
         style="fill:#000000;fill-opacity:1;stroke:#000000;stroke-width:3.77953;stroke-linecap:round;stroke-linejoin:round;stroke-miterlimit:4;stroke-dasharray:none;stroke-opacity:1"
         id="path3317"
         inkscape:flatsided="false"
         sodipodi:sides="5"
         sodipodi:cx="73.35273"
         sodipodi:cy="89.530609"
         sodipodi:r1="67.986618"
         sodipodi:r2="25.698677"
         sodipodi:arg1="1.0838605"
         sodipodi:arg2="1.712179"
         inkscape:rounded="0.075399559"
         inkscape:randomized="0"
         d="m 105.16503,149.6152 c -3.30209,1.74832 -31.734465,-34.11583 -35.433555,-34.64233 -3.699091,-0.5265 -41.008883,25.98041 -43.692041,23.3802 C 23.356275,135.75285 48.679025,97.629423 48.036675,93.948681 47.394324,90.267939 10.655389,62.975306 12.299202,59.619959 c 1.643813,-3.355347 45.726504,8.947234 49.028601,7.19891 3.302096,-1.748323 17.905977,-45.123015 21.605068,-44.596514 3.69909,0.5265 5.620942,46.253337 8.3041,48.853555 2.683158,2.600219 48.447789,3.085818 49.090139,6.76656 0.64235,3.680742 -42.252571,19.638901 -43.896384,22.99425 -1.643813,3.35534 12.036404,47.03015 8.734304,48.77848 z"
         transform="matrix(0.19246098,0,0,0.19246098,29.761456,91.338708)"
         inkscape:transform-center-x="-0.31952133"
         inkscape:transform-center-y="-0.63554323" />
      <path
         sodipodi:type="star"
         style="fill:#000000;fill-opacity:1;stroke:#000000;stroke-width:3.77953;stroke-linecap:round;stroke-linejoin:round;stroke-miterlimit:4;stroke-dasharray:none;stroke-opacity:1"
         id="path3319"
         inkscape:flatsided="false"
         sodipodi:sides="5"
         sodipodi:cx="73.35273"
         sodipodi:cy="89.530609"
         sodipodi:r1="67.986618"
         sodipodi:r2="25.698677"
         sodipodi:arg1="1.0838605"
         sodipodi:arg2="1.712179"
         inkscape:rounded="0.075399559"
         inkscape:randomized="0"
         d="m 105.16503,149.6152 c -3.30209,1.74832 -31.734465,-34.11583 -35.433555,-34.64233 -3.699091,-0.5265 -41.008883,25.98041 -43.692041,23.3802 C 23.356275,135.75285 48.679025,97.629423 48.036675,93.948681 47.394324,90.267939 10.655389,62.975306 12.299202,59.619959 c 1.643813,-3.355347 45.726504,8.947234 49.028601,7.19891 3.302096,-1.748323 17.905977,-45.123015 21.605068,-44.596514 3.69909,0.5265 5.620942,46.253337 8.3041,48.853555 2.683158,2.600219 48.447789,3.085818 49.090139,6.76656 0.64235,3.680742 -42.252571,19.638901 -43.896384,22.99425 -1.643813,3.35534 12.036404,47.03015 8.734304,48.77848 z"
         transform="matrix(0.19246098,0,0,0.19246098,61.511458,91.338708)"
         inkscape:transform-center-x="-0.31952133"
         inkscape:transform-center-y="-0.63554323" />
      <path
         sodipodi:type="star"
         style="fill:#000000;fill-opacity:1;stroke:#000000;stroke-width:3.77953;stroke-linecap:round;stroke-linejoin:round;stroke-miterlimit:4;stroke-dasharray:none;stroke-opacity:1"
         id="path3321"
         inkscape:flatsided="false"
         sodipodi:sides="5"
         sodipodi:cx="73.35273"
         sodipodi:cy="89.530609"
         sodipodi:r1="67.986618"
         sodipodi:r2="25.698677"
         sodipodi:arg1="1.0838605"
         sodipodi:arg2="1.712179"
         inkscape:rounded="0.075399559"
         inkscape:randomized="0"
         d="m 105.16503,149.6152 c -3.30209,1.74832 -31.734465,-34.11583 -35.433555,-34.64233 -3.699091,-0.5265 -41.008883,25.98041 -43.692041,23.3802 C 23.356275,135.75285 48.679025,97.629423 48.036675,93.948681 47.394324,90.267939 10.655389,62.975306 12.299202,59.619959 c 1.643813,-3.355347 45.726504,8.947234 49.028601,7.19891 3.302096,-1.748323 17.905977,-45.123015 21.605068,-44.596514 3.69909,0.5265 5.620942,46.253337 8.3041,48.853555 2.683158,2.600219 48.447789,3.085818 49.090139,6.76656 0.64235,3.680742 -42.252571,19.638901 -43.896384,22.99425 -1.643813,3.35534 12.036404,47.03015 8.734304,48.77848 z"
         transform="matrix(0.19246098,0,0,0.19246098,93.26146,91.338708)"
         inkscape:transform-center-x="-0.31952133"
         inkscape:transform-center-y="-0.63554323" />
      <path
         sodipodi:type="star"
         style="fill:#000000;fill-opacity:1;stroke:#000000;stroke-width:3.77953;stroke-linecap:round;stroke-linejoin:round;stroke-miterlimit:4;stroke-dasharray:none;stroke-opacity:1"
         id="path3323"
         inkscape:flatsided="false"
         sodipodi:sides="5"
         sodipodi:cx="73.35273"
         sodipodi:cy="89.530609"
         sodipodi:r1="67.986618"
         sodipodi:r2="25.698677"
         sodipodi:arg1="1.0838605"
         sodipodi:arg2="1.712179"
         inkscape:rounded="0.075399559"
         inkscape:randomized="0"
         d="m 105.16503,149.6152 c -3.30209,1.74832 -31.734465,-34.11583 -35.433555,-34.64233 -3.699091,-0.5265 -41.008883,25.98041 -43.692041,23.3802 C 23.356275,135.75285 48.679025,97.629423 48.036675,93.948681 47.394324,90.267939 10.655389,62.975306 12.299202,59.619959 c 1.643813,-3.355347 45.726504,8.947234 49.028601,7.19891 3.302096,-1.748323 17.905977,-45.123015 21.605068,-44.596514 3.69909,0.5265 5.620942,46.253337 8.3041,48.853555 2.683158,2.600219 48.447789,3.085818 49.090139,6.76656 0.64235,3.680742 -42.252571,19.638901 -43.896384,22.99425 -1.643813,3.35534 12.036404,47.03015 8.734304,48.77848 z"
         transform="matrix(0.19246098,0,0,0.19246098,125.01147,91.338708)"
         inkscape:transform-center-x="-0.31952133"
         inkscape:transform-center-y="-0.63554323" />
      <path
         sodipodi:type="star"
         style="fill:#000000;fill-opacity:1;stroke:#000000;stroke-width:3.77953;stroke-linecap:round;stroke-linejoin:round;stroke-miterlimit:4;stroke-dasharray:none;stroke-opacity:1"
         id="path3325"
         inkscape:flatsided="false"
         sodipodi:sides="5"
         sodipodi:cx="73.35273"
         sodipodi:cy="89.530609"
         sodipodi:r1="67.986618"
         sodipodi:r2="25.698677"
         sodipodi:arg1="1.0838605"
         sodipodi:arg2="1.712179"
         inkscape:rounded="0.075399559"
         inkscape:randomized="0"
         d="m 105.16503,149.6152 c -3.30209,1.74832 -31.734465,-34.11583 -35.433555,-34.64233 -3.699091,-0.5265 -41.008883,25.98041 -43.692041,23.3802 C 23.356275,135.75285 48.679025,97.629423 48.036675,93.948681 47.394324,90.267939 10.655389,62.975306 12.299202,59.619959 c 1.643813,-3.355347 45.726504,8.947234 49.028601,7.19891 3.302096,-1.748323 17.905977,-45.123015 21.605068,-44.596514 3.69909,0.5265 5.620942,46.253337 8.3041,48.853555 2.683158,2.600219 48.447789,3.085818 49.090139,6.76656 0.64235,3.680742 -42.252571,19.638901 -43.896384,22.99425 -1.643813,3.35534 12.036404,47.03015 8.734304,48.77848 z"
         transform="matrix(0.19246098,0,0,0.19246098,156.76149,91.338708)"
         inkscape:transform-center-x="-0.31952133"
         inkscape:transform-center-y="-0.63554323" />
      <path
         sodipodi:type="star"
         style="fill:#000000;fill-opacity:1;stroke:#000000;stroke-width:3.77953;stroke-linecap:round;stroke-linejoin:round;stroke-miterlimit:4;stroke-dasharray:none;stroke-opacity:1"
         id="path3329"
         inkscape:flatsided="false"
         sodipodi:sides="5"
         sodipodi:cx="73.35273"
         sodipodi:cy="89.530609"
         sodipodi:r1="67.986618"
         sodipodi:r2="25.698677"
         sodipodi:arg1="1.0838605"
         sodipodi:arg2="1.712179"
         inkscape:rounded="0.075399559"
         inkscape:randomized="0"
         d="m 105.16503,149.6152 c -3.30209,1.74832 -31.734465,-34.11583 -35.433555,-34.64233 -3.699091,-0.5265 -41.008883,25.98041 -43.692041,23.3802 C 23.356275,135.75285 48.679025,97.629423 48.036675,93.948681 47.394324,90.267939 10.655389,62.975306 12.299202,59.619959 c 1.643813,-3.355347 45.726504,8.947234 49.028601,7.19891 3.302096,-1.748323 17.905977,-45.123015 21.605068,-44.596514 3.69909,0.5265 5.620942,46.253337 8.3041,48.853555 2.683158,2.600219 48.447789,3.085818 49.090139,6.76656 0.64235,3.680742 -42.252571,19.638901 -43.896384,22.99425 -1.643813,3.35534 12.036404,47.03015 8.734304,48.77848 z"
         transform="matrix(0.19246098,0,0,0.19246098,-1.9885452,123.08872)"
         inkscape:transform-center-x="-0.31952133"
         inkscape:transform-center-y="-0.63554323" />
      <path
         sodipodi:type="star"
         style="fill:#000000;fill-opacity:1;stroke:#000000;stroke-width:3.77953;stroke-linecap:round;stroke-linejoin:round;stroke-miterlimit:4;stroke-dasharray:none;stroke-opacity:1"
         id="path3331"
         inkscape:flatsided="false"
         sodipodi:sides="5"
         sodipodi:cx="73.35273"
         sodipodi:cy="89.530609"
         sodipodi:r1="67.986618"
         sodipodi:r2="25.698677"
         sodipodi:arg1="1.0838605"
         sodipodi:arg2="1.712179"
         inkscape:rounded="0.075399559"
         inkscape:randomized="0"
         d="m 105.16503,149.6152 c -3.30209,1.74832 -31.734465,-34.11583 -35.433555,-34.64233 -3.699091,-0.5265 -41.008883,25.98041 -43.692041,23.3802 C 23.356275,135.75285 48.679025,97.629423 48.036675,93.948681 47.394324,90.267939 10.655389,62.975306 12.299202,59.619959 c 1.643813,-3.355347 45.726504,8.947234 49.028601,7.19891 3.302096,-1.748323 17.905977,-45.123015 21.605068,-44.596514 3.69909,0.5265 5.620942,46.253337 8.3041,48.853555 2.683158,2.600219 48.447789,3.085818 49.090139,6.76656 0.64235,3.680742 -42.252571,19.638901 -43.896384,22.99425 -1.643813,3.35534 12.036404,47.03015 8.734304,48.77848 z"
         transform="matrix(0.19246098,0,0,0.19246098,29.761456,123.08872)"
         inkscape:transform-center-x="-0.31952133"
         inkscape:transform-center-y="-0.63554323" />
      <path
         sodipodi:type="star"
         style="fill:#000000;fill-opacity:1;stroke:#000000;stroke-width:3.77953;stroke-linecap:round;stroke-linejoin:round;stroke-miterlimit:4;stroke-dasharray:none;stroke-opacity:1"
         id="path3333"
         inkscape:flatsided="false"
         sodipodi:sides="5"
         sodipodi:cx="73.35273"
         sodipodi:cy="89.530609"
         sodipodi:r1="67.986618"
         sodipodi:r2="25.698677"
         sodipodi:arg1="1.0838605"
         sodipodi:arg2="1.712179"
         inkscape:rounded="0.075399559"
         inkscape:randomized="0"
         d="m 105.16503,149.6152 c -3.30209,1.74832 -31.734465,-34.11583 -35.433555,-34.64233 -3.699091,-0.5265 -41.008883,25.98041 -43.692041,23.3802 C 23.356275,135.75285 48.679025,97.629423 48.036675,93.948681 47.394324,90.267939 10.655389,62.975306 12.299202,59.619959 c 1.643813,-3.355347 45.726504,8.947234 49.028601,7.19891 3.302096,-1.748323 17.905977,-45.123015 21.605068,-44.596514 3.69909,0.5265 5.620942,46.253337 8.3041,48.853555 2.683158,2.600219 48.447789,3.085818 49.090139,6.76656 0.64235,3.680742 -42.252571,19.638901 -43.896384,22.99425 -1.643813,3.35534 12.036404,47.03015 8.734304,48.77848 z"
         transform="matrix(0.19246098,0,0,0.19246098,61.511458,123.08872)"
         inkscape:transform-center-x="-0.31952133"
         inkscape:transform-center-y="-0.63554323" />
      <path
         sodipodi:type="star"
         style="fill:#000000;fill-opacity:1;stroke:#000000;stroke-width:3.77953;stroke-linecap:round;stroke-linejoin:round;stroke-miterlimit:4;stroke-dasharray:none;stroke-opacity:1"
         id="path3335"
         inkscape:flatsided="false"
         sodipodi:sides="5"
         sodipodi:cx="73.35273"
         sodipodi:cy="89.530609"
         sodipodi:r1="67.986618"
         sodipodi:r2="25.698677"
         sodipodi:arg1="1.0838605"
         sodipodi:arg2="1.712179"
         inkscape:rounded="0.075399559"
         inkscape:randomized="0"
         d="m 105.16503,149.6152 c -3.30209,1.74832 -31.734465,-34.11583 -35.433555,-34.64233 -3.699091,-0.5265 -41.008883,25.98041 -43.692041,23.3802 C 23.356275,135.75285 48.679025,97.629423 48.036675,93.948681 47.394324,90.267939 10.655389,62.975306 12.299202,59.619959 c 1.643813,-3.355347 45.726504,8.947234 49.028601,7.19891 3.302096,-1.748323 17.905977,-45.123015 21.605068,-44.596514 3.69909,0.5265 5.620942,46.253337 8.3041,48.853555 2.683158,2.600219 48.447789,3.085818 49.090139,6.76656 0.64235,3.680742 -42.252571,19.638901 -43.896384,22.99425 -1.643813,3.35534 12.036404,47.03015 8.734304,48.77848 z"
         transform="matrix(0.19246098,0,0,0.19246098,93.26146,123.08872)"
         inkscape:transform-center-x="-0.31952133"
         inkscape:transform-center-y="-0.63554323" />
      <path
         sodipodi:type="star"
         style="fill:#000000;fill-opacity:1;stroke:#000000;stroke-width:3.77953;stroke-linecap:round;stroke-linejoin:round;stroke-miterlimit:4;stroke-dasharray:none;stroke-opacity:1"
         id="path3337"
         inkscape:flatsided="false"
         sodipodi:sides="5"
         sodipodi:cx="73.35273"
         sodipodi:cy="89.530609"
         sodipodi:r1="67.986618"
         sodipodi:r2="25.698677"
         sodipodi:arg1="1.0838605"
         sodipodi:arg2="1.712179"
         inkscape:rounded="0.075399559"
         inkscape:randomized="0"
         d="m 105.16503,149.6152 c -3.30209,1.74832 -31.734465,-34.11583 -35.433555,-34.64233 -3.699091,-0.5265 -41.008883,25.98041 -43.692041,23.3802 C 23.356275,135.75285 48.679025,97.629423 48.036675,93.948681 47.394324,90.267939 10.655389,62.975306 12.299202,59.619959 c 1.643813,-3.355347 45.726504,8.947234 49.028601,7.19891 3.302096,-1.748323 17.905977,-45.123015 21.605068,-44.596514 3.69909,0.5265 5.620942,46.253337 8.3041,48.853555 2.683158,2.600219 48.447789,3.085818 49.090139,6.76656 0.64235,3.680742 -42.252571,19.638901 -43.896384,22.99425 -1.643813,3.35534 12.036404,47.03015 8.734304,48.77848 z"
         transform="matrix(0.19246098,0,0,0.19246098,125.01147,123.08872)"
         inkscape:transform-center-x="-0.31952133"
         inkscape:transform-center-y="-0.63554323" />
      <path
         sodipodi:type="star"
         style="fill:#000000;fill-opacity:1;stroke:#000000;stroke-width:3.77953;stroke-linecap:round;stroke-linejoin:round;stroke-miterlimit:4;stroke-dasharray:none;stroke-opacity:1"
         id="path3339"
         inkscape:flatsided="false"
         sodipodi:sides="5"
         sodipodi:cx="73.35273"
         sodipodi:cy="89.530609"
         sodipodi:r1="67.986618"
         sodipodi:r2="25.698677"
         sodipodi:arg1="1.0838605"
         sodipodi:arg2="1.712179"
         inkscape:rounded="0.075399559"
         inkscape:randomized="0"
         d="m 105.16503,149.6152 c -3.30209,1.74832 -31.734465,-34.11583 -35.433555,-34.64233 -3.699091,-0.5265 -41.008883,25.98041 -43.692041,23.3802 C 23.356275,135.75285 48.679025,97.629423 48.036675,93.948681 47.394324,90.267939 10.655389,62.975306 12.299202,59.619959 c 1.643813,-3.355347 45.726504,8.947234 49.028601,7.19891 3.302096,-1.748323 17.905977,-45.123015 21.605068,-44.596514 3.69909,0.5265 5.620942,46.253337 8.3041,48.853555 2.683158,2.600219 48.447789,3.085818 49.090139,6.76656 0.64235,3.680742 -42.252571,19.638901 -43.896384,22.99425 -1.643813,3.35534 12.036404,47.03015 8.734304,48.77848 z"
         transform="matrix(0.19246098,0,0,0.19246098,156.76149,123.08872)"
         inkscape:transform-center-x="-0.31952133"
         inkscape:transform-center-y="-0.63554323" />
      <path
         sodipodi:type="star"
         style="fill:#000000;fill-opacity:1;stroke:#000000;stroke-width:3.77953;stroke-linecap:round;stroke-linejoin:round;stroke-miterlimit:4;stroke-dasharray:none;stroke-opacity:1"
         id="path3343"
         inkscape:flatsided="false"
         sodipodi:sides="5"
         sodipodi:cx="73.35273"
         sodipodi:cy="89.530609"
         sodipodi:r1="67.986618"
         sodipodi:r2="25.698677"
         sodipodi:arg1="1.0838605"
         sodipodi:arg2="1.712179"
         inkscape:rounded="0.075399559"
         inkscape:randomized="0"
         d="m 105.16503,149.6152 c -3.30209,1.74832 -31.734465,-34.11583 -35.433555,-34.64233 -3.699091,-0.5265 -41.008883,25.98041 -43.692041,23.3802 C 23.356275,135.75285 48.679025,97.629423 48.036675,93.948681 47.394324,90.267939 10.655389,62.975306 12.299202,59.619959 c 1.643813,-3.355347 45.726504,8.947234 49.028601,7.19891 3.302096,-1.748323 17.905977,-45.123015 21.605068,-44.596514 3.69909,0.5265 5.620942,46.253337 8.3041,48.853555 2.683158,2.600219 48.447789,3.085818 49.090139,6.76656 0.64235,3.680742 -42.252571,19.638901 -43.896384,22.99425 -1.643813,3.35534 12.036404,47.03015 8.734304,48.77848 z"
         transform="matrix(0.19246098,0,0,0.19246098,-1.9885452,154.83874)"
         inkscape:transform-center-x="-0.31952133"
         inkscape:transform-center-y="-0.63554323" />
      <path
         sodipodi:type="star"
         style="fill:#000000;fill-opacity:1;stroke:#000000;stroke-width:3.77953;stroke-linecap:round;stroke-linejoin:round;stroke-miterlimit:4;stroke-dasharray:none;stroke-opacity:1"
         id="path3345"
         inkscape:flatsided="false"
         sodipodi:sides="5"
         sodipodi:cx="73.35273"
         sodipodi:cy="89.530609"
         sodipodi:r1="67.986618"
         sodipodi:r2="25.698677"
         sodipodi:arg1="1.0838605"
         sodipodi:arg2="1.712179"
         inkscape:rounded="0.075399559"
         inkscape:randomized="0"
         d="m 105.16503,149.6152 c -3.30209,1.74832 -31.734465,-34.11583 -35.433555,-34.64233 -3.699091,-0.5265 -41.008883,25.98041 -43.692041,23.3802 C 23.356275,135.75285 48.679025,97.629423 48.036675,93.948681 47.394324,90.267939 10.655389,62.975306 12.299202,59.619959 c 1.643813,-3.355347 45.726504,8.947234 49.028601,7.19891 3.302096,-1.748323 17.905977,-45.123015 21.605068,-44.596514 3.69909,0.5265 5.620942,46.253337 8.3041,48.853555 2.683158,2.600219 48.447789,3.085818 49.090139,6.76656 0.64235,3.680742 -42.252571,19.638901 -43.896384,22.99425 -1.643813,3.35534 12.036404,47.03015 8.734304,48.77848 z"
         transform="matrix(0.19246098,0,0,0.19246098,29.761456,154.83874)"
         inkscape:transform-center-x="-0.31952133"
         inkscape:transform-center-y="-0.63554323" />
      <path
         sodipodi:type="star"
         style="fill:#000000;fill-opacity:1;stroke:#000000;stroke-width:3.77953;stroke-linecap:round;stroke-linejoin:round;stroke-miterlimit:4;stroke-dasharray:none;stroke-opacity:1"
         id="path3347"
         inkscape:flatsided="false"
         sodipodi:sides="5"
         sodipodi:cx="73.35273"
         sodipodi:cy="89.530609"
         sodipodi:r1="67.986618"
         sodipodi:r2="25.698677"
         sodipodi:arg1="1.0838605"
         sodipodi:arg2="1.712179"
         inkscape:rounded="0.075399559"
         inkscape:randomized="0"
         d="m 105.16503,149.6152 c -3.30209,1.74832 -31.734465,-34.11583 -35.433555,-34.64233 -3.699091,-0.5265 -41.008883,25.98041 -43.692041,23.3802 C 23.356275,135.75285 48.679025,97.629423 48.036675,93.948681 47.394324,90.267939 10.655389,62.975306 12.299202,59.619959 c 1.643813,-3.355347 45.726504,8.947234 49.028601,7.19891 3.302096,-1.748323 17.905977,-45.123015 21.605068,-44.596514 3.69909,0.5265 5.620942,46.253337 8.3041,48.853555 2.683158,2.600219 48.447789,3.085818 49.090139,6.76656 0.64235,3.680742 -42.252571,19.638901 -43.896384,22.99425 -1.643813,3.35534 12.036404,47.03015 8.734304,48.77848 z"
         transform="matrix(0.19246098,0,0,0.19246098,61.511458,154.83874)"
         inkscape:transform-center-x="-0.31952133"
         inkscape:transform-center-y="-0.63554323" />
      <path
         sodipodi:type="star"
         style="fill:#000000;fill-opacity:1;stroke:#000000;stroke-width:3.77953;stroke-linecap:round;stroke-linejoin:round;stroke-miterlimit:4;stroke-dasharray:none;stroke-opacity:1"
         id="path3349"
         inkscape:flatsided="false"
         sodipodi:sides="5"
         sodipodi:cx="73.35273"
         sodipodi:cy="89.530609"
         sodipodi:r1="67.986618"
         sodipodi:r2="25.698677"
         sodipodi:arg1="1.0838605"
         sodipodi:arg2="1.712179"
         inkscape:rounded="0.075399559"
         inkscape:randomized="0"
         d="m 105.16503,149.6152 c -3.30209,1.74832 -31.734465,-34.11583 -35.433555,-34.64233 -3.699091,-0.5265 -41.008883,25.98041 -43.692041,23.3802 C 23.356275,135.75285 48.679025,97.629423 48.036675,93.948681 47.394324,90.267939 10.655389,62.975306 12.299202,59.619959 c 1.643813,-3.355347 45.726504,8.947234 49.028601,7.19891 3.302096,-1.748323 17.905977,-45.123015 21.605068,-44.596514 3.69909,0.5265 5.620942,46.253337 8.3041,48.853555 2.683158,2.600219 48.447789,3.085818 49.090139,6.76656 0.64235,3.680742 -42.252571,19.638901 -43.896384,22.99425 -1.643813,3.35534 12.036404,47.03015 8.734304,48.77848 z"
         transform="matrix(0.19246098,0,0,0.19246098,93.26146,154.83874)"
         inkscape:transform-center-x="-0.31952133"
         inkscape:transform-center-y="-0.63554323" />
      <path
         sodipodi:type="star"
         style="fill:#000000;fill-opacity:1;stroke:#000000;stroke-width:3.77953;stroke-linecap:round;stroke-linejoin:round;stroke-miterlimit:4;stroke-dasharray:none;stroke-opacity:1"
         id="path3351"
         inkscape:flatsided="false"
         sodipodi:sides="5"
         sodipodi:cx="73.35273"
         sodipodi:cy="89.530609"
         sodipodi:r1="67.986618"
         sodipodi:r2="25.698677"
         sodipodi:arg1="1.0838605"
         sodipodi:arg2="1.712179"
         inkscape:rounded="0.075399559"
         inkscape:randomized="0"
         d="m 105.16503,149.6152 c -3.30209,1.74832 -31.734465,-34.11583 -35.433555,-34.64233 -3.699091,-0.5265 -41.008883,25.98041 -43.692041,23.3802 C 23.356275,135.75285 48.679025,97.629423 48.036675,93.948681 47.394324,90.267939 10.655389,62.975306 12.299202,59.619959 c 1.643813,-3.355347 45.726504,8.947234 49.028601,7.19891 3.302096,-1.748323 17.905977,-45.123015 21.605068,-44.596514 3.69909,0.5265 5.620942,46.253337 8.3041,48.853555 2.683158,2.600219 48.447789,3.085818 49.090139,6.76656 0.64235,3.680742 -42.252571,19.638901 -43.896384,22.99425 -1.643813,3.35534 12.036404,47.03015 8.734304,48.77848 z"
         transform="matrix(0.19246098,0,0,0.19246098,125.01147,154.83874)"
         inkscape:transform-center-x="-0.31952133"
         inkscape:transform-center-y="-0.63554323" />
      <path
         sodipodi:type="star"
         style="fill:#000000;fill-opacity:1;stroke:#000000;stroke-width:3.77953;stroke-linecap:round;stroke-linejoin:round;stroke-miterlimit:4;stroke-dasharray:none;stroke-opacity:1"
         id="path3353"
         inkscape:flatsided="false"
         sodipodi:sides="5"
         sodipodi:cx="73.35273"
         sodipodi:cy="89.530609"
         sodipodi:r1="67.986618"
         sodipodi:r2="25.698677"
         sodipodi:arg1="1.0838605"
         sodipodi:arg2="1.712179"
         inkscape:rounded="0.075399559"
         inkscape:randomized="0"
         d="m 105.16503,149.6152 c -3.30209,1.74832 -31.734465,-34.11583 -35.433555,-34.64233 -3.699091,-0.5265 -41.008883,25.98041 -43.692041,23.3802 C 23.356275,135.75285 48.679025,97.629423 48.036675,93.948681 47.394324,90.267939 10.655389,62.975306 12.299202,59.619959 c 1.643813,-3.355347 45.726504,8.947234 49.028601,7.19891 3.302096,-1.748323 17.905977,-45.123015 21.605068,-44.596514 3.69909,0.5265 5.620942,46.253337 8.3041,48.853555 2.683158,2.600219 48.447789,3.085818 49.090139,6.76656 0.64235,3.680742 -42.252571,19.638901 -43.896384,22.99425 -1.643813,3.35534 12.036404,47.03015 8.734304,48.77848 z"
         transform="matrix(0.19246098,0,0,0.19246098,156.76149,154.83874)"
         inkscape:transform-center-x="-0.31952133"
         inkscape:transform-center-y="-0.63554323" />
    </g>
  </g>
</svg>
