<?xml version="1.0" encoding="UTF-8" standalone="no"?>
<!-- Created with Inkscape (http://www.inkscape.org/) -->

<svg
   width="200mm"
   height="200mm"
   viewBox="0 0 200 200"
   version="1.1"
   id="svg3739"
   sodipodi:docname="decor-03.svg"
   inkscape:version="1.1.2 (0a00cf5339, 2022-02-04)"
   xmlns:inkscape="http://www.inkscape.org/namespaces/inkscape"
   xmlns:sodipodi="http://sodipodi.sourceforge.net/DTD/sodipodi-0.dtd"
   xmlns="http://www.w3.org/2000/svg"
   xmlns:svg="http://www.w3.org/2000/svg">
  <sodipodi:namedview
     id="namedview3741"
     pagecolor="#ffffff"
     bordercolor="#666666"
     borderopacity="1.0"
     inkscape:pageshadow="2"
     inkscape:pageopacity="0.0"
     inkscape:pagecheckerboard="0"
     inkscape:document-units="mm"
     showgrid="false"
     inkscape:snap-page="true"
     inkscape:zoom="0.67695694"
     inkscape:cx="434.29646"
     inkscape:cy="365.60671"
     inkscape:window-width="1600"
     inkscape:window-height="863"
     inkscape:window-x="0"
     inkscape:window-y="0"
     inkscape:window-maximized="1"
     inkscape:current-layer="layer1"
     showguides="true"
     inkscape:guide-bbox="true" />
  <defs
     id="defs3736">
    <inkscape:path-effect
       effect="powerstroke"
       id="path-effect18733"
       is_visible="true"
       lpeversion="1"
       offset_points="1,3.33024"
       not_jump="false"
       sort_points="true"
       interpolator_type="CubicBezierJohan"
       interpolator_beta="0.2"
       start_linecap_type="zerowidth"
       linejoin_type="extrp_arc"
       miter_limit="4"
       scale_width="1"
       end_linecap_type="zerowidth" />
    <inkscape:path-effect
       effect="powerstroke"
       id="path-effect16712"
       is_visible="true"
       lpeversion="1"
       offset_points="1,3.33024"
       not_jump="false"
       sort_points="true"
       interpolator_type="CubicBezierJohan"
       interpolator_beta="0.2"
       start_linecap_type="zerowidth"
       linejoin_type="extrp_arc"
       miter_limit="4"
       scale_width="1"
       end_linecap_type="zerowidth" />
    <inkscape:path-effect
       effect="powerstroke"
       id="path-effect13765"
       is_visible="true"
       lpeversion="1"
       offset_points="1,1.9684151"
       not_jump="false"
       sort_points="true"
       interpolator_type="CubicBezierJohan"
       interpolator_beta="0.2"
       start_linecap_type="zerowidth"
       linejoin_type="extrp_arc"
       miter_limit="4"
       scale_width="1"
       end_linecap_type="zerowidth" />
    <inkscape:path-effect
       effect="powerstroke"
       id="path-effect11045"
       is_visible="true"
       lpeversion="1"
       offset_points="1,7.1454502"
       not_jump="false"
       sort_points="true"
       interpolator_type="CubicBezierJohan"
       interpolator_beta="0.2"
       start_linecap_type="zerowidth"
       linejoin_type="extrp_arc"
       miter_limit="4"
       scale_width="1"
       end_linecap_type="zerowidth" />
    <inkscape:path-effect
       effect="powerstroke"
       id="path-effect4349"
       is_visible="true"
       lpeversion="1"
       offset_points="1,1.7415223"
       not_jump="false"
       sort_points="true"
       interpolator_type="CubicBezierJohan"
       interpolator_beta="0.2"
       start_linecap_type="zerowidth"
       linejoin_type="extrp_arc"
       miter_limit="4"
       scale_width="1"
       end_linecap_type="zerowidth" />
    <inkscape:path-effect
       effect="powerstroke"
       id="path-effect4345"
       is_visible="true"
       lpeversion="1"
       offset_points="3,4.99214"
       not_jump="false"
       sort_points="true"
       interpolator_type="CubicBezierJohan"
       interpolator_beta="0.2"
       start_linecap_type="zerowidth"
       linejoin_type="extrp_arc"
       miter_limit="4"
       scale_width="1"
       end_linecap_type="zerowidth" />
    <inkscape:path-effect
       effect="powerstroke"
       id="path-effect4341"
       is_visible="true"
       lpeversion="1"
       offset_points="8,4.99214"
       not_jump="false"
       sort_points="true"
       interpolator_type="CubicBezierJohan"
       interpolator_beta="0.2"
       start_linecap_type="zerowidth"
       linejoin_type="extrp_arc"
       miter_limit="4"
       scale_width="1"
       end_linecap_type="zerowidth" />
    <inkscape:path-effect
       effect="powerstroke"
       id="path-effect4337"
       is_visible="true"
       lpeversion="1"
       offset_points="9,4.99214"
       not_jump="false"
       sort_points="true"
       interpolator_type="CubicBezierJohan"
       interpolator_beta="0.2"
       start_linecap_type="zerowidth"
       linejoin_type="extrp_arc"
       miter_limit="4"
       scale_width="1"
       end_linecap_type="zerowidth" />
    <inkscape:path-effect
       effect="powerstroke"
       id="path-effect4333"
       is_visible="true"
       lpeversion="1"
       offset_points="3,4.99214"
       not_jump="false"
       sort_points="true"
       interpolator_type="CubicBezierJohan"
       interpolator_beta="0.2"
       start_linecap_type="zerowidth"
       linejoin_type="extrp_arc"
       miter_limit="4"
       scale_width="1"
       end_linecap_type="zerowidth" />
    <inkscape:path-effect
       effect="powerstroke"
       id="path-effect13765-6"
       is_visible="true"
       lpeversion="1"
       offset_points="1,3.33024"
       not_jump="false"
       sort_points="true"
       interpolator_type="CubicBezierJohan"
       interpolator_beta="0.2"
       start_linecap_type="zerowidth"
       linejoin_type="extrp_arc"
       miter_limit="4"
       scale_width="1"
       end_linecap_type="zerowidth" />
  </defs>
  <g
     inkscape:label="Layer 1"
     inkscape:groupmode="layer"
     id="layer1">
    <path
       d="m 47.14948,74.23392 c -2.521215,0 -4.660371,0.879211 -6.418792,2.637632 -1.758421,1.75842 -2.637896,3.868472 -2.637896,6.331214 v 37.812664 c 0,2.52439 0.879211,4.66169 2.637896,6.42038 1.758421,1.75842 3.897577,2.63789 6.418792,2.63789 2.519362,0 4.645554,-0.87921 6.376722,-2.63789 1.72773,-1.75842 2.593975,-3.89599 2.593975,-6.42038 V 83.202766 c 0,-2.463006 -0.87921,-4.572794 -2.637895,-6.331214 C 51.723596,75.113131 49.612221,74.23392 47.14948,74.23392 Z"
       id="path2"
       style="stroke-width:0.264583" />
    <path
       d="m 119.96228,40.289467 6.24364,-11.517842 c 0.40984,-0.762529 0.26405,-1.347258 -0.43868,-1.758421 -0.76279,-0.354541 -1.34884,-0.174889 -1.75842,0.526256 l -6.33095,11.609917 c -5.5708,-2.463006 -11.46281,-3.696758 -17.67602,-3.696758 -6.214531,0 -12.107067,1.234016 -17.675752,3.696758 L 75.994883,27.53946 c -0.411427,-0.701145 -0.997479,-0.87921 -1.75842,-0.526256 -0.704321,0.413015 -0.850107,0.995892 -0.43868,1.758421 l 6.243902,11.517842 c -6.331214,3.22871 -11.373643,7.725304 -15.125435,13.49957 -3.751791,5.777442 -5.628481,12.090929 -5.628481,18.951575 h 81.339791 c 0,-6.859058 -1.87695,-13.17281 -5.62848,-18.951575 -3.75205,-5.774266 -8.76538,-10.27086 -15.0368,-13.49957 z M 83.864385,57.042354 c -0.675216,0.676804 -1.481666,1.013619 -2.419085,1.013619 -0.939271,0 -1.729317,-0.336815 -2.373842,-1.013619 -0.644525,-0.673629 -0.966787,-1.476904 -0.966787,-2.417498 0,-0.937419 0.322262,-1.742281 0.966787,-2.417498 0.644525,-0.673629 1.436423,-1.010444 2.373842,-1.010444 0.937419,0 1.743869,0.336815 2.419085,1.010444 0.67363,0.676804 1.012032,1.480079 1.012032,2.417498 -0.0019,0.939006 -0.33999,1.743869 -1.012032,2.417498 z m 37.064425,0 c -0.64585,0.676804 -1.43775,1.013619 -2.37358,1.013619 -0.93954,0 -1.74572,-0.336815 -2.41962,-1.013619 -0.67495,-0.673629 -1.01176,-1.476904 -1.01176,-2.417498 0,-0.937419 0.33681,-1.742281 1.01176,-2.417498 0.6739,-0.673629 1.48008,-1.010444 2.41962,-1.010444 0.93742,0 1.72746,0.336815 2.37358,1.010444 0.64505,0.676804 0.96678,1.480079 0.96678,2.417498 0,0.939006 -0.32199,1.743869 -0.96678,2.417498 z"
       id="path4"
       style="stroke-width:0.264583" />
    <path
       d="m 59.637019,134.46975 c 0,2.69928 0.937419,4.98423 2.812521,6.85933 1.876689,1.8751 4.161631,2.81252 6.859058,2.81252 h 6.507692 l 0.08916,19.96387 c 0,2.52095 0.879211,4.66169 2.637631,6.42038 1.758421,1.75868 3.870061,2.63789 6.331215,2.63789 2.519627,0 4.660106,-0.87921 6.418792,-2.63789 1.758685,-1.75869 2.637895,-3.89917 2.637895,-6.42038 v -19.96202 h 12.134857 v 19.96202 c 0,2.52095 0.87894,4.66169 2.63763,6.42038 1.75868,1.75868 3.89731,2.63789 6.41879,2.63789 2.51963,0 4.66011,-0.87921 6.41879,-2.63789 1.75869,-1.75869 2.63763,-3.89917 2.63763,-6.42038 v -19.96202 h 6.59554 c 2.63763,0 4.8932,-0.93768 6.77174,-2.81278 1.87484,-1.87511 2.81279,-4.16005 2.81279,-6.85906 V 75.903177 H 59.637019 Z"
       id="path6"
       style="stroke-width:0.264583" />
    <path
       d="m 152.85078,74.23392 c -2.463,0 -4.57279,0.866246 -6.33147,2.593975 -1.75843,1.730904 -2.63764,3.857096 -2.63764,6.374871 v 37.812664 c 0,2.52439 0.87895,4.66169 2.63764,6.42038 1.75868,1.75868 3.87006,2.63789 6.33147,2.63789 2.51963,0 4.66011,-0.87921 6.4188,-2.63789 1.75868,-1.75869 2.63763,-3.89599 2.63763,-6.42038 V 83.202766 c 0,-2.51804 -0.87895,-4.643967 -2.63763,-6.374871 -1.75869,-1.727729 -3.89917,-2.593975 -6.4188,-2.593975 z"
       id="path8"
       style="stroke-width:0.264583" />
  </g>
</svg>
