<?xml version="1.0" encoding="UTF-8" standalone="no"?>
<!-- Created with Inkscape (http://www.inkscape.org/) -->

<svg
   width="200mm"
   height="200mm"
   viewBox="0 0 200 200"
   version="1.1"
   id="svg3739"
   sodipodi:docname="decor-01.svg"
   inkscape:version="1.1.2 (0a00cf5339, 2022-02-04)"
   xmlns:inkscape="http://www.inkscape.org/namespaces/inkscape"
   xmlns:sodipodi="http://sodipodi.sourceforge.net/DTD/sodipodi-0.dtd"
   xmlns="http://www.w3.org/2000/svg"
   xmlns:svg="http://www.w3.org/2000/svg">
  <sodipodi:namedview
     id="namedview3741"
     pagecolor="#ffffff"
     bordercolor="#666666"
     borderopacity="1.0"
     inkscape:pageshadow="2"
     inkscape:pageopacity="0.0"
     inkscape:pagecheckerboard="0"
     inkscape:document-units="mm"
     showgrid="false"
     inkscape:snap-page="false"
     inkscape:zoom="0.75210012"
     inkscape:cx="317.77684"
     inkscape:cy="382.26294"
     inkscape:window-width="1600"
     inkscape:window-height="863"
     inkscape:window-x="0"
     inkscape:window-y="0"
     inkscape:window-maximized="1"
     inkscape:current-layer="layer1" />
  <defs
     id="defs3736">
    <inkscape:path-effect
       effect="powerstroke"
       id="path-effect18733"
       is_visible="true"
       lpeversion="1"
       offset_points="1,3.33024"
       not_jump="false"
       sort_points="true"
       interpolator_type="CubicBezierJohan"
       interpolator_beta="0.2"
       start_linecap_type="zerowidth"
       linejoin_type="extrp_arc"
       miter_limit="4"
       scale_width="1"
       end_linecap_type="zerowidth" />
    <inkscape:path-effect
       effect="powerstroke"
       id="path-effect16712"
       is_visible="true"
       lpeversion="1"
       offset_points="1,3.33024"
       not_jump="false"
       sort_points="true"
       interpolator_type="CubicBezierJohan"
       interpolator_beta="0.2"
       start_linecap_type="zerowidth"
       linejoin_type="extrp_arc"
       miter_limit="4"
       scale_width="1"
       end_linecap_type="zerowidth" />
    <inkscape:path-effect
       effect="powerstroke"
       id="path-effect13765"
       is_visible="true"
       lpeversion="1"
       offset_points="1,1.9684151"
       not_jump="false"
       sort_points="true"
       interpolator_type="CubicBezierJohan"
       interpolator_beta="0.2"
       start_linecap_type="zerowidth"
       linejoin_type="extrp_arc"
       miter_limit="4"
       scale_width="1"
       end_linecap_type="zerowidth" />
    <inkscape:path-effect
       effect="powerstroke"
       id="path-effect11045"
       is_visible="true"
       lpeversion="1"
       offset_points="1,7.1454502"
       not_jump="false"
       sort_points="true"
       interpolator_type="CubicBezierJohan"
       interpolator_beta="0.2"
       start_linecap_type="zerowidth"
       linejoin_type="extrp_arc"
       miter_limit="4"
       scale_width="1"
       end_linecap_type="zerowidth" />
    <inkscape:path-effect
       effect="powerstroke"
       id="path-effect4349"
       is_visible="true"
       lpeversion="1"
       offset_points="1,1.7415223"
       not_jump="false"
       sort_points="true"
       interpolator_type="CubicBezierJohan"
       interpolator_beta="0.2"
       start_linecap_type="zerowidth"
       linejoin_type="extrp_arc"
       miter_limit="4"
       scale_width="1"
       end_linecap_type="zerowidth" />
    <inkscape:path-effect
       effect="powerstroke"
       id="path-effect4345"
       is_visible="true"
       lpeversion="1"
       offset_points="3,4.99214"
       not_jump="false"
       sort_points="true"
       interpolator_type="CubicBezierJohan"
       interpolator_beta="0.2"
       start_linecap_type="zerowidth"
       linejoin_type="extrp_arc"
       miter_limit="4"
       scale_width="1"
       end_linecap_type="zerowidth" />
    <inkscape:path-effect
       effect="powerstroke"
       id="path-effect4341"
       is_visible="true"
       lpeversion="1"
       offset_points="8,4.99214"
       not_jump="false"
       sort_points="true"
       interpolator_type="CubicBezierJohan"
       interpolator_beta="0.2"
       start_linecap_type="zerowidth"
       linejoin_type="extrp_arc"
       miter_limit="4"
       scale_width="1"
       end_linecap_type="zerowidth" />
    <inkscape:path-effect
       effect="powerstroke"
       id="path-effect4337"
       is_visible="true"
       lpeversion="1"
       offset_points="9,4.99214"
       not_jump="false"
       sort_points="true"
       interpolator_type="CubicBezierJohan"
       interpolator_beta="0.2"
       start_linecap_type="zerowidth"
       linejoin_type="extrp_arc"
       miter_limit="4"
       scale_width="1"
       end_linecap_type="zerowidth" />
    <inkscape:path-effect
       effect="powerstroke"
       id="path-effect4333"
       is_visible="true"
       lpeversion="1"
       offset_points="3,4.99214"
       not_jump="false"
       sort_points="true"
       interpolator_type="CubicBezierJohan"
       interpolator_beta="0.2"
       start_linecap_type="zerowidth"
       linejoin_type="extrp_arc"
       miter_limit="4"
       scale_width="1"
       end_linecap_type="zerowidth" />
    <inkscape:path-effect
       effect="powerstroke"
       id="path-effect13765-6"
       is_visible="true"
       lpeversion="1"
       offset_points="1,3.33024"
       not_jump="false"
       sort_points="true"
       interpolator_type="CubicBezierJohan"
       interpolator_beta="0.2"
       start_linecap_type="zerowidth"
       linejoin_type="extrp_arc"
       miter_limit="4"
       scale_width="1"
       end_linecap_type="zerowidth" />
  </defs>
  <g
     inkscape:label="Layer 1"
     inkscape:groupmode="layer"
     id="layer1">
    <g
       id="g5872"
       transform="translate(-4.8231263,-4.8231263)">
      <path
         style="fill:#000000;stroke:none;stroke-width:11.3386;stroke-linecap:round;stroke-linejoin:round"
         id="path5400"
         sodipodi:type="arc"
         sodipodi:cx="9.573102"
         sodipodi:cy="9.573102"
         sodipodi:rx="9.573102"
         sodipodi:ry="9.573102"
         sodipodi:start="2.1409256"
         sodipodi:end="2.1403496"
         sodipodi:open="true"
         sodipodi:arc-type="arc"
         d="M 4.4061075,17.632038 A 9.573102,9.573102 0 0 1 1.513422,4.407268 9.573102,9.573102 0 0 1 14.737775,1.5126782 9.573102,9.573102 0 0 1 17.634269,14.736615 9.573102,9.573102 0 0 1 4.4107503,17.635013" />
      <path
         style="fill:#000000;stroke:none;stroke-width:11.3386;stroke-linecap:round;stroke-linejoin:round"
         id="path5727"
         sodipodi:type="arc"
         sodipodi:cx="41.323101"
         sodipodi:cy="9.573102"
         sodipodi:rx="9.573102"
         sodipodi:ry="9.573102"
         sodipodi:start="2.1409256"
         sodipodi:end="2.1403496"
         sodipodi:open="true"
         sodipodi:arc-type="arc"
         d="M 36.156107,17.632038 A 9.573102,9.573102 0 0 1 33.263421,4.407268 9.573102,9.573102 0 0 1 46.487774,1.5126782 9.573102,9.573102 0 0 1 49.384268,14.736615 9.573102,9.573102 0 0 1 36.160749,17.635013" />
      <path
         style="fill:#000000;stroke:none;stroke-width:11.3386;stroke-linecap:round;stroke-linejoin:round"
         id="path5729"
         sodipodi:type="arc"
         sodipodi:cx="73.073105"
         sodipodi:cy="9.573102"
         sodipodi:rx="9.573102"
         sodipodi:ry="9.573102"
         sodipodi:start="2.1409256"
         sodipodi:end="2.1403496"
         sodipodi:open="true"
         sodipodi:arc-type="arc"
         d="M 67.90611,17.632038 A 9.573102,9.573102 0 0 1 65.013425,4.407268 9.573102,9.573102 0 0 1 78.237778,1.5126782 9.573102,9.573102 0 0 1 81.134272,14.736615 9.573102,9.573102 0 0 1 67.910753,17.635013" />
      <path
         style="fill:#000000;stroke:none;stroke-width:11.3386;stroke-linecap:round;stroke-linejoin:round"
         id="path5731"
         sodipodi:type="arc"
         sodipodi:cx="104.82309"
         sodipodi:cy="9.573102"
         sodipodi:rx="9.573102"
         sodipodi:ry="9.573102"
         sodipodi:start="2.1409256"
         sodipodi:end="2.1403496"
         sodipodi:open="true"
         sodipodi:arc-type="arc"
         d="M 99.656095,17.632038 A 9.573102,9.573102 0 0 1 96.76341,4.407268 9.573102,9.573102 0 0 1 109.98776,1.5126782 9.573102,9.573102 0 0 1 112.88426,14.736615 9.573102,9.573102 0 0 1 99.660738,17.635013" />
      <path
         style="fill:#000000;stroke:none;stroke-width:11.3386;stroke-linecap:round;stroke-linejoin:round"
         id="path5733"
         sodipodi:type="arc"
         sodipodi:cx="136.57309"
         sodipodi:cy="9.573102"
         sodipodi:rx="9.573102"
         sodipodi:ry="9.573102"
         sodipodi:start="2.1409256"
         sodipodi:end="2.1403496"
         sodipodi:open="true"
         sodipodi:arc-type="arc"
         d="m 131.4061,17.632038 a 9.573102,9.573102 0 0 1 -2.89269,-13.22477 9.573102,9.573102 0 0 1 13.22435,-2.8945898 9.573102,9.573102 0 0 1 2.8965,13.2239368 9.573102,9.573102 0 0 1 -13.22352,2.898398" />
      <path
         style="fill:#000000;stroke:none;stroke-width:11.3386;stroke-linecap:round;stroke-linejoin:round"
         id="path5735"
         sodipodi:type="arc"
         sodipodi:cx="168.32312"
         sodipodi:cy="9.573102"
         sodipodi:rx="9.573102"
         sodipodi:ry="9.573102"
         sodipodi:start="2.1409256"
         sodipodi:end="2.1403496"
         sodipodi:open="true"
         sodipodi:arc-type="arc"
         d="m 163.15613,17.632038 a 9.573102,9.573102 0 0 1 -2.89269,-13.22477 9.573102,9.573102 0 0 1 13.22435,-2.8945898 9.573102,9.573102 0 0 1 2.8965,13.2239368 9.573102,9.573102 0 0 1 -13.22352,2.898398" />
      <path
         style="fill:#000000;stroke:none;stroke-width:11.3386;stroke-linecap:round;stroke-linejoin:round"
         id="path5737"
         sodipodi:type="arc"
         sodipodi:cx="200.07315"
         sodipodi:cy="9.573102"
         sodipodi:rx="9.573102"
         sodipodi:ry="9.573102"
         sodipodi:start="2.1409256"
         sodipodi:end="2.1403496"
         sodipodi:open="true"
         sodipodi:arc-type="arc"
         d="m 194.90616,17.632038 a 9.573102,9.573102 0 0 1 -2.89269,-13.22477 9.573102,9.573102 0 0 1 13.22435,-2.8945898 9.573102,9.573102 0 0 1 2.8965,13.2239368 9.573102,9.573102 0 0 1 -13.22352,2.898398" />
      <path
         style="fill:#000000;stroke:none;stroke-width:11.3386;stroke-linecap:round;stroke-linejoin:round"
         id="path5739"
         sodipodi:type="arc"
         sodipodi:cx="9.573102"
         sodipodi:cy="41.323101"
         sodipodi:rx="9.573102"
         sodipodi:ry="9.573102"
         sodipodi:start="2.1409256"
         sodipodi:end="2.1403496"
         sodipodi:open="true"
         sodipodi:arc-type="arc"
         d="M 4.4061075,49.382037 A 9.573102,9.573102 0 0 1 1.513422,36.157267 9.573102,9.573102 0 0 1 14.737775,33.262677 9.573102,9.573102 0 0 1 17.634269,46.486614 9.573102,9.573102 0 0 1 4.4107503,49.385012" />
      <path
         style="fill:#000000;stroke:none;stroke-width:11.3386;stroke-linecap:round;stroke-linejoin:round"
         id="path5741"
         sodipodi:type="arc"
         sodipodi:cx="41.323101"
         sodipodi:cy="41.323101"
         sodipodi:rx="9.573102"
         sodipodi:ry="9.573102"
         sodipodi:start="2.1409256"
         sodipodi:end="2.1403496"
         sodipodi:open="true"
         sodipodi:arc-type="arc"
         d="m 36.156107,49.382037 a 9.573102,9.573102 0 0 1 -2.892686,-13.22477 9.573102,9.573102 0 0 1 13.224353,-2.89459 9.573102,9.573102 0 0 1 2.896494,13.223937 9.573102,9.573102 0 0 1 -13.223519,2.898398" />
      <path
         style="fill:#000000;stroke:none;stroke-width:11.3386;stroke-linecap:round;stroke-linejoin:round"
         id="path5743"
         sodipodi:type="arc"
         sodipodi:cx="73.073105"
         sodipodi:cy="41.323101"
         sodipodi:rx="9.573102"
         sodipodi:ry="9.573102"
         sodipodi:start="2.1409256"
         sodipodi:end="2.1403496"
         sodipodi:open="true"
         sodipodi:arc-type="arc"
         d="m 67.90611,49.382037 a 9.573102,9.573102 0 0 1 -2.892685,-13.22477 9.573102,9.573102 0 0 1 13.224353,-2.89459 9.573102,9.573102 0 0 1 2.896494,13.223937 9.573102,9.573102 0 0 1 -13.223519,2.898398" />
      <path
         style="fill:#000000;stroke:none;stroke-width:11.3386;stroke-linecap:round;stroke-linejoin:round"
         id="path5745"
         sodipodi:type="arc"
         sodipodi:cx="104.82309"
         sodipodi:cy="41.323101"
         sodipodi:rx="9.573102"
         sodipodi:ry="9.573102"
         sodipodi:start="2.1409256"
         sodipodi:end="2.1403496"
         sodipodi:open="true"
         sodipodi:arc-type="arc"
         d="m 99.656095,49.382037 a 9.573102,9.573102 0 0 1 -2.892685,-13.22477 9.573102,9.573102 0 0 1 13.22435,-2.89459 9.573102,9.573102 0 0 1 2.8965,13.223937 9.573102,9.573102 0 0 1 -13.223522,2.898398" />
      <path
         style="fill:#000000;stroke:none;stroke-width:11.3386;stroke-linecap:round;stroke-linejoin:round"
         id="path5747"
         sodipodi:type="arc"
         sodipodi:cx="136.57309"
         sodipodi:cy="41.323101"
         sodipodi:rx="9.573102"
         sodipodi:ry="9.573102"
         sodipodi:start="2.1409256"
         sodipodi:end="2.1403496"
         sodipodi:open="true"
         sodipodi:arc-type="arc"
         d="m 131.4061,49.382037 a 9.573102,9.573102 0 0 1 -2.89269,-13.22477 9.573102,9.573102 0 0 1 13.22435,-2.89459 9.573102,9.573102 0 0 1 2.8965,13.223937 9.573102,9.573102 0 0 1 -13.22352,2.898398" />
      <path
         style="fill:#000000;stroke:none;stroke-width:11.3386;stroke-linecap:round;stroke-linejoin:round"
         id="path5749"
         sodipodi:type="arc"
         sodipodi:cx="168.32312"
         sodipodi:cy="41.323101"
         sodipodi:rx="9.573102"
         sodipodi:ry="9.573102"
         sodipodi:start="2.1409256"
         sodipodi:end="2.1403496"
         sodipodi:open="true"
         sodipodi:arc-type="arc"
         d="m 163.15613,49.382037 a 9.573102,9.573102 0 0 1 -2.89269,-13.22477 9.573102,9.573102 0 0 1 13.22435,-2.89459 9.573102,9.573102 0 0 1 2.8965,13.223937 9.573102,9.573102 0 0 1 -13.22352,2.898398" />
      <path
         style="fill:#000000;stroke:none;stroke-width:11.3386;stroke-linecap:round;stroke-linejoin:round"
         id="path5751"
         sodipodi:type="arc"
         sodipodi:cx="200.07315"
         sodipodi:cy="41.323101"
         sodipodi:rx="9.573102"
         sodipodi:ry="9.573102"
         sodipodi:start="2.1409256"
         sodipodi:end="2.1403496"
         sodipodi:open="true"
         sodipodi:arc-type="arc"
         d="m 194.90616,49.382037 a 9.573102,9.573102 0 0 1 -2.89269,-13.22477 9.573102,9.573102 0 0 1 13.22435,-2.89459 9.573102,9.573102 0 0 1 2.8965,13.223937 9.573102,9.573102 0 0 1 -13.22352,2.898398" />
      <path
         style="fill:#000000;stroke:none;stroke-width:11.3386;stroke-linecap:round;stroke-linejoin:round"
         id="path5753"
         sodipodi:type="arc"
         sodipodi:cx="9.573102"
         sodipodi:cy="73.073105"
         sodipodi:rx="9.573102"
         sodipodi:ry="9.573102"
         sodipodi:start="2.1409256"
         sodipodi:end="2.1403496"
         sodipodi:open="true"
         sodipodi:arc-type="arc"
         d="M 4.4061075,81.132041 A 9.573102,9.573102 0 0 1 1.513422,67.907271 9.573102,9.573102 0 0 1 14.737775,65.012681 9.573102,9.573102 0 0 1 17.634269,78.236617 9.573102,9.573102 0 0 1 4.4107503,81.135016" />
      <path
         style="fill:#000000;stroke:none;stroke-width:11.3386;stroke-linecap:round;stroke-linejoin:round"
         id="path5755"
         sodipodi:type="arc"
         sodipodi:cx="41.323101"
         sodipodi:cy="73.073105"
         sodipodi:rx="9.573102"
         sodipodi:ry="9.573102"
         sodipodi:start="2.1409256"
         sodipodi:end="2.1403496"
         sodipodi:open="true"
         sodipodi:arc-type="arc"
         d="m 36.156107,81.132041 a 9.573102,9.573102 0 0 1 -2.892686,-13.22477 9.573102,9.573102 0 0 1 13.224353,-2.89459 9.573102,9.573102 0 0 1 2.896494,13.223936 9.573102,9.573102 0 0 1 -13.223519,2.898399" />
      <path
         style="fill:#000000;stroke:none;stroke-width:11.3386;stroke-linecap:round;stroke-linejoin:round"
         id="path5757"
         sodipodi:type="arc"
         sodipodi:cx="73.073105"
         sodipodi:cy="73.073105"
         sodipodi:rx="9.573102"
         sodipodi:ry="9.573102"
         sodipodi:start="2.1409256"
         sodipodi:end="2.1403496"
         sodipodi:open="true"
         sodipodi:arc-type="arc"
         d="m 67.90611,81.132041 a 9.573102,9.573102 0 0 1 -2.892685,-13.22477 9.573102,9.573102 0 0 1 13.224353,-2.89459 9.573102,9.573102 0 0 1 2.896494,13.223936 9.573102,9.573102 0 0 1 -13.223519,2.898399" />
      <path
         style="fill:#000000;stroke:none;stroke-width:11.3386;stroke-linecap:round;stroke-linejoin:round"
         id="path5759"
         sodipodi:type="arc"
         sodipodi:cx="104.82309"
         sodipodi:cy="73.073105"
         sodipodi:rx="9.573102"
         sodipodi:ry="9.573102"
         sodipodi:start="2.1409256"
         sodipodi:end="2.1403496"
         sodipodi:open="true"
         sodipodi:arc-type="arc"
         d="m 99.656095,81.132041 a 9.573102,9.573102 0 0 1 -2.892685,-13.22477 9.573102,9.573102 0 0 1 13.22435,-2.89459 9.573102,9.573102 0 0 1 2.8965,13.223936 9.573102,9.573102 0 0 1 -13.223522,2.898399" />
      <path
         style="fill:#000000;stroke:none;stroke-width:11.3386;stroke-linecap:round;stroke-linejoin:round"
         id="path5761"
         sodipodi:type="arc"
         sodipodi:cx="136.57309"
         sodipodi:cy="73.073105"
         sodipodi:rx="9.573102"
         sodipodi:ry="9.573102"
         sodipodi:start="2.1409256"
         sodipodi:end="2.1403496"
         sodipodi:open="true"
         sodipodi:arc-type="arc"
         d="m 131.4061,81.132041 a 9.573102,9.573102 0 0 1 -2.89269,-13.22477 9.573102,9.573102 0 0 1 13.22435,-2.89459 9.573102,9.573102 0 0 1 2.8965,13.223936 9.573102,9.573102 0 0 1 -13.22352,2.898399" />
      <path
         style="fill:#000000;stroke:none;stroke-width:11.3386;stroke-linecap:round;stroke-linejoin:round"
         id="path5763"
         sodipodi:type="arc"
         sodipodi:cx="168.32312"
         sodipodi:cy="73.073105"
         sodipodi:rx="9.573102"
         sodipodi:ry="9.573102"
         sodipodi:start="2.1409256"
         sodipodi:end="2.1403496"
         sodipodi:open="true"
         sodipodi:arc-type="arc"
         d="m 163.15613,81.132041 a 9.573102,9.573102 0 0 1 -2.89269,-13.22477 9.573102,9.573102 0 0 1 13.22435,-2.89459 9.573102,9.573102 0 0 1 2.8965,13.223936 9.573102,9.573102 0 0 1 -13.22352,2.898399" />
      <path
         style="fill:#000000;stroke:none;stroke-width:11.3386;stroke-linecap:round;stroke-linejoin:round"
         id="path5765"
         sodipodi:type="arc"
         sodipodi:cx="200.07315"
         sodipodi:cy="73.073105"
         sodipodi:rx="9.573102"
         sodipodi:ry="9.573102"
         sodipodi:start="2.1409256"
         sodipodi:end="2.1403496"
         sodipodi:open="true"
         sodipodi:arc-type="arc"
         d="m 194.90616,81.132041 a 9.573102,9.573102 0 0 1 -2.89269,-13.22477 9.573102,9.573102 0 0 1 13.22435,-2.89459 9.573102,9.573102 0 0 1 2.8965,13.223936 9.573102,9.573102 0 0 1 -13.22352,2.898399" />
      <path
         style="fill:#000000;stroke:none;stroke-width:11.3386;stroke-linecap:round;stroke-linejoin:round"
         id="path5767"
         sodipodi:type="arc"
         sodipodi:cx="9.573102"
         sodipodi:cy="104.82309"
         sodipodi:rx="9.573102"
         sodipodi:ry="9.573102"
         sodipodi:start="2.1409256"
         sodipodi:end="2.1403496"
         sodipodi:open="true"
         sodipodi:arc-type="arc"
         d="M 4.4061075,112.88203 A 9.573102,9.573102 0 0 1 1.513422,99.657256 9.573102,9.573102 0 0 1 14.737775,96.762666 9.573102,9.573102 0 0 1 17.634269,109.9866 9.573102,9.573102 0 0 1 4.4107503,112.885" />
      <path
         style="fill:#000000;stroke:none;stroke-width:11.3386;stroke-linecap:round;stroke-linejoin:round"
         id="path5769"
         sodipodi:type="arc"
         sodipodi:cx="41.323101"
         sodipodi:cy="104.82309"
         sodipodi:rx="9.573102"
         sodipodi:ry="9.573102"
         sodipodi:start="2.1409256"
         sodipodi:end="2.1403496"
         sodipodi:open="true"
         sodipodi:arc-type="arc"
         d="M 36.156107,112.88203 A 9.573102,9.573102 0 0 1 33.263421,99.657256 9.573102,9.573102 0 0 1 46.487774,96.762666 9.573102,9.573102 0 0 1 49.384268,109.9866 9.573102,9.573102 0 0 1 36.160749,112.885" />
      <path
         style="fill:#000000;stroke:none;stroke-width:11.3386;stroke-linecap:round;stroke-linejoin:round"
         id="path5771"
         sodipodi:type="arc"
         sodipodi:cx="73.073105"
         sodipodi:cy="104.82309"
         sodipodi:rx="9.573102"
         sodipodi:ry="9.573102"
         sodipodi:start="2.1409256"
         sodipodi:end="2.1403496"
         sodipodi:open="true"
         sodipodi:arc-type="arc"
         d="M 67.90611,112.88203 A 9.573102,9.573102 0 0 1 65.013425,99.657256 9.573102,9.573102 0 0 1 78.237778,96.762666 9.573102,9.573102 0 0 1 81.134272,109.9866 9.573102,9.573102 0 0 1 67.910753,112.885" />
      <path
         style="fill:#000000;stroke:none;stroke-width:11.3386;stroke-linecap:round;stroke-linejoin:round"
         id="path5773"
         sodipodi:type="arc"
         sodipodi:cx="104.82309"
         sodipodi:cy="104.82309"
         sodipodi:rx="9.573102"
         sodipodi:ry="9.573102"
         sodipodi:start="2.1409256"
         sodipodi:end="2.1403496"
         sodipodi:open="true"
         sodipodi:arc-type="arc"
         d="m 99.656095,112.88203 a 9.573102,9.573102 0 0 1 -2.892685,-13.224774 9.573102,9.573102 0 0 1 13.22435,-2.89459 9.573102,9.573102 0 0 1 2.8965,13.223934 9.573102,9.573102 0 0 1 -13.223522,2.8984" />
      <path
         style="fill:#000000;stroke:none;stroke-width:11.3386;stroke-linecap:round;stroke-linejoin:round"
         id="path5775"
         sodipodi:type="arc"
         sodipodi:cx="136.57309"
         sodipodi:cy="104.82309"
         sodipodi:rx="9.573102"
         sodipodi:ry="9.573102"
         sodipodi:start="2.1409256"
         sodipodi:end="2.1403496"
         sodipodi:open="true"
         sodipodi:arc-type="arc"
         d="m 131.4061,112.88203 a 9.573102,9.573102 0 0 1 -2.89269,-13.224774 9.573102,9.573102 0 0 1 13.22435,-2.89459 9.573102,9.573102 0 0 1 2.8965,13.223934 9.573102,9.573102 0 0 1 -13.22352,2.8984" />
      <path
         style="fill:#000000;stroke:none;stroke-width:11.3386;stroke-linecap:round;stroke-linejoin:round"
         id="path5777"
         sodipodi:type="arc"
         sodipodi:cx="168.32312"
         sodipodi:cy="104.82309"
         sodipodi:rx="9.573102"
         sodipodi:ry="9.573102"
         sodipodi:start="2.1409256"
         sodipodi:end="2.1403496"
         sodipodi:open="true"
         sodipodi:arc-type="arc"
         d="m 163.15613,112.88203 a 9.573102,9.573102 0 0 1 -2.89269,-13.224774 9.573102,9.573102 0 0 1 13.22435,-2.89459 9.573102,9.573102 0 0 1 2.8965,13.223934 9.573102,9.573102 0 0 1 -13.22352,2.8984" />
      <path
         style="fill:#000000;stroke:none;stroke-width:11.3386;stroke-linecap:round;stroke-linejoin:round"
         id="path5779"
         sodipodi:type="arc"
         sodipodi:cx="200.07315"
         sodipodi:cy="104.82309"
         sodipodi:rx="9.573102"
         sodipodi:ry="9.573102"
         sodipodi:start="2.1409256"
         sodipodi:end="2.1403496"
         sodipodi:open="true"
         sodipodi:arc-type="arc"
         d="m 194.90616,112.88203 a 9.573102,9.573102 0 0 1 -2.89269,-13.224774 9.573102,9.573102 0 0 1 13.22435,-2.89459 9.573102,9.573102 0 0 1 2.8965,13.223934 9.573102,9.573102 0 0 1 -13.22352,2.8984" />
      <path
         style="fill:#000000;stroke:none;stroke-width:11.3386;stroke-linecap:round;stroke-linejoin:round"
         id="path5781"
         sodipodi:type="arc"
         sodipodi:cx="9.573102"
         sodipodi:cy="136.57309"
         sodipodi:rx="9.573102"
         sodipodi:ry="9.573102"
         sodipodi:start="2.1409256"
         sodipodi:end="2.1403496"
         sodipodi:open="true"
         sodipodi:arc-type="arc"
         d="M 4.4061075,144.63203 A 9.573102,9.573102 0 0 1 1.513422,131.40726 9.573102,9.573102 0 0 1 14.737775,128.51267 9.573102,9.573102 0 0 1 17.634269,141.7366 9.573102,9.573102 0 0 1 4.4107503,144.635" />
      <path
         style="fill:#000000;stroke:none;stroke-width:11.3386;stroke-linecap:round;stroke-linejoin:round"
         id="path5783"
         sodipodi:type="arc"
         sodipodi:cx="41.323101"
         sodipodi:cy="136.57309"
         sodipodi:rx="9.573102"
         sodipodi:ry="9.573102"
         sodipodi:start="2.1409256"
         sodipodi:end="2.1403496"
         sodipodi:open="true"
         sodipodi:arc-type="arc"
         d="m 36.156107,144.63203 a 9.573102,9.573102 0 0 1 -2.892686,-13.22477 9.573102,9.573102 0 0 1 13.224353,-2.89459 9.573102,9.573102 0 0 1 2.896494,13.22393 9.573102,9.573102 0 0 1 -13.223519,2.8984" />
      <path
         style="fill:#000000;stroke:none;stroke-width:11.3386;stroke-linecap:round;stroke-linejoin:round"
         id="path5785"
         sodipodi:type="arc"
         sodipodi:cx="73.073105"
         sodipodi:cy="136.57309"
         sodipodi:rx="9.573102"
         sodipodi:ry="9.573102"
         sodipodi:start="2.1409256"
         sodipodi:end="2.1403496"
         sodipodi:open="true"
         sodipodi:arc-type="arc"
         d="m 67.90611,144.63203 a 9.573102,9.573102 0 0 1 -2.892685,-13.22477 9.573102,9.573102 0 0 1 13.224353,-2.89459 9.573102,9.573102 0 0 1 2.896494,13.22393 9.573102,9.573102 0 0 1 -13.223519,2.8984" />
      <path
         style="fill:#000000;stroke:none;stroke-width:11.3386;stroke-linecap:round;stroke-linejoin:round"
         id="path5787"
         sodipodi:type="arc"
         sodipodi:cx="104.82309"
         sodipodi:cy="136.57309"
         sodipodi:rx="9.573102"
         sodipodi:ry="9.573102"
         sodipodi:start="2.1409256"
         sodipodi:end="2.1403496"
         sodipodi:open="true"
         sodipodi:arc-type="arc"
         d="m 99.656095,144.63203 a 9.573102,9.573102 0 0 1 -2.892685,-13.22477 9.573102,9.573102 0 0 1 13.22435,-2.89459 9.573102,9.573102 0 0 1 2.8965,13.22393 9.573102,9.573102 0 0 1 -13.223522,2.8984" />
      <path
         style="fill:#000000;stroke:none;stroke-width:11.3386;stroke-linecap:round;stroke-linejoin:round"
         id="path5789"
         sodipodi:type="arc"
         sodipodi:cx="136.57309"
         sodipodi:cy="136.57309"
         sodipodi:rx="9.573102"
         sodipodi:ry="9.573102"
         sodipodi:start="2.1409256"
         sodipodi:end="2.1403496"
         sodipodi:open="true"
         sodipodi:arc-type="arc"
         d="m 131.4061,144.63203 a 9.573102,9.573102 0 0 1 -2.89269,-13.22477 9.573102,9.573102 0 0 1 13.22435,-2.89459 9.573102,9.573102 0 0 1 2.8965,13.22393 9.573102,9.573102 0 0 1 -13.22352,2.8984" />
      <path
         style="fill:#000000;stroke:none;stroke-width:11.3386;stroke-linecap:round;stroke-linejoin:round"
         id="path5791"
         sodipodi:type="arc"
         sodipodi:cx="168.32312"
         sodipodi:cy="136.57309"
         sodipodi:rx="9.573102"
         sodipodi:ry="9.573102"
         sodipodi:start="2.1409256"
         sodipodi:end="2.1403496"
         sodipodi:open="true"
         sodipodi:arc-type="arc"
         d="m 163.15613,144.63203 a 9.573102,9.573102 0 0 1 -2.89269,-13.22477 9.573102,9.573102 0 0 1 13.22435,-2.89459 9.573102,9.573102 0 0 1 2.8965,13.22393 9.573102,9.573102 0 0 1 -13.22352,2.8984" />
      <path
         style="fill:#000000;stroke:none;stroke-width:11.3386;stroke-linecap:round;stroke-linejoin:round"
         id="path5793"
         sodipodi:type="arc"
         sodipodi:cx="200.07315"
         sodipodi:cy="136.57309"
         sodipodi:rx="9.573102"
         sodipodi:ry="9.573102"
         sodipodi:start="2.1409256"
         sodipodi:end="2.1403496"
         sodipodi:open="true"
         sodipodi:arc-type="arc"
         d="m 194.90616,144.63203 a 9.573102,9.573102 0 0 1 -2.89269,-13.22477 9.573102,9.573102 0 0 1 13.22435,-2.89459 9.573102,9.573102 0 0 1 2.8965,13.22393 9.573102,9.573102 0 0 1 -13.22352,2.8984" />
      <path
         style="fill:#000000;stroke:none;stroke-width:11.3386;stroke-linecap:round;stroke-linejoin:round"
         id="path5795"
         sodipodi:type="arc"
         sodipodi:cx="9.573102"
         sodipodi:cy="168.32312"
         sodipodi:rx="9.573102"
         sodipodi:ry="9.573102"
         sodipodi:start="2.1409256"
         sodipodi:end="2.1403496"
         sodipodi:open="true"
         sodipodi:arc-type="arc"
         d="m 4.4061075,176.38206 a 9.573102,9.573102 0 0 1 -2.8926855,-13.22477 9.573102,9.573102 0 0 1 13.224353,-2.89459 9.573102,9.573102 0 0 1 2.896494,13.22393 9.573102,9.573102 0 0 1 -13.2235187,2.8984" />
      <path
         style="fill:#000000;stroke:none;stroke-width:11.3386;stroke-linecap:round;stroke-linejoin:round"
         id="path5797"
         sodipodi:type="arc"
         sodipodi:cx="41.323101"
         sodipodi:cy="168.32312"
         sodipodi:rx="9.573102"
         sodipodi:ry="9.573102"
         sodipodi:start="2.1409256"
         sodipodi:end="2.1403496"
         sodipodi:open="true"
         sodipodi:arc-type="arc"
         d="m 36.156107,176.38206 a 9.573102,9.573102 0 0 1 -2.892686,-13.22477 9.573102,9.573102 0 0 1 13.224353,-2.89459 9.573102,9.573102 0 0 1 2.896494,13.22393 9.573102,9.573102 0 0 1 -13.223519,2.8984" />
      <path
         style="fill:#000000;stroke:none;stroke-width:11.3386;stroke-linecap:round;stroke-linejoin:round"
         id="path5799"
         sodipodi:type="arc"
         sodipodi:cx="73.073105"
         sodipodi:cy="168.32312"
         sodipodi:rx="9.573102"
         sodipodi:ry="9.573102"
         sodipodi:start="2.1409256"
         sodipodi:end="2.1403496"
         sodipodi:open="true"
         sodipodi:arc-type="arc"
         d="m 67.90611,176.38206 a 9.573102,9.573102 0 0 1 -2.892685,-13.22477 9.573102,9.573102 0 0 1 13.224353,-2.89459 9.573102,9.573102 0 0 1 2.896494,13.22393 9.573102,9.573102 0 0 1 -13.223519,2.8984" />
      <path
         style="fill:#000000;stroke:none;stroke-width:11.3386;stroke-linecap:round;stroke-linejoin:round"
         id="path5801"
         sodipodi:type="arc"
         sodipodi:cx="104.82309"
         sodipodi:cy="168.32312"
         sodipodi:rx="9.573102"
         sodipodi:ry="9.573102"
         sodipodi:start="2.1409256"
         sodipodi:end="2.1403496"
         sodipodi:open="true"
         sodipodi:arc-type="arc"
         d="m 99.656095,176.38206 a 9.573102,9.573102 0 0 1 -2.892685,-13.22477 9.573102,9.573102 0 0 1 13.22435,-2.89459 9.573102,9.573102 0 0 1 2.8965,13.22393 9.573102,9.573102 0 0 1 -13.223522,2.8984" />
      <path
         style="fill:#000000;stroke:none;stroke-width:11.3386;stroke-linecap:round;stroke-linejoin:round"
         id="path5803"
         sodipodi:type="arc"
         sodipodi:cx="136.57309"
         sodipodi:cy="168.32312"
         sodipodi:rx="9.573102"
         sodipodi:ry="9.573102"
         sodipodi:start="2.1409256"
         sodipodi:end="2.1403496"
         sodipodi:open="true"
         sodipodi:arc-type="arc"
         d="m 131.4061,176.38206 a 9.573102,9.573102 0 0 1 -2.89269,-13.22477 9.573102,9.573102 0 0 1 13.22435,-2.89459 9.573102,9.573102 0 0 1 2.8965,13.22393 9.573102,9.573102 0 0 1 -13.22352,2.8984" />
      <path
         style="fill:#000000;stroke:none;stroke-width:11.3386;stroke-linecap:round;stroke-linejoin:round"
         id="path5805"
         sodipodi:type="arc"
         sodipodi:cx="168.32312"
         sodipodi:cy="168.32312"
         sodipodi:rx="9.573102"
         sodipodi:ry="9.573102"
         sodipodi:start="2.1409256"
         sodipodi:end="2.1403496"
         sodipodi:open="true"
         sodipodi:arc-type="arc"
         d="m 163.15613,176.38206 a 9.573102,9.573102 0 0 1 -2.89269,-13.22477 9.573102,9.573102 0 0 1 13.22435,-2.89459 9.573102,9.573102 0 0 1 2.8965,13.22393 9.573102,9.573102 0 0 1 -13.22352,2.8984" />
      <path
         style="fill:#000000;stroke:none;stroke-width:11.3386;stroke-linecap:round;stroke-linejoin:round"
         id="path5807"
         sodipodi:type="arc"
         sodipodi:cx="200.07315"
         sodipodi:cy="168.32312"
         sodipodi:rx="9.573102"
         sodipodi:ry="9.573102"
         sodipodi:start="2.1409256"
         sodipodi:end="2.1403496"
         sodipodi:open="true"
         sodipodi:arc-type="arc"
         d="m 194.90616,176.38206 a 9.573102,9.573102 0 0 1 -2.89269,-13.22477 9.573102,9.573102 0 0 1 13.22435,-2.89459 9.573102,9.573102 0 0 1 2.8965,13.22393 9.573102,9.573102 0 0 1 -13.22352,2.8984" />
      <path
         style="fill:#000000;stroke:none;stroke-width:11.3386;stroke-linecap:round;stroke-linejoin:round"
         id="path5809"
         sodipodi:type="arc"
         sodipodi:cx="9.573102"
         sodipodi:cy="200.07315"
         sodipodi:rx="9.573102"
         sodipodi:ry="9.573102"
         sodipodi:start="2.1409256"
         sodipodi:end="2.1403496"
         sodipodi:open="true"
         sodipodi:arc-type="arc"
         d="m 4.4061075,208.13209 a 9.573102,9.573102 0 0 1 -2.8926855,-13.22477 9.573102,9.573102 0 0 1 13.224353,-2.89459 9.573102,9.573102 0 0 1 2.896494,13.22393 9.573102,9.573102 0 0 1 -13.2235187,2.8984" />
      <path
         style="fill:#000000;stroke:none;stroke-width:11.3386;stroke-linecap:round;stroke-linejoin:round"
         id="path5811"
         sodipodi:type="arc"
         sodipodi:cx="41.323101"
         sodipodi:cy="200.07315"
         sodipodi:rx="9.573102"
         sodipodi:ry="9.573102"
         sodipodi:start="2.1409256"
         sodipodi:end="2.1403496"
         sodipodi:open="true"
         sodipodi:arc-type="arc"
         d="m 36.156107,208.13209 a 9.573102,9.573102 0 0 1 -2.892686,-13.22477 9.573102,9.573102 0 0 1 13.224353,-2.89459 9.573102,9.573102 0 0 1 2.896494,13.22393 9.573102,9.573102 0 0 1 -13.223519,2.8984" />
      <path
         style="fill:#000000;stroke:none;stroke-width:11.3386;stroke-linecap:round;stroke-linejoin:round"
         id="path5813"
         sodipodi:type="arc"
         sodipodi:cx="73.073105"
         sodipodi:cy="200.07315"
         sodipodi:rx="9.573102"
         sodipodi:ry="9.573102"
         sodipodi:start="2.1409256"
         sodipodi:end="2.1403496"
         sodipodi:open="true"
         sodipodi:arc-type="arc"
         d="m 67.90611,208.13209 a 9.573102,9.573102 0 0 1 -2.892685,-13.22477 9.573102,9.573102 0 0 1 13.224353,-2.89459 9.573102,9.573102 0 0 1 2.896494,13.22393 9.573102,9.573102 0 0 1 -13.223519,2.8984" />
      <path
         style="fill:#000000;stroke:none;stroke-width:11.3386;stroke-linecap:round;stroke-linejoin:round"
         id="path5815"
         sodipodi:type="arc"
         sodipodi:cx="104.82309"
         sodipodi:cy="200.07315"
         sodipodi:rx="9.573102"
         sodipodi:ry="9.573102"
         sodipodi:start="2.1409256"
         sodipodi:end="2.1403496"
         sodipodi:open="true"
         sodipodi:arc-type="arc"
         d="m 99.656095,208.13209 a 9.573102,9.573102 0 0 1 -2.892685,-13.22477 9.573102,9.573102 0 0 1 13.22435,-2.89459 9.573102,9.573102 0 0 1 2.8965,13.22393 9.573102,9.573102 0 0 1 -13.223522,2.8984" />
      <path
         style="fill:#000000;stroke:none;stroke-width:11.3386;stroke-linecap:round;stroke-linejoin:round"
         id="path5817"
         sodipodi:type="arc"
         sodipodi:cx="136.57309"
         sodipodi:cy="200.07315"
         sodipodi:rx="9.573102"
         sodipodi:ry="9.573102"
         sodipodi:start="2.1409256"
         sodipodi:end="2.1403496"
         sodipodi:open="true"
         sodipodi:arc-type="arc"
         d="m 131.4061,208.13209 a 9.573102,9.573102 0 0 1 -2.89269,-13.22477 9.573102,9.573102 0 0 1 13.22435,-2.89459 9.573102,9.573102 0 0 1 2.8965,13.22393 9.573102,9.573102 0 0 1 -13.22352,2.8984" />
      <path
         style="fill:#000000;stroke:none;stroke-width:11.3386;stroke-linecap:round;stroke-linejoin:round"
         id="path5819"
         sodipodi:type="arc"
         sodipodi:cx="168.32312"
         sodipodi:cy="200.07315"
         sodipodi:rx="9.573102"
         sodipodi:ry="9.573102"
         sodipodi:start="2.1409256"
         sodipodi:end="2.1403496"
         sodipodi:open="true"
         sodipodi:arc-type="arc"
         d="m 163.15613,208.13209 a 9.573102,9.573102 0 0 1 -2.89269,-13.22477 9.573102,9.573102 0 0 1 13.22435,-2.89459 9.573102,9.573102 0 0 1 2.8965,13.22393 9.573102,9.573102 0 0 1 -13.22352,2.8984" />
      <path
         style="fill:#000000;stroke:none;stroke-width:11.3386;stroke-linecap:round;stroke-linejoin:round"
         id="path5821"
         sodipodi:type="arc"
         sodipodi:cx="200.07315"
         sodipodi:cy="200.07315"
         sodipodi:rx="9.573102"
         sodipodi:ry="9.573102"
         sodipodi:start="2.1409256"
         sodipodi:end="2.1403496"
         sodipodi:open="true"
         sodipodi:arc-type="arc"
         d="m 194.90616,208.13209 a 9.573102,9.573102 0 0 1 -2.89269,-13.22477 9.573102,9.573102 0 0 1 13.22435,-2.89459 9.573102,9.573102 0 0 1 2.8965,13.22393 9.573102,9.573102 0 0 1 -13.22352,2.8984" />
    </g>
  </g>
</svg>
