<?xml version="1.0" encoding="UTF-8" standalone="no"?>
<!-- Created with Inkscape (http://www.inkscape.org/) -->

<svg
   width="200mm"
   height="200mm"
   viewBox="0 0 200 200"
   version="1.1"
   id="svg3739"
   sodipodi:docname="egg-02.svg"
   inkscape:version="1.1.2 (0a00cf5339, 2022-02-04)"
   xmlns:inkscape="http://www.inkscape.org/namespaces/inkscape"
   xmlns:sodipodi="http://sodipodi.sourceforge.net/DTD/sodipodi-0.dtd"
   xmlns="http://www.w3.org/2000/svg"
   xmlns:svg="http://www.w3.org/2000/svg">
  <sodipodi:namedview
     id="namedview3741"
     pagecolor="#ff00ff"
     bordercolor="#666666"
     borderopacity="1.0"
     inkscape:pageshadow="2"
     inkscape:pageopacity="0"
     inkscape:pagecheckerboard="0"
     inkscape:document-units="mm"
     showgrid="false"
     inkscape:snap-page="false"
     inkscape:zoom="0.86121875"
     inkscape:cx="377.37218"
     inkscape:cy="377.95276"
     inkscape:window-width="1600"
     inkscape:window-height="863"
     inkscape:window-x="0"
     inkscape:window-y="0"
     inkscape:window-maximized="1"
     inkscape:current-layer="layer1" />
  <defs
     id="defs3736">
    <inkscape:path-effect
       effect="powerstroke"
       id="path-effect18733"
       is_visible="true"
       lpeversion="1"
       offset_points="1,3.33024"
       not_jump="false"
       sort_points="true"
       interpolator_type="CubicBezierJohan"
       interpolator_beta="0.2"
       start_linecap_type="zerowidth"
       linejoin_type="extrp_arc"
       miter_limit="4"
       scale_width="1"
       end_linecap_type="zerowidth" />
    <inkscape:path-effect
       effect="powerstroke"
       id="path-effect16712"
       is_visible="true"
       lpeversion="1"
       offset_points="1,3.33024"
       not_jump="false"
       sort_points="true"
       interpolator_type="CubicBezierJohan"
       interpolator_beta="0.2"
       start_linecap_type="zerowidth"
       linejoin_type="extrp_arc"
       miter_limit="4"
       scale_width="1"
       end_linecap_type="zerowidth" />
    <inkscape:path-effect
       effect="powerstroke"
       id="path-effect13765"
       is_visible="true"
       lpeversion="1"
       offset_points="1,1.9684151"
       not_jump="false"
       sort_points="true"
       interpolator_type="CubicBezierJohan"
       interpolator_beta="0.2"
       start_linecap_type="zerowidth"
       linejoin_type="extrp_arc"
       miter_limit="4"
       scale_width="1"
       end_linecap_type="zerowidth" />
    <inkscape:path-effect
       effect="powerstroke"
       id="path-effect11045"
       is_visible="true"
       lpeversion="1"
       offset_points="1,7.1454502"
       not_jump="false"
       sort_points="true"
       interpolator_type="CubicBezierJohan"
       interpolator_beta="0.2"
       start_linecap_type="zerowidth"
       linejoin_type="extrp_arc"
       miter_limit="4"
       scale_width="1"
       end_linecap_type="zerowidth" />
    <inkscape:path-effect
       effect="powerstroke"
       id="path-effect4349"
       is_visible="true"
       lpeversion="1"
       offset_points="1,1.7415223"
       not_jump="false"
       sort_points="true"
       interpolator_type="CubicBezierJohan"
       interpolator_beta="0.2"
       start_linecap_type="zerowidth"
       linejoin_type="extrp_arc"
       miter_limit="4"
       scale_width="1"
       end_linecap_type="zerowidth" />
    <inkscape:path-effect
       effect="powerstroke"
       id="path-effect4345"
       is_visible="true"
       lpeversion="1"
       offset_points="3,4.99214"
       not_jump="false"
       sort_points="true"
       interpolator_type="CubicBezierJohan"
       interpolator_beta="0.2"
       start_linecap_type="zerowidth"
       linejoin_type="extrp_arc"
       miter_limit="4"
       scale_width="1"
       end_linecap_type="zerowidth" />
    <inkscape:path-effect
       effect="powerstroke"
       id="path-effect4341"
       is_visible="true"
       lpeversion="1"
       offset_points="8,4.99214"
       not_jump="false"
       sort_points="true"
       interpolator_type="CubicBezierJohan"
       interpolator_beta="0.2"
       start_linecap_type="zerowidth"
       linejoin_type="extrp_arc"
       miter_limit="4"
       scale_width="1"
       end_linecap_type="zerowidth" />
    <inkscape:path-effect
       effect="powerstroke"
       id="path-effect4337"
       is_visible="true"
       lpeversion="1"
       offset_points="9,4.99214"
       not_jump="false"
       sort_points="true"
       interpolator_type="CubicBezierJohan"
       interpolator_beta="0.2"
       start_linecap_type="zerowidth"
       linejoin_type="extrp_arc"
       miter_limit="4"
       scale_width="1"
       end_linecap_type="zerowidth" />
    <inkscape:path-effect
       effect="powerstroke"
       id="path-effect4333"
       is_visible="true"
       lpeversion="1"
       offset_points="3,4.99214"
       not_jump="false"
       sort_points="true"
       interpolator_type="CubicBezierJohan"
       interpolator_beta="0.2"
       start_linecap_type="zerowidth"
       linejoin_type="extrp_arc"
       miter_limit="4"
       scale_width="1"
       end_linecap_type="zerowidth" />
    <inkscape:path-effect
       effect="powerstroke"
       id="path-effect13765-6"
       is_visible="true"
       lpeversion="1"
       offset_points="1,3.33024"
       not_jump="false"
       sort_points="true"
       interpolator_type="CubicBezierJohan"
       interpolator_beta="0.2"
       start_linecap_type="zerowidth"
       linejoin_type="extrp_arc"
       miter_limit="4"
       scale_width="1"
       end_linecap_type="zerowidth" />
  </defs>
  <g
     inkscape:label="Layer 1"
     inkscape:groupmode="layer"
     id="layer1">
    <path
       id="path4562-7"
       style="fill:#ffffff;stroke:#ffffff;stroke-width:10.0484;stroke-linecap:round;stroke-linejoin:round;stroke-miterlimit:4;stroke-dasharray:none;stroke-opacity:1"
       d="m 177.4816,121.62097 c 0,42.79183 -34.68972,73.15741 -77.481639,73.15741 -42.79187,-1e-4 -77.481548,-30.36563 -77.481563,-73.15746 0,-42.791926 34.689694,-116.3993025 77.481593,-116.3993025 42.791889,5e-5 77.481559,73.6074265 77.481609,116.3993525 z"
       sodipodi:nodetypes="sssss" />
    <path
       id="path4562"
       style="fill:#000000;stroke-width:0.264583"
       d="m 100.0001,5.2213867 c -3.173954,0 -6.302221,0.4140382 -9.376177,1.1813232 a 9.5731019,9.5731019 0 0 0 4.209047,6.4063271 l 0.0047,0.0031 A 9.5731019,9.5731019 0 0 0 108.0611,9.9136066 9.5731019,9.5731019 0 0 0 109.42174,6.4135618 C 106.33308,5.638851 103.1898,5.2213904 100.0001,5.2213867 Z M 67.263078,26.977681 a 9.5731019,9.5731019 0 0 0 -7.072955,4.356322 9.5731019,9.5731019 0 0 0 2.892848,13.225034 l 0.0047,0.0026 a 9.5731019,9.5731019 0 0 0 13.22348,-2.898016 9.5731019,9.5731019 0 0 0 -2.896462,-13.223999 9.5731019,9.5731019 0 0 0 -6.151563,-1.461926 z m 31.75,0 a 9.5731019,9.5731019 0 0 0 -7.072956,4.356322 9.5731019,9.5731019 0 0 0 2.892848,13.225034 l 0.0047,0.0026 a 9.5731019,9.5731019 0 0 0 13.22348,-2.898016 9.5731019,9.5731019 0 0 0 -2.89646,-13.223999 9.5731019,9.5731019 0 0 0 -6.151564,-1.461926 z m 31.750002,0 a 9.5731019,9.5731019 0 0 0 -7.07296,4.356322 9.5731019,9.5731019 0 0 0 2.89285,13.225034 l 0.005,0.0026 a 9.5731019,9.5731019 0 0 0 13.22348,-2.898016 9.5731019,9.5731019 0 0 0 -2.89647,-13.223999 9.5731019,9.5731019 0 0 0 -6.15156,-1.461926 z m -63.500002,31.75 a 9.5731019,9.5731019 0 0 0 -7.072955,4.356322 9.5731019,9.5731019 0 0 0 2.892848,13.225033 l 0.0047,0.0026 a 9.5731019,9.5731019 0 0 0 13.22348,-2.898015 9.5731019,9.5731019 0 0 0 -2.896462,-13.223999 9.5731019,9.5731019 0 0 0 -6.151563,-1.461927 z m 31.75,0 a 9.5731019,9.5731019 0 0 0 -7.072956,4.356322 9.5731019,9.5731019 0 0 0 2.892848,13.225033 l 0.0047,0.0026 a 9.5731019,9.5731019 0 0 0 13.22348,-2.898015 9.5731019,9.5731019 0 0 0 -2.89646,-13.223999 9.5731019,9.5731019 0 0 0 -6.151564,-1.461927 z m 31.750002,0 a 9.5731019,9.5731019 0 0 0 -7.07296,4.356322 9.5731019,9.5731019 0 0 0 2.89285,13.225033 l 0.005,0.0026 a 9.5731019,9.5731019 0 0 0 13.22348,-2.898015 9.5731019,9.5731019 0 0 0 -2.89647,-13.223999 9.5731019,9.5731019 0 0 0 -6.15156,-1.461927 z m 30.28807,0.319878 a 9.5731019,9.5731019 0 0 0 -5.61103,4.036444 9.5731019,9.5731019 0 0 0 2.89285,13.225033 l 0.005,0.0026 a 9.5731019,9.5731019 0 0 0 10.07587,0.139526 C 166.28472,70.58303 163.82018,64.731635 161.05116,59.04762 Z m -122.10469,0.0057 c -2.765706,5.677704 -5.228196,11.521913 -7.355107,17.383434 A 9.5731019,9.5731019 0 0 0 44.561103,73.413611 9.5731019,9.5731019 0 0 0 41.664641,60.189612 9.5731019,9.5731019 0 0 0 38.94646,59.053248 Z m -3.433382,31.424437 a 9.5731019,9.5731019 0 0 0 -7.072955,4.356323 9.5731019,9.5731019 0 0 0 2.892848,13.224521 l 0.0047,0.003 A 9.5731019,9.5731019 0 0 0 44.561109,105.16309 9.5731019,9.5731019 0 0 0 41.664646,91.939606 9.5731019,9.5731019 0 0 0 35.513084,90.47768 Z m 31.75,0 a 9.5731019,9.5731019 0 0 0 -7.072955,4.356323 9.5731019,9.5731019 0 0 0 2.892848,13.225031 l 0.0047,0.003 a 9.5731019,9.5731019 0 0 0 13.22348,-2.89802 9.5731019,9.5731019 0 0 0 -2.896462,-13.223997 9.5731019,9.5731019 0 0 0 -6.151563,-1.461926 z m 31.75,0 a 9.5731019,9.5731019 0 0 0 -7.072956,4.356323 9.5731019,9.5731019 0 0 0 2.892848,13.225031 l 0.0047,0.003 a 9.5731019,9.5731019 0 0 0 13.22348,-2.89802 9.5731019,9.5731019 0 0 0 -2.89646,-13.223997 9.5731019,9.5731019 0 0 0 -6.151564,-1.461926 z m 31.750002,0 a 9.5731019,9.5731019 0 0 0 -7.07296,4.356323 9.5731019,9.5731019 0 0 0 2.89285,13.225031 l 0.005,0.003 a 9.5731019,9.5731019 0 0 0 13.22348,-2.89802 9.5731019,9.5731019 0 0 0 -2.89647,-13.223997 9.5731019,9.5731019 0 0 0 -6.15156,-1.461926 z m 31.75,0 a 9.5731019,9.5731019 0 0 0 -7.07296,4.356323 9.5731019,9.5731019 0 0 0 2.89285,13.225031 l 0.005,0.003 a 9.5731019,9.5731019 0 0 0 13.22348,-2.89802 9.5731019,9.5731019 0 0 0 -2.89647,-13.223997 9.5731019,9.5731019 0 0 0 -6.15156,-1.461926 z M 35.513078,122.22769 a 9.5731019,9.5731019 0 0 0 -7.072955,4.35632 9.5731019,9.5731019 0 0 0 2.892848,13.22452 l 0.0047,0.003 a 9.5731019,9.5731019 0 0 0 13.223481,-2.89853 9.5731019,9.5731019 0 0 0 -2.896463,-13.22348 9.5731019,9.5731019 0 0 0 -6.151562,-1.46193 z m 31.75,0 a 9.5731019,9.5731019 0 0 0 -7.072955,4.35632 9.5731019,9.5731019 0 0 0 2.892848,13.22503 l 0.0047,0.003 a 9.5731019,9.5731019 0 0 0 13.22348,-2.89802 9.5731019,9.5731019 0 0 0 -2.896462,-13.224 9.5731019,9.5731019 0 0 0 -6.151563,-1.46192 z m 31.75,0 a 9.5731019,9.5731019 0 0 0 -7.072956,4.35632 9.5731019,9.5731019 0 0 0 2.892848,13.22503 l 0.0047,0.003 a 9.5731019,9.5731019 0 0 0 13.22348,-2.89802 9.5731019,9.5731019 0 0 0 -2.89646,-13.224 9.5731019,9.5731019 0 0 0 -6.151564,-1.46192 z m 31.750002,0 a 9.5731019,9.5731019 0 0 0 -7.07296,4.35632 9.5731019,9.5731019 0 0 0 2.89285,13.22503 l 0.005,0.003 a 9.5731019,9.5731019 0 0 0 13.22348,-2.89802 9.5731019,9.5731019 0 0 0 -2.89647,-13.224 9.5731019,9.5731019 0 0 0 -6.15156,-1.46192 z m 31.75,0 a 9.5731019,9.5731019 0 0 0 -7.07296,4.35632 9.5731019,9.5731019 0 0 0 2.89285,13.22503 l 0.005,0.003 a 9.5731019,9.5731019 0 0 0 13.22348,-2.89802 9.5731019,9.5731019 0 0 0 -2.89647,-13.224 9.5731019,9.5731019 0 0 0 -6.15156,-1.46192 z M 35.513078,153.97768 a 9.5731019,9.5731019 0 0 0 -4.610571,1.82315 c 3.028466,5.65202 6.805422,10.80855 11.203448,15.39182 a 9.5731019,9.5731019 0 0 0 2.455148,-2.52904 9.5731019,9.5731019 0 0 0 -2.896462,-13.224 9.5731019,9.5731019 0 0 0 -6.151563,-1.46193 z m 31.75,0 a 9.5731019,9.5731019 0 0 0 -7.072955,4.35633 9.5731019,9.5731019 0 0 0 2.892848,13.22503 l 0.0047,0.003 a 9.5731019,9.5731019 0 0 0 13.22348,-2.89802 9.5731019,9.5731019 0 0 0 -2.896462,-13.224 9.5731019,9.5731019 0 0 0 -6.151563,-1.46192 z m 31.75,0 a 9.5731019,9.5731019 0 0 0 -7.072956,4.35633 9.5731019,9.5731019 0 0 0 2.892848,13.22503 l 0.0047,0.003 a 9.5731019,9.5731019 0 0 0 13.22348,-2.89802 9.5731019,9.5731019 0 0 0 -2.89646,-13.224 9.5731019,9.5731019 0 0 0 -6.151564,-1.46192 z m 31.750002,0 a 9.5731019,9.5731019 0 0 0 -7.07296,4.35633 9.5731019,9.5731019 0 0 0 2.89285,13.22503 l 0.005,0.003 a 9.5731019,9.5731019 0 0 0 13.22348,-2.89802 9.5731019,9.5731019 0 0 0 -2.89647,-13.224 9.5731019,9.5731019 0 0 0 -6.15156,-1.46192 z m 31.75,0 a 9.5731019,9.5731019 0 0 0 -7.07296,4.35633 9.5731019,9.5731019 0 0 0 2.44895,12.86433 c 4.41117,-4.59601 8.19737,-9.76915 11.23084,-15.43989 a 9.5731019,9.5731019 0 0 0 -0.45527,-0.31884 9.5731019,9.5731019 0 0 0 -6.15156,-1.46193 z m -95.250002,31.75 a 9.5731019,9.5731019 0 0 0 -3.408061,1.07694 c 4.216882,2.00967 8.662136,3.66849 13.294794,4.94027 a 9.5731019,9.5731019 0 0 0 -3.735171,-4.55528 9.5731019,9.5731019 0 0 0 -6.151562,-1.46193 z m 31.75,0 a 9.5731019,9.5731019 0 0 0 -7.072956,4.35633 9.5731019,9.5731019 0 0 0 -1.444355,4.18372 c 3.115035,0.33582 6.286349,0.51056 9.504333,0.51056 3.22292,0 6.39863,-0.17527 9.51828,-0.51211 a 9.5731019,9.5731019 0 0 0 -4.35374,-7.07657 9.5731019,9.5731019 0 0 0 -6.151562,-1.46193 z m 31.750002,0 a 9.5731019,9.5731019 0 0 0 -7.07296,4.35633 9.5731019,9.5731019 0 0 0 -0.81493,1.65416 c 4.62138,-1.27025 9.05582,-2.92624 13.26327,-4.93096 a 9.5731019,9.5731019 0 0 0 -5.37538,-1.07953 z" />
  </g>
</svg>
