<?xml version="1.0" encoding="UTF-8" standalone="no"?>
<!-- Created with Inkscape (http://www.inkscape.org/) -->

<svg
   width="200mm"
   height="200mm"
   viewBox="0 0 200 200"
   version="1.1"
   id="svg3739"
   sodipodi:docname="egg-00.svg"
   inkscape:version="1.1.2 (0a00cf5339, 2022-02-04)"
   xmlns:inkscape="http://www.inkscape.org/namespaces/inkscape"
   xmlns:sodipodi="http://sodipodi.sourceforge.net/DTD/sodipodi-0.dtd"
   xmlns="http://www.w3.org/2000/svg"
   xmlns:svg="http://www.w3.org/2000/svg">
  <sodipodi:namedview
     id="namedview3741"
     pagecolor="#ff00ff"
     bordercolor="#666666"
     borderopacity="1.0"
     inkscape:pageshadow="2"
     inkscape:pageopacity="0"
     inkscape:pagecheckerboard="0"
     inkscape:document-units="mm"
     showgrid="false"
     inkscape:snap-page="false"
     inkscape:zoom="0.86121875"
     inkscape:cx="378.53333"
     inkscape:cy="377.95276"
     inkscape:window-width="1600"
     inkscape:window-height="863"
     inkscape:window-x="0"
     inkscape:window-y="0"
     inkscape:window-maximized="1"
     inkscape:current-layer="layer1" />
  <defs
     id="defs3736">
    <inkscape:path-effect
       effect="powerstroke"
       id="path-effect18733"
       is_visible="true"
       lpeversion="1"
       offset_points="1,3.33024"
       not_jump="false"
       sort_points="true"
       interpolator_type="CubicBezierJohan"
       interpolator_beta="0.2"
       start_linecap_type="zerowidth"
       linejoin_type="extrp_arc"
       miter_limit="4"
       scale_width="1"
       end_linecap_type="zerowidth" />
    <inkscape:path-effect
       effect="powerstroke"
       id="path-effect16712"
       is_visible="true"
       lpeversion="1"
       offset_points="1,3.33024"
       not_jump="false"
       sort_points="true"
       interpolator_type="CubicBezierJohan"
       interpolator_beta="0.2"
       start_linecap_type="zerowidth"
       linejoin_type="extrp_arc"
       miter_limit="4"
       scale_width="1"
       end_linecap_type="zerowidth" />
    <inkscape:path-effect
       effect="powerstroke"
       id="path-effect13765"
       is_visible="true"
       lpeversion="1"
       offset_points="1,1.9684151"
       not_jump="false"
       sort_points="true"
       interpolator_type="CubicBezierJohan"
       interpolator_beta="0.2"
       start_linecap_type="zerowidth"
       linejoin_type="extrp_arc"
       miter_limit="4"
       scale_width="1"
       end_linecap_type="zerowidth" />
    <inkscape:path-effect
       effect="powerstroke"
       id="path-effect11045"
       is_visible="true"
       lpeversion="1"
       offset_points="1,7.1454502"
       not_jump="false"
       sort_points="true"
       interpolator_type="CubicBezierJohan"
       interpolator_beta="0.2"
       start_linecap_type="zerowidth"
       linejoin_type="extrp_arc"
       miter_limit="4"
       scale_width="1"
       end_linecap_type="zerowidth" />
    <inkscape:path-effect
       effect="powerstroke"
       id="path-effect4349"
       is_visible="true"
       lpeversion="1"
       offset_points="1,1.7415223"
       not_jump="false"
       sort_points="true"
       interpolator_type="CubicBezierJohan"
       interpolator_beta="0.2"
       start_linecap_type="zerowidth"
       linejoin_type="extrp_arc"
       miter_limit="4"
       scale_width="1"
       end_linecap_type="zerowidth" />
    <inkscape:path-effect
       effect="powerstroke"
       id="path-effect4345"
       is_visible="true"
       lpeversion="1"
       offset_points="3,4.99214"
       not_jump="false"
       sort_points="true"
       interpolator_type="CubicBezierJohan"
       interpolator_beta="0.2"
       start_linecap_type="zerowidth"
       linejoin_type="extrp_arc"
       miter_limit="4"
       scale_width="1"
       end_linecap_type="zerowidth" />
    <inkscape:path-effect
       effect="powerstroke"
       id="path-effect4341"
       is_visible="true"
       lpeversion="1"
       offset_points="8,4.99214"
       not_jump="false"
       sort_points="true"
       interpolator_type="CubicBezierJohan"
       interpolator_beta="0.2"
       start_linecap_type="zerowidth"
       linejoin_type="extrp_arc"
       miter_limit="4"
       scale_width="1"
       end_linecap_type="zerowidth" />
    <inkscape:path-effect
       effect="powerstroke"
       id="path-effect4337"
       is_visible="true"
       lpeversion="1"
       offset_points="9,4.99214"
       not_jump="false"
       sort_points="true"
       interpolator_type="CubicBezierJohan"
       interpolator_beta="0.2"
       start_linecap_type="zerowidth"
       linejoin_type="extrp_arc"
       miter_limit="4"
       scale_width="1"
       end_linecap_type="zerowidth" />
    <inkscape:path-effect
       effect="powerstroke"
       id="path-effect4333"
       is_visible="true"
       lpeversion="1"
       offset_points="3,4.99214"
       not_jump="false"
       sort_points="true"
       interpolator_type="CubicBezierJohan"
       interpolator_beta="0.2"
       start_linecap_type="zerowidth"
       linejoin_type="extrp_arc"
       miter_limit="4"
       scale_width="1"
       end_linecap_type="zerowidth" />
    <inkscape:path-effect
       effect="powerstroke"
       id="path-effect13765-6"
       is_visible="true"
       lpeversion="1"
       offset_points="1,3.33024"
       not_jump="false"
       sort_points="true"
       interpolator_type="CubicBezierJohan"
       interpolator_beta="0.2"
       start_linecap_type="zerowidth"
       linejoin_type="extrp_arc"
       miter_limit="4"
       scale_width="1"
       end_linecap_type="zerowidth" />
  </defs>
  <g
     inkscape:label="Layer 1"
     inkscape:groupmode="layer"
     id="layer1">
    <path
       id="path4562"
       style="fill:#ffffff;stroke:#ffffff;stroke-width:10.0484;stroke-linecap:round;stroke-linejoin:round;stroke-miterlimit:4;stroke-dasharray:none;stroke-opacity:1"
       d="m 177.48163,121.62099 c 0,42.79183 -34.68972,73.15741 -77.48164,73.15741 -42.791875,-1e-4 -77.481552,-30.36563 -77.481567,-73.15746 0,-42.791925 34.689697,-116.399302 77.481597,-116.399302 42.79189,5.02e-5 77.48156,73.607427 77.48161,116.399352 z"
       sodipodi:nodetypes="sssss" />
    <path
       id="path3353"
       style="stroke:#000000;stroke-width:0.845496;stroke-linecap:round;stroke-linejoin:round"
       inkscape:transform-center-x="-0.31952133"
       inkscape:transform-center-y="-0.63554323"
       d="M 95.025977,5.7438855 C 86.931161,6.8185107 79.172716,10.45178 71.941935,15.921527 c -1.043812,1.85655 -1.881831,3.476916 -1.633087,3.717963 0.600228,0.581674 8.945105,-5.349387 9.772609,-5.231625 0.827504,0.117768 7.187925,8.141155 7.926615,7.75007 C 88.746763,21.766799 85.687908,11.99614 86.055626,11.245521 86.423348,10.494918 96.018663,6.9255769 95.874975,6.1021776 95.850859,5.9640618 95.525088,5.8473995 95.025977,5.7439006 Z M 108.59702,6.395572 c 1.78184,1.5108983 3.47264,2.9460515 3.5362,3.3103275 0.14369,0.8233945 -5.52026,9.3519065 -4.92002,9.9335905 0.60024,0.581674 8.94512,-5.349387 9.77261,-5.231625 0.82749,0.117768 7.18795,8.141155 7.92661,7.75007 0.60487,-0.320244 -1.31137,-6.864857 -1.83304,-9.660971 -4.65393,-2.8740445 -9.49763,-4.960231 -14.48236,-6.101392 z M 83.036095,30.562273 c -0.827504,-0.117767 -4.095694,9.586648 -4.834384,9.977723 -0.738706,0.391136 -10.599209,-2.360323 -10.966927,-1.60972 -0.367722,0.750604 7.850418,6.853975 7.994121,7.677369 0.143693,0.823385 -5.520291,9.351907 -4.920057,9.933581 0.600228,0.581684 8.945105,-5.346785 9.772609,-5.229022 0.827504,0.117768 7.187925,8.1412 7.926615,7.750069 0.738691,-0.391085 -2.320164,-10.16181 -1.952446,-10.912413 0.367722,-0.750604 9.963037,-4.319945 9.819349,-5.143344 C 95.731282,42.183122 85.492697,42.074544 84.892469,41.492854 84.29224,40.911186 83.863584,30.680051 83.036095,30.562273 Z m 36.904305,0 c -0.82744,-0.117767 -4.09569,9.586648 -4.83435,9.977723 -0.73871,0.391136 -10.59914,-2.360323 -10.96692,-1.60972 -0.36777,0.750604 7.8504,6.853975 7.99409,7.677369 0.14369,0.823385 -5.52026,9.351907 -4.92002,9.933581 0.60024,0.581684 8.94512,-5.346785 9.77261,-5.229022 0.82749,0.117768 7.18795,8.1412 7.92661,7.750069 0.73871,-0.391085 -2.32023,-10.16181 -1.95246,-10.912413 0.36777,-0.750604 9.96303,-4.319945 9.81933,-5.143344 -0.14369,-0.823394 -10.38229,-0.931972 -10.98249,-1.513662 -0.60024,-0.581668 -1.02886,-10.812803 -1.8564,-10.930581 z m 21.64831,8.238183 c -0.30648,-0.0027 -0.49941,0.03617 -0.54528,0.129825 -0.36777,0.750604 7.85044,6.853975 7.99414,7.677369 0.14369,0.823385 -5.52031,9.351907 -4.92007,9.933581 0.60019,0.581684 8.94517,-5.346785 9.77266,-5.229022 0.63541,0.09044 4.52652,4.830606 6.63624,6.854331 -3.07628,-6.207106 -6.50752,-12.199955 -10.25036,-17.78231 -2.5413,-0.449567 -7.09993,-1.570013 -8.68733,-1.583769 z m -92.746382,2.918277 c -2.026293,3.097462 -3.95708,6.313816 -5.787243,9.616844 0.0417,-0.0085 0.09797,-0.02713 0.124601,-0.02361 0.827509,0.117767 7.18794,8.1412 7.92663,7.750069 0.738681,-0.391085 -2.322767,-10.16181 -1.955049,-10.912413 0.367723,-0.750604 9.963052,-4.319945 9.819349,-5.143344 -0.122791,-0.703541 -7.575437,-0.886926 -10.128308,-1.287783 z m -2.710577,25.747879 c -0.827504,-0.117768 -4.095688,9.586637 -4.834379,9.977723 -0.568289,0.3009 -6.521241,-1.252327 -9.411724,-1.646075 -0.172884,0.469312 -0.340341,0.937665 -0.508878,1.407223 2.148984,2.067512 6.839495,5.685909 6.947792,6.306501 0.143692,0.823399 -5.520286,9.351896 -4.920058,9.93358 0.600234,0.581674 8.947698,-5.346784 9.775202,-5.229017 0.827509,0.117768 7.18794,8.14114 7.92663,7.75007 C 51.845017,95.575481 48.78357,85.804807 49.151287,85.054203 49.51901,84.3036 59.114339,80.734254 58.970637,79.91086 58.826944,79.08746 48.588358,78.978867 47.98813,78.397198 47.387897,77.815509 46.959255,67.584389 46.131751,67.466612 Z m 36.904344,0 c -0.827504,-0.117768 -4.095694,9.586637 -4.834384,9.977723 -0.738706,0.391135 -10.599209,-2.360333 -10.966927,-1.60973 -0.367722,0.750613 7.850418,6.85397 7.994121,7.677379 0.143693,0.823399 -5.520291,9.351896 -4.920057,9.93358 0.600228,0.581674 8.945105,-5.346784 9.772609,-5.229017 0.827504,0.117768 7.187925,8.14114 7.926615,7.75007 C 88.746763,95.575481 85.687908,85.804807 86.055626,85.054203 86.423348,84.3036 96.018663,80.734254 95.874975,79.91086 95.731282,79.08746 85.492697,78.978867 84.892469,78.397198 84.29224,77.815509 83.863584,67.584389 83.036095,67.466612 Z m 36.904305,0 c -0.82744,-0.117768 -4.09569,9.586637 -4.83435,9.977723 -0.73871,0.391135 -10.59914,-2.360333 -10.96692,-1.60973 -0.36777,0.750613 7.8504,6.85397 7.99409,7.677379 0.14369,0.823399 -5.52026,9.351896 -4.92002,9.93358 0.60024,0.581674 8.94512,-5.346784 9.77261,-5.229017 0.82749,0.117768 7.18795,8.14114 7.92661,7.75007 0.73871,-0.391136 -2.32023,-10.16181 -1.95246,-10.912414 0.36777,-0.750603 9.96303,-4.319949 9.81933,-5.143343 -0.14369,-0.8234 -10.38229,-0.931993 -10.98249,-1.513662 -0.60024,-0.581689 -1.02886,-10.812809 -1.8564,-10.930586 z m 36.90435,0 c -0.82754,-0.117768 -4.09569,9.586637 -4.83435,9.977723 -0.73871,0.391135 -10.59915,-2.360333 -10.96697,-1.60973 -0.36777,0.750613 7.85044,6.85397 7.99414,7.677379 0.14369,0.823399 -5.52031,9.351896 -4.92007,9.93358 0.60019,0.581674 8.94517,-5.346784 9.77266,-5.229017 0.82749,0.117768 7.1879,8.14114 7.92661,7.75007 0.73866,-0.391136 -2.32024,-10.16181 -1.95246,-10.912414 0.34818,-0.710912 8.96773,-3.949915 9.75703,-4.990155 -0.0352,-0.10375 -0.0708,-0.207802 -0.10651,-0.311552 -1.32258,-0.682661 -10.25408,-0.812934 -10.81373,-1.355283 -0.60024,-0.581689 -1.02891,-10.812808 -1.8564,-10.930586 z M 46.131751,104.37094 c -0.827504,-0.11757 -4.095688,9.58681 -4.834379,9.97775 -0.738691,0.39088 -10.599214,-2.36033 -10.966931,-1.60976 -0.367723,0.75062 7.850433,6.85404 7.994121,7.67736 0.143692,0.82342 -5.520286,9.35193 -4.920058,9.93358 0.600234,0.58171 8.947698,-5.34657 9.775202,-5.229 0.827509,0.11756 7.18794,8.14094 7.92663,7.75006 0.738681,-0.39089 -2.322766,-10.16184 -1.955049,-10.91241 0.367723,-0.75062 9.963052,-4.31992 9.81935,-5.14334 -0.143693,-0.82337 -10.382279,-0.93194 -10.982507,-1.51365 -0.600233,-0.58165 -1.028875,-10.81302 -1.856379,-10.93059 z m 36.904344,0 c -0.827504,-0.11757 -4.095694,9.58681 -4.834384,9.97775 -0.738706,0.39088 -10.599209,-2.36033 -10.966927,-1.60976 -0.367722,0.75062 7.850418,6.85404 7.994121,7.67736 0.143693,0.82342 -5.520291,9.35193 -4.920057,9.93358 0.600228,0.58171 8.945105,-5.34657 9.772609,-5.229 0.827504,0.11756 7.187925,8.14094 7.926615,7.75006 0.738691,-0.39089 -2.320164,-10.16184 -1.952446,-10.91241 0.367722,-0.75062 9.963037,-4.31992 9.819349,-5.14334 -0.143693,-0.82337 -10.382278,-0.93194 -10.982506,-1.51365 -0.600229,-0.58165 -1.028885,-10.81302 -1.856374,-10.93059 z m 36.904305,0 c -0.82744,-0.11757 -4.09569,9.58681 -4.83435,9.97775 -0.73871,0.39088 -10.59914,-2.36033 -10.96692,-1.60976 -0.36777,0.75062 7.8504,6.85404 7.99409,7.67736 0.14369,0.82342 -5.52026,9.35193 -4.92002,9.93358 0.60024,0.58171 8.94512,-5.34657 9.77261,-5.229 0.82749,0.11756 7.18795,8.14094 7.92661,7.75006 0.73871,-0.39089 -2.32023,-10.16184 -1.95246,-10.91241 0.36777,-0.75062 9.96303,-4.31992 9.81933,-5.14334 -0.14369,-0.82337 -10.38229,-0.93194 -10.98249,-1.51365 -0.60024,-0.58165 -1.02886,-10.81302 -1.8564,-10.93059 z m 36.90435,0 c -0.82754,-0.11757 -4.09569,9.58681 -4.83435,9.97775 -0.73871,0.39088 -10.59915,-2.36033 -10.96697,-1.60976 -0.36777,0.75062 7.85044,6.85404 7.99414,7.67736 0.14369,0.82342 -5.52031,9.35193 -4.92007,9.93358 0.60019,0.58171 8.94517,-5.34657 9.77266,-5.229 0.82749,0.11756 7.1879,8.14094 7.92661,7.75006 0.73866,-0.39089 -2.32024,-10.16184 -1.95246,-10.91241 0.36777,-0.75062 9.96302,-4.31992 9.81933,-5.14334 -0.14369,-0.82337 -10.38225,-0.93194 -10.98249,-1.51365 -0.60024,-0.58165 -1.02891,-10.81302 -1.8564,-10.93059 z M 46.131751,141.27529 c -0.827504,-0.11757 -4.095688,9.58681 -4.834379,9.9777 -0.738691,0.39088 -10.599214,-2.36289 -10.966931,-1.61233 -0.367723,0.75062 7.850433,6.85656 7.994121,7.67998 0.07938,0.45519 -1.601822,3.25207 -3.032524,5.77167 0.574309,0.81749 1.162725,1.62347 1.770701,2.41459 2.576766,-1.55696 5.63214,-3.55057 6.116967,-3.48169 0.827509,0.11757 7.18794,8.14095 7.92663,7.75006 0.738681,-0.39088 -2.322766,-10.16183 -1.955049,-10.9124 0.367723,-0.75062 9.963052,-4.31992 9.81935,-5.14334 -0.143693,-0.82337 -10.382279,-0.93195 -10.982507,-1.51365 -0.600233,-0.58165 -1.028875,-10.81302 -1.856379,-10.93059 z m 36.904344,0 c -0.827504,-0.11757 -4.095694,9.58681 -4.834384,9.9777 -0.738706,0.39088 -10.599209,-2.36289 -10.966927,-1.61233 -0.367722,0.75062 7.850418,6.85656 7.994121,7.67998 0.143693,0.82336 -5.520291,9.35188 -4.920057,9.93358 0.600228,0.58165 8.945105,-5.34657 9.772609,-5.22901 0.827504,0.11757 7.187925,8.14095 7.926615,7.75006 0.738691,-0.39088 -2.320164,-10.16183 -1.952446,-10.9124 0.367722,-0.75062 9.963037,-4.31992 9.819349,-5.14334 -0.143693,-0.82337 -10.382278,-0.93195 -10.982506,-1.51365 -0.600229,-0.58165 -1.028885,-10.81302 -1.856374,-10.93059 z m 36.904305,0 c -0.82744,-0.11757 -4.09569,9.58681 -4.83435,9.9777 -0.73871,0.39088 -10.59914,-2.36289 -10.96692,-1.61233 -0.36777,0.75062 7.8504,6.85656 7.99409,7.67998 0.14369,0.82336 -5.52026,9.35188 -4.92002,9.93358 0.60024,0.58165 8.94512,-5.34657 9.77261,-5.22901 0.82749,0.11757 7.18795,8.14095 7.92661,7.75006 0.73871,-0.39088 -2.32023,-10.16183 -1.95246,-10.9124 0.36777,-0.75062 9.96303,-4.31992 9.81933,-5.14334 -0.14369,-0.82337 -10.38229,-0.93195 -10.98249,-1.51365 -0.60024,-0.58165 -1.02886,-10.81302 -1.8564,-10.93059 z m 36.90435,0 c -0.82754,-0.11757 -4.09569,9.58681 -4.83435,9.9777 -0.73871,0.39088 -10.59915,-2.36289 -10.96697,-1.61233 -0.36777,0.75062 7.85044,6.85656 7.99414,7.67998 0.14369,0.82336 -5.52031,9.35188 -4.92007,9.93358 0.60019,0.58165 8.94517,-5.34657 9.77266,-5.22901 0.61632,0.0879 4.29797,4.55451 6.44406,6.67001 0.42907,-0.49589 0.85171,-0.99842 1.26706,-1.50591 -0.63843,-3.06327 -1.99009,-7.80985 -1.73697,-8.32644 0.36777,-0.75062 9.96302,-4.31992 9.81933,-5.14334 -0.14369,-0.82337 -10.38225,-0.93195 -10.98249,-1.51365 -0.60024,-0.58165 -1.02891,-10.81302 -1.8564,-10.93059 z m -73.808655,36.90435 c -0.827504,-0.11757 -4.095694,9.58681 -4.834384,9.97769 -0.738706,0.39089 -10.599209,-2.36294 -10.966927,-1.61232 -0.160021,0.32658 1.321465,1.67648 3.040311,3.15456 5.872745,2.1886 12.10955,3.73259 18.60794,4.55656 2.941997,-1.34181 7.087867,-3.08517 6.99194,-3.63487 -0.143693,-0.82342 -10.382278,-0.93199 -10.982506,-1.51364 -0.600229,-0.58171 -1.028885,-10.81042 -1.856374,-10.92798 z m 36.904305,0 c -0.82744,-0.11757 -4.09569,9.58681 -4.83435,9.97769 -0.73871,0.39089 -10.59914,-2.36294 -10.96692,-1.61232 -0.35722,0.72952 7.3742,6.50325 7.94219,7.58391 5.93827,-0.82101 11.65036,-2.24512 17.06054,-4.21386 -3.05638,-0.27131 -6.9799,-0.45369 -7.34506,-0.80744 -0.60024,-0.58171 -1.02886,-10.81042 -1.8564,-10.92798 z" />
  </g>
</svg>
