<?xml version="1.0" encoding="UTF-8" standalone="no"?>
<!-- Created with Inkscape (http://www.inkscape.org/) -->

<svg
   width="200mm"
   height="200mm"
   viewBox="0 0 200 200"
   version="1.1"
   id="svg3739"
   sodipodi:docname="egg-00.svg"
   inkscape:version="1.1.2 (0a00cf5339, 2022-02-04)"
   xmlns:inkscape="http://www.inkscape.org/namespaces/inkscape"
   xmlns:sodipodi="http://sodipodi.sourceforge.net/DTD/sodipodi-0.dtd"
   xmlns="http://www.w3.org/2000/svg"
   xmlns:svg="http://www.w3.org/2000/svg">
  <sodipodi:namedview
     id="namedview3741"
     pagecolor="#ff00ff"
     bordercolor="#666666"
     borderopacity="1.0"
     inkscape:pageshadow="2"
     inkscape:pageopacity="0"
     inkscape:pagecheckerboard="0"
     inkscape:document-units="mm"
     showgrid="false"
     inkscape:snap-page="false"
     inkscape:zoom="0.86121875"
     inkscape:cx="377.37218"
     inkscape:cy="377.95276"
     inkscape:window-width="1600"
     inkscape:window-height="863"
     inkscape:window-x="0"
     inkscape:window-y="0"
     inkscape:window-maximized="1"
     inkscape:current-layer="layer1" />
  <defs
     id="defs3736">
    <inkscape:path-effect
       effect="powerstroke"
       id="path-effect18733"
       is_visible="true"
       lpeversion="1"
       offset_points="1,3.33024"
       not_jump="false"
       sort_points="true"
       interpolator_type="CubicBezierJohan"
       interpolator_beta="0.2"
       start_linecap_type="zerowidth"
       linejoin_type="extrp_arc"
       miter_limit="4"
       scale_width="1"
       end_linecap_type="zerowidth" />
    <inkscape:path-effect
       effect="powerstroke"
       id="path-effect16712"
       is_visible="true"
       lpeversion="1"
       offset_points="1,3.33024"
       not_jump="false"
       sort_points="true"
       interpolator_type="CubicBezierJohan"
       interpolator_beta="0.2"
       start_linecap_type="zerowidth"
       linejoin_type="extrp_arc"
       miter_limit="4"
       scale_width="1"
       end_linecap_type="zerowidth" />
    <inkscape:path-effect
       effect="powerstroke"
       id="path-effect13765"
       is_visible="true"
       lpeversion="1"
       offset_points="1,1.9684151"
       not_jump="false"
       sort_points="true"
       interpolator_type="CubicBezierJohan"
       interpolator_beta="0.2"
       start_linecap_type="zerowidth"
       linejoin_type="extrp_arc"
       miter_limit="4"
       scale_width="1"
       end_linecap_type="zerowidth" />
    <inkscape:path-effect
       effect="powerstroke"
       id="path-effect11045"
       is_visible="true"
       lpeversion="1"
       offset_points="1,7.1454502"
       not_jump="false"
       sort_points="true"
       interpolator_type="CubicBezierJohan"
       interpolator_beta="0.2"
       start_linecap_type="zerowidth"
       linejoin_type="extrp_arc"
       miter_limit="4"
       scale_width="1"
       end_linecap_type="zerowidth" />
    <inkscape:path-effect
       effect="powerstroke"
       id="path-effect4349"
       is_visible="true"
       lpeversion="1"
       offset_points="1,1.7415223"
       not_jump="false"
       sort_points="true"
       interpolator_type="CubicBezierJohan"
       interpolator_beta="0.2"
       start_linecap_type="zerowidth"
       linejoin_type="extrp_arc"
       miter_limit="4"
       scale_width="1"
       end_linecap_type="zerowidth" />
    <inkscape:path-effect
       effect="powerstroke"
       id="path-effect4345"
       is_visible="true"
       lpeversion="1"
       offset_points="3,4.99214"
       not_jump="false"
       sort_points="true"
       interpolator_type="CubicBezierJohan"
       interpolator_beta="0.2"
       start_linecap_type="zerowidth"
       linejoin_type="extrp_arc"
       miter_limit="4"
       scale_width="1"
       end_linecap_type="zerowidth" />
    <inkscape:path-effect
       effect="powerstroke"
       id="path-effect4341"
       is_visible="true"
       lpeversion="1"
       offset_points="8,4.99214"
       not_jump="false"
       sort_points="true"
       interpolator_type="CubicBezierJohan"
       interpolator_beta="0.2"
       start_linecap_type="zerowidth"
       linejoin_type="extrp_arc"
       miter_limit="4"
       scale_width="1"
       end_linecap_type="zerowidth" />
    <inkscape:path-effect
       effect="powerstroke"
       id="path-effect4337"
       is_visible="true"
       lpeversion="1"
       offset_points="9,4.99214"
       not_jump="false"
       sort_points="true"
       interpolator_type="CubicBezierJohan"
       interpolator_beta="0.2"
       start_linecap_type="zerowidth"
       linejoin_type="extrp_arc"
       miter_limit="4"
       scale_width="1"
       end_linecap_type="zerowidth" />
    <inkscape:path-effect
       effect="powerstroke"
       id="path-effect4333"
       is_visible="true"
       lpeversion="1"
       offset_points="3,4.99214"
       not_jump="false"
       sort_points="true"
       interpolator_type="CubicBezierJohan"
       interpolator_beta="0.2"
       start_linecap_type="zerowidth"
       linejoin_type="extrp_arc"
       miter_limit="4"
       scale_width="1"
       end_linecap_type="zerowidth" />
    <inkscape:path-effect
       effect="powerstroke"
       id="path-effect13765-6"
       is_visible="true"
       lpeversion="1"
       offset_points="1,3.33024"
       not_jump="false"
       sort_points="true"
       interpolator_type="CubicBezierJohan"
       interpolator_beta="0.2"
       start_linecap_type="zerowidth"
       linejoin_type="extrp_arc"
       miter_limit="4"
       scale_width="1"
       end_linecap_type="zerowidth" />
  </defs>
  <g
     inkscape:label="Layer 1"
     inkscape:groupmode="layer"
     id="layer1">
    <g
       id="g4635"
       transform="matrix(5.0242194,0,0,5.0242194,-402.42191,-402.42192)">
      <path
         id="path4562"
         style="fill:#ffffff;stroke:#ffffff;stroke-width:2;stroke-linecap:round;stroke-linejoin:round;stroke-miterlimit:4;stroke-dasharray:none;stroke-opacity:1"
         d="m 115.42162,104.30335 c 0,8.51711 -6.9045,14.56095 -15.421628,14.56095 -8.517119,-2e-5 -15.42161,-6.04385 -15.421613,-14.56096 0,-8.51713 6.904495,-23.16764 15.42162,-23.16764 8.517121,1e-5 15.421611,14.65052 15.421621,23.16765 z"
         sodipodi:nodetypes="sssss" />
      <path
         id="path3353"
         style="stroke:#000000;stroke-width:0.168284;stroke-linecap:round;stroke-linejoin:round"
         inkscape:transform-center-x="-0.31952133"
         inkscape:transform-center-y="-0.63554323"
         d="m 99.009985,81.239646 c -1.611159,0.213889 -3.155368,0.93704 -4.594553,2.025716 -0.207756,0.36952 -0.374552,0.692031 -0.325043,0.740008 0.119467,0.115774 1.780397,-1.06472 1.9451,-1.041281 0.164703,0.02344 1.430655,1.620382 1.577681,1.542542 0.147026,-0.07785 -0.461796,-2.022562 -0.388607,-2.171962 0.07319,-0.149397 1.983002,-0.859824 1.954403,-1.02371 -0.0048,-0.02749 -0.06964,-0.05071 -0.168981,-0.07131 z m 2.701125,0.129709 c 0.35465,0.300723 0.69118,0.58637 0.70383,0.658874 0.0286,0.163885 -1.09873,1.861365 -0.97926,1.977141 0.11947,0.115774 1.7804,-1.06472 1.9451,-1.041281 0.1647,0.02344 1.43066,1.620382 1.57768,1.542542 0.12039,-0.06374 -0.26101,-1.366353 -0.36484,-1.92288 -0.9263,-0.572038 -1.89037,-0.987264 -2.88251,-1.214396 z m -5.087542,4.810041 c -0.164703,-0.02344 -0.81519,1.908087 -0.962216,1.985925 -0.147029,0.07785 -2.109623,-0.469789 -2.182812,-0.320392 -0.07319,0.149397 1.562515,1.364187 1.591117,1.528072 0.0286,0.163883 -1.098736,1.861365 -0.979268,1.977139 0.119467,0.115776 1.780397,-1.064202 1.9451,-1.040763 0.164703,0.02344 1.430655,1.620391 1.577681,1.542542 0.147026,-0.07784 -0.461796,-2.022565 -0.388607,-2.171962 0.07319,-0.149397 1.983002,-0.859824 1.954403,-1.02371 -0.0286,-0.163885 -2.066446,-0.185496 -2.185913,-0.301273 -0.119467,-0.115773 -0.204785,-2.152136 -0.369485,-2.175578 z m 7.345282,0 c -0.16469,-0.02344 -0.81519,1.908087 -0.96221,1.985925 -0.14703,0.07785 -2.10961,-0.469789 -2.18281,-0.320392 -0.0732,0.149397 1.56251,1.364187 1.59111,1.528072 0.0286,0.163883 -1.09873,1.861365 -0.97926,1.977139 0.11947,0.115776 1.7804,-1.064202 1.9451,-1.040763 0.1647,0.02344 1.43066,1.620391 1.57768,1.542542 0.14703,-0.07784 -0.46181,-2.022565 -0.38861,-2.171962 0.0732,-0.149397 1.983,-0.859824 1.9544,-1.02371 -0.0286,-0.163885 -2.06645,-0.185496 -2.18591,-0.301273 -0.11947,-0.115773 -0.20478,-2.152136 -0.36949,-2.175578 z m 4.30879,1.639694 c -0.061,-5.29e-4 -0.0994,0.0072 -0.10853,0.02584 -0.0732,0.149397 1.56252,1.364187 1.59112,1.528072 0.0286,0.163883 -1.09874,1.861365 -0.97927,1.977139 0.11946,0.115776 1.78041,-1.064202 1.94511,-1.040763 0.12647,0.018 0.90094,0.961464 1.32085,1.364258 -0.61229,-1.235437 -1.29523,-2.428229 -2.04019,-3.539318 -0.50581,-0.08948 -1.41314,-0.312489 -1.72909,-0.315227 z m -18.459859,0.580842 c -0.403305,0.616506 -0.787601,1.256676 -1.151869,1.914097 0.0083,-0.0017 0.0195,-0.0054 0.0248,-0.0047 0.164704,0.02344 1.430658,1.620391 1.577684,1.542542 0.147024,-0.07784 -0.462314,-2.022565 -0.389125,-2.171962 0.07319,-0.149397 1.983005,-0.859824 1.954403,-1.02371 -0.02444,-0.14003 -1.507784,-0.17653 -2.015897,-0.256315 z m -0.539502,5.124752 c -0.164703,-0.02344 -0.815189,1.908085 -0.962215,1.985925 -0.11311,0.05989 -1.297961,-0.249258 -1.873271,-0.327628 -0.03441,0.09341 -0.06774,0.186629 -0.101285,0.280088 0.427725,0.411509 1.361305,1.1317 1.38286,1.25522 0.0286,0.163886 -1.098735,1.861363 -0.979268,1.977139 0.119468,0.115774 1.780913,-1.064202 1.945616,-1.040762 0.164704,0.02344 1.430658,1.620379 1.577684,1.542542 0.147024,-0.07785 -0.462314,-2.022565 -0.389125,-2.171962 0.07319,-0.149397 1.983005,-0.859825 1.954403,-1.02371 -0.0286,-0.163886 -2.066446,-0.1855 -2.185913,-0.301273 -0.119468,-0.115777 -0.204783,-2.152137 -0.369486,-2.175579 z m 7.345289,0 c -0.164703,-0.02344 -0.81519,1.908085 -0.962216,1.985925 -0.147029,0.07785 -2.109623,-0.469791 -2.182812,-0.320394 -0.07319,0.149399 1.562515,1.364186 1.591117,1.528074 0.0286,0.163886 -1.098736,1.861363 -0.979268,1.977139 0.119467,0.115774 1.780397,-1.064202 1.9451,-1.040762 0.164703,0.02344 1.430655,1.620379 1.577681,1.542542 0.147026,-0.07785 -0.461796,-2.022565 -0.388607,-2.171962 0.07319,-0.149397 1.983002,-0.859825 1.954403,-1.02371 -0.0286,-0.163886 -2.066446,-0.1855 -2.185913,-0.301273 -0.119467,-0.115777 -0.204785,-2.152137 -0.369485,-2.175579 z m 7.345282,0 c -0.16469,-0.02344 -0.81519,1.908085 -0.96221,1.985925 -0.14703,0.07785 -2.10961,-0.469791 -2.18281,-0.320394 -0.0732,0.149399 1.56251,1.364186 1.59111,1.528074 0.0286,0.163886 -1.09873,1.861363 -0.97926,1.977139 0.11947,0.115774 1.7804,-1.064202 1.9451,-1.040762 0.1647,0.02344 1.43066,1.620379 1.57768,1.542542 0.14703,-0.07785 -0.46181,-2.022565 -0.38861,-2.171962 0.0732,-0.149397 1.983,-0.859825 1.9544,-1.02371 -0.0286,-0.163886 -2.06645,-0.1855 -2.18591,-0.301273 -0.11947,-0.115777 -0.20478,-2.152137 -0.36949,-2.175579 z m 7.34529,0 c -0.16471,-0.02344 -0.81519,1.908085 -0.96221,1.985925 -0.14703,0.07785 -2.10961,-0.469791 -2.18282,-0.320394 -0.0732,0.149399 1.56252,1.364186 1.59112,1.528074 0.0286,0.163886 -1.09874,1.861363 -0.97927,1.977139 0.11946,0.115774 1.78041,-1.064202 1.94511,-1.040762 0.1647,0.02344 1.43065,1.620379 1.57768,1.542542 0.14702,-0.07785 -0.46181,-2.022565 -0.38861,-2.171962 0.0693,-0.141497 1.7849,-0.786175 1.942,-0.99322 -0.007,-0.02065 -0.0141,-0.04136 -0.0212,-0.06201 -0.26324,-0.135874 -2.04093,-0.161803 -2.15232,-0.26975 -0.11947,-0.115777 -0.20479,-2.152137 -0.36949,-2.175579 z m -22.035861,7.345286 c -0.164703,-0.0234 -0.815189,1.90812 -0.962215,1.98593 -0.147026,0.0778 -2.109624,-0.46979 -2.182813,-0.3204 -0.07319,0.1494 1.562518,1.3642 1.591117,1.52807 0.0286,0.16389 -1.098735,1.86137 -0.979268,1.97714 0.119468,0.11578 1.780913,-1.06416 1.945616,-1.04076 0.164704,0.0234 1.430658,1.62034 1.577684,1.54254 0.147024,-0.0778 -0.462314,-2.02257 -0.389125,-2.17196 0.07319,-0.1494 1.983005,-0.85982 1.954403,-1.02371 -0.0286,-0.16388 -2.066446,-0.18549 -2.185913,-0.30127 -0.119468,-0.11577 -0.204783,-2.15218 -0.369486,-2.17558 z m 7.345289,0 c -0.164703,-0.0234 -0.81519,1.90812 -0.962216,1.98593 -0.147029,0.0778 -2.109623,-0.46979 -2.182812,-0.3204 -0.07319,0.1494 1.562515,1.3642 1.591117,1.52807 0.0286,0.16389 -1.098736,1.86137 -0.979268,1.97714 0.119467,0.11578 1.780397,-1.06416 1.9451,-1.04076 0.164703,0.0234 1.430655,1.62034 1.577681,1.54254 0.147026,-0.0778 -0.461796,-2.02257 -0.388607,-2.17196 0.07319,-0.1494 1.983002,-0.85982 1.954403,-1.02371 -0.0286,-0.16388 -2.066446,-0.18549 -2.185913,-0.30127 -0.119467,-0.11577 -0.204785,-2.15218 -0.369485,-2.17558 z m 7.345282,0 c -0.16469,-0.0234 -0.81519,1.90812 -0.96221,1.98593 -0.14703,0.0778 -2.10961,-0.46979 -2.18281,-0.3204 -0.0732,0.1494 1.56251,1.3642 1.59111,1.52807 0.0286,0.16389 -1.09873,1.86137 -0.97926,1.97714 0.11947,0.11578 1.7804,-1.06416 1.9451,-1.04076 0.1647,0.0234 1.43066,1.62034 1.57768,1.54254 0.14703,-0.0778 -0.46181,-2.02257 -0.38861,-2.17196 0.0732,-0.1494 1.983,-0.85982 1.9544,-1.02371 -0.0286,-0.16388 -2.06645,-0.18549 -2.18591,-0.30127 -0.11947,-0.11577 -0.20478,-2.15218 -0.36949,-2.17558 z m 7.34529,0 c -0.16471,-0.0234 -0.81519,1.90812 -0.96221,1.98593 -0.14703,0.0778 -2.10961,-0.46979 -2.18282,-0.3204 -0.0732,0.1494 1.56252,1.3642 1.59112,1.52807 0.0286,0.16389 -1.09874,1.86137 -0.97927,1.97714 0.11946,0.11578 1.78041,-1.06416 1.94511,-1.04076 0.1647,0.0234 1.43065,1.62034 1.57768,1.54254 0.14702,-0.0778 -0.46181,-2.02257 -0.38861,-2.17196 0.0732,-0.1494 1.983,-0.85982 1.9544,-1.02371 -0.0286,-0.16388 -2.06644,-0.18549 -2.18591,-0.30127 -0.11947,-0.11577 -0.20479,-2.15218 -0.36949,-2.17558 z m -22.035861,7.34529 c -0.164703,-0.0234 -0.815189,1.90812 -0.962215,1.98592 -0.147026,0.0778 -2.109624,-0.4703 -2.182813,-0.32091 -0.07319,0.1494 1.562518,1.3647 1.591117,1.52859 0.0158,0.0906 -0.31882,0.64728 -0.603581,1.14877 0.114308,0.16271 0.231424,0.32313 0.352433,0.48059 0.512869,-0.30989 1.120998,-0.70669 1.217496,-0.69298 0.164704,0.0234 1.430658,1.62034 1.577684,1.54254 0.147024,-0.0778 -0.462314,-2.02257 -0.389125,-2.17196 0.07319,-0.1494 1.983005,-0.85982 1.954403,-1.02371 -0.0286,-0.16388 -2.066446,-0.18549 -2.185913,-0.30127 -0.119468,-0.11577 -0.204783,-2.15218 -0.369486,-2.17558 z m 7.345289,0 c -0.164703,-0.0234 -0.81519,1.90812 -0.962216,1.98592 -0.147029,0.0778 -2.109623,-0.4703 -2.182812,-0.32091 -0.07319,0.1494 1.562515,1.3647 1.591117,1.52859 0.0286,0.16388 -1.098736,1.86136 -0.979268,1.97714 0.119467,0.11577 1.780397,-1.06416 1.9451,-1.04076 0.164703,0.0234 1.430655,1.62034 1.577681,1.54254 0.147026,-0.0778 -0.461796,-2.02257 -0.388607,-2.17196 0.07319,-0.1494 1.983002,-0.85982 1.954403,-1.02371 -0.0286,-0.16388 -2.066446,-0.18549 -2.185913,-0.30127 -0.119467,-0.11577 -0.204785,-2.15218 -0.369485,-2.17558 z m 7.345282,0 c -0.16469,-0.0234 -0.81519,1.90812 -0.96221,1.98592 -0.14703,0.0778 -2.10961,-0.4703 -2.18281,-0.32091 -0.0732,0.1494 1.56251,1.3647 1.59111,1.52859 0.0286,0.16388 -1.09873,1.86136 -0.97926,1.97714 0.11947,0.11577 1.7804,-1.06416 1.9451,-1.04076 0.1647,0.0234 1.43066,1.62034 1.57768,1.54254 0.14703,-0.0778 -0.46181,-2.02257 -0.38861,-2.17196 0.0732,-0.1494 1.983,-0.85982 1.9544,-1.02371 -0.0286,-0.16388 -2.06645,-0.18549 -2.18591,-0.30127 -0.11947,-0.11577 -0.20478,-2.15218 -0.36949,-2.17558 z m 7.34529,0 c -0.16471,-0.0234 -0.81519,1.90812 -0.96221,1.98592 -0.14703,0.0778 -2.10961,-0.4703 -2.18282,-0.32091 -0.0732,0.1494 1.56252,1.3647 1.59112,1.52859 0.0286,0.16388 -1.09874,1.86136 -0.97927,1.97714 0.11946,0.11577 1.78041,-1.06416 1.94511,-1.04076 0.12267,0.0175 0.85545,0.90651 1.2826,1.32757 0.0854,-0.0987 0.16952,-0.19872 0.25219,-0.29973 -0.12707,-0.6097 -0.3961,-1.55444 -0.34572,-1.65726 0.0732,-0.1494 1.983,-0.85982 1.9544,-1.02371 -0.0286,-0.16388 -2.06644,-0.18549 -2.18591,-0.30127 -0.11947,-0.11577 -0.20479,-2.15218 -0.36949,-2.17558 z m -14.690572,7.34529 c -0.164703,-0.0234 -0.81519,1.90812 -0.962216,1.98592 -0.147029,0.0778 -2.109623,-0.47031 -2.182812,-0.32091 -0.03185,0.065 0.263019,0.33368 0.605131,0.62787 1.168887,0.43561 2.410235,0.74292 3.703648,0.90692 0.585563,-0.26707 1.41074,-0.61406 1.391647,-0.72347 -0.0286,-0.16389 -2.066446,-0.1855 -2.185913,-0.30127 -0.119467,-0.11578 -0.204785,-2.15166 -0.369485,-2.17506 z m 7.345282,0 c -0.16469,-0.0234 -0.81519,1.90812 -0.96221,1.98592 -0.14703,0.0778 -2.10961,-0.47031 -2.18281,-0.32091 -0.0711,0.1452 1.46773,1.29438 1.58078,1.50947 1.18193,-0.16341 2.31884,-0.44686 3.39566,-0.83871 -0.60833,-0.054 -1.38925,-0.0903 -1.46193,-0.16071 -0.11947,-0.11578 -0.20478,-2.15166 -0.36949,-2.17506 z" />
    </g>
  </g>
</svg>
