<?xml version="1.0" encoding="UTF-8" standalone="no"?>
<!-- Created with Inkscape (http://www.inkscape.org/) -->

<svg
   width="200mm"
   height="200mm"
   viewBox="0 0 200 200"
   version="1.1"
   id="svg3739"
   sodipodi:docname="egg1.svg"
   inkscape:version="1.1.2 (0a00cf5339, 2022-02-04)"
   inkscape:export-filename="/home/remo/art/egghunt/egg1.png"
   inkscape:export-xdpi="123.14"
   inkscape:export-ydpi="123.14"
   xmlns:inkscape="http://www.inkscape.org/namespaces/inkscape"
   xmlns:sodipodi="http://sodipodi.sourceforge.net/DTD/sodipodi-0.dtd"
   xmlns="http://www.w3.org/2000/svg"
   xmlns:svg="http://www.w3.org/2000/svg">
  <sodipodi:namedview
     id="namedview3741"
     pagecolor="#b4004e"
     bordercolor="#666666"
     borderopacity="1.0"
     inkscape:pageshadow="2"
     inkscape:pageopacity="0"
     inkscape:pagecheckerboard="0"
     inkscape:document-units="mm"
     showgrid="false"
     inkscape:snap-page="false"
     inkscape:zoom="0.86121875"
     inkscape:cx="377.37218"
     inkscape:cy="377.95276"
     inkscape:window-width="1600"
     inkscape:window-height="863"
     inkscape:window-x="0"
     inkscape:window-y="0"
     inkscape:window-maximized="1"
     inkscape:current-layer="layer1" />
  <defs
     id="defs3736">
    <inkscape:path-effect
       effect="powerstroke"
       id="path-effect18733"
       is_visible="true"
       lpeversion="1"
       offset_points="1,3.33024"
       not_jump="false"
       sort_points="true"
       interpolator_type="CubicBezierJohan"
       interpolator_beta="0.2"
       start_linecap_type="zerowidth"
       linejoin_type="extrp_arc"
       miter_limit="4"
       scale_width="1"
       end_linecap_type="zerowidth" />
    <inkscape:path-effect
       effect="powerstroke"
       id="path-effect16712"
       is_visible="true"
       lpeversion="1"
       offset_points="1,3.33024"
       not_jump="false"
       sort_points="true"
       interpolator_type="CubicBezierJohan"
       interpolator_beta="0.2"
       start_linecap_type="zerowidth"
       linejoin_type="extrp_arc"
       miter_limit="4"
       scale_width="1"
       end_linecap_type="zerowidth" />
    <inkscape:path-effect
       effect="powerstroke"
       id="path-effect13765"
       is_visible="true"
       lpeversion="1"
       offset_points="1,1.9684151"
       not_jump="false"
       sort_points="true"
       interpolator_type="CubicBezierJohan"
       interpolator_beta="0.2"
       start_linecap_type="zerowidth"
       linejoin_type="extrp_arc"
       miter_limit="4"
       scale_width="1"
       end_linecap_type="zerowidth" />
    <inkscape:path-effect
       effect="powerstroke"
       id="path-effect11045"
       is_visible="true"
       lpeversion="1"
       offset_points="1,7.1454502"
       not_jump="false"
       sort_points="true"
       interpolator_type="CubicBezierJohan"
       interpolator_beta="0.2"
       start_linecap_type="zerowidth"
       linejoin_type="extrp_arc"
       miter_limit="4"
       scale_width="1"
       end_linecap_type="zerowidth" />
    <inkscape:path-effect
       effect="powerstroke"
       id="path-effect4349"
       is_visible="true"
       lpeversion="1"
       offset_points="1,1.7415223"
       not_jump="false"
       sort_points="true"
       interpolator_type="CubicBezierJohan"
       interpolator_beta="0.2"
       start_linecap_type="zerowidth"
       linejoin_type="extrp_arc"
       miter_limit="4"
       scale_width="1"
       end_linecap_type="zerowidth" />
    <inkscape:path-effect
       effect="powerstroke"
       id="path-effect4345"
       is_visible="true"
       lpeversion="1"
       offset_points="3,4.99214"
       not_jump="false"
       sort_points="true"
       interpolator_type="CubicBezierJohan"
       interpolator_beta="0.2"
       start_linecap_type="zerowidth"
       linejoin_type="extrp_arc"
       miter_limit="4"
       scale_width="1"
       end_linecap_type="zerowidth" />
    <inkscape:path-effect
       effect="powerstroke"
       id="path-effect4341"
       is_visible="true"
       lpeversion="1"
       offset_points="8,4.99214"
       not_jump="false"
       sort_points="true"
       interpolator_type="CubicBezierJohan"
       interpolator_beta="0.2"
       start_linecap_type="zerowidth"
       linejoin_type="extrp_arc"
       miter_limit="4"
       scale_width="1"
       end_linecap_type="zerowidth" />
    <inkscape:path-effect
       effect="powerstroke"
       id="path-effect4337"
       is_visible="true"
       lpeversion="1"
       offset_points="9,4.99214"
       not_jump="false"
       sort_points="true"
       interpolator_type="CubicBezierJohan"
       interpolator_beta="0.2"
       start_linecap_type="zerowidth"
       linejoin_type="extrp_arc"
       miter_limit="4"
       scale_width="1"
       end_linecap_type="zerowidth" />
    <inkscape:path-effect
       effect="powerstroke"
       id="path-effect4333"
       is_visible="true"
       lpeversion="1"
       offset_points="3,4.99214"
       not_jump="false"
       sort_points="true"
       interpolator_type="CubicBezierJohan"
       interpolator_beta="0.2"
       start_linecap_type="zerowidth"
       linejoin_type="extrp_arc"
       miter_limit="4"
       scale_width="1"
       end_linecap_type="zerowidth" />
    <inkscape:path-effect
       effect="powerstroke"
       id="path-effect13765-6"
       is_visible="true"
       lpeversion="1"
       offset_points="1,3.33024"
       not_jump="false"
       sort_points="true"
       interpolator_type="CubicBezierJohan"
       interpolator_beta="0.2"
       start_linecap_type="zerowidth"
       linejoin_type="extrp_arc"
       miter_limit="4"
       scale_width="1"
       end_linecap_type="zerowidth" />
  </defs>
  <g
     inkscape:label="Layer 1"
     inkscape:groupmode="layer"
     id="layer1">
    <path
       id="path4562-7"
       style="fill:#ffffff;stroke:#ffffff;stroke-width:10.0484;stroke-linecap:round;stroke-linejoin:round;stroke-miterlimit:4;stroke-dasharray:none;stroke-opacity:1"
       d="m 177.4816,121.62097 c 0,42.79183 -34.68972,73.15741 -77.481639,73.15741 -42.79187,-1e-4 -77.481548,-30.36563 -77.481563,-73.15746 0,-42.791926 34.689694,-116.3993025 77.481593,-116.3993025 42.791889,5e-5 77.481559,73.6074265 77.481609,116.3993525 z"
       sodipodi:nodetypes="sssss" />
    <path
       id="path1050"
       style="color:#000000;fill:#a8b545;stroke-width:1;-inkscape-stroke:none;fill-opacity:1"
       d="m 101.11574,10.573479 c -4.099532,0.112837 -8.579032,2.353132 -13.571792,7.023344 l -0.0723,-0.07235 -1.0666,1.073836 c -5.99305,6.038861 -9.66469,6.993651 -12.50777,6.437851 -1.98518,-0.388092 -4.01871,-1.834839 -6.15259,-3.760495 -1.37957,1.210891 -2.7365,2.488815 -4.07107,3.824057 2.52959,2.395677 5.42061,4.635261 9.16688,5.36763 4.77189,0.932871 10.18135,-1.160981 16.3282,-6.962882 l 0.0703,0.0708 1.0666,-1.062984 0.006,-0.0057 c 5.97259,-5.95446 9.60146,-6.853524 12.451442,-6.267834 2.80135,0.5757 5.69951,3.232942 8.84184,6.383072 3.14237,3.15017 6.63575,6.855362 11.67163,7.839831 4.08509,0.798605 8.63861,-0.628081 13.72061,-4.692736 -1.29068,-1.318112 -2.60554,-2.575188 -3.9393,-3.777548 -3.8847,3.001517 -6.54578,3.466572 -8.72453,3.040641 -2.79715,-0.54682 -5.68644,-3.176991 -8.82426,-6.322611 -3.13774,-3.14553 -6.61646,-6.860882 -11.6365,-7.892542 -0.51853,-0.106559 -1.05394,-0.157006 -1.59216,-0.195336 l -0.0723,-0.03101 -0.27699,-0.01137 c -0.26996,-0.0113 -0.54163,-0.01321 -0.81493,-0.0057 z m 0,31.750001 c -4.099532,0.112834 -8.579032,2.353132 -13.571792,7.023343 l -0.0723,-0.07235 -1.0666,1.073838 c -5.99305,6.038863 -9.66469,6.993652 -12.50777,6.43785 -2.79716,-0.546825 -5.68644,-3.174929 -8.82427,-6.320544 -3.13773,-3.145526 -6.616452,-6.860887 -11.636495,-7.892542 -1.216753,-0.250053 -2.475765,-0.307703 -3.774961,-0.168466 -1.646584,2.460215 -3.233582,4.999075 -4.756301,7.601604 3.16779,-2.118204 5.476698,-2.413043 7.421769,-2.013315 2.801345,0.575699 5.699519,3.232951 8.841838,6.383073 3.14238,3.150176 6.63576,6.857423 11.67164,7.841898 4.77189,0.932867 10.18135,-1.160982 16.3282,-6.962881 l 0.0703,0.07028 1.0666,-1.062466 c 0.002,-0.0024 0.004,-0.0039 0.006,-0.0062 5.97259,-5.954458 9.60094,-6.85301 12.450922,-6.267318 2.80135,0.575699 5.69951,3.232433 8.84184,6.382557 3.14237,3.150177 6.63576,6.855357 11.67164,7.839832 4.77311,0.933109 10.18358,-1.159669 16.33234,-6.96495 l 0.0739,0.07441 1.06092,-1.058333 c 5.97663,-5.960568 9.60555,-6.859431 12.4566,-6.27352 0.27716,0.05696 0.5559,0.139481 0.8351,0.235646 -1.193,-1.97781 -2.42255,-3.916492 -3.68815,-5.807916 -4.0518,0.49426 -8.50317,2.948781 -13.36353,7.818128 -6.14559,6.156976 -9.80529,7.103083 -12.65039,6.546887 -2.79715,-0.546823 -5.68644,-3.176477 -8.82427,-6.322095 -3.13773,-3.145525 -6.61645,-6.860883 -11.63649,-7.892541 -0.51853,-0.106564 -1.05395,-0.157004 -1.59216,-0.195337 l -0.0723,-0.03152 -0.27699,-0.01138 c -0.26996,-0.0113 -0.54163,-0.0132 -0.81494,-0.0057 z m 0,31.749999 c -4.099532,0.112834 -8.579032,2.353133 -13.571792,7.023343 l -0.0723,-0.07235 -1.0666,1.073838 c -5.99305,6.038863 -9.66469,6.993651 -12.50777,6.437849 -2.79716,-0.546825 -5.68644,-3.174928 -8.82427,-6.320544 -3.13773,-3.145525 -6.616452,-6.860886 -11.636495,-7.892542 -5.058542,-1.039571 -10.827009,1.1551 -17.326073,7.666199 -3.089084,3.094805 -5.549707,4.871641 -7.594885,5.804297 -0.624885,2.073005 -1.202116,4.136808 -1.734778,6.187218 3.64087,-0.639392 7.612607,-2.880709 11.954309,-6.979936 l 0.07441,0.07441 1.060399,-1.058849 c 5.976634,-5.960568 9.606077,-6.859432 12.457121,-6.27352 2.801345,0.575699 5.699519,3.232952 8.841842,6.383073 3.14238,3.150177 6.63576,6.857423 11.67164,7.841898 4.77189,0.932868 10.18135,-1.160981 16.3282,-6.962881 l 0.0703,0.07028 1.0666,-1.062466 c 0.002,-0.0024 0.004,-0.0039 0.006,-0.0062 5.97259,-5.954459 9.60094,-6.85301 12.450922,-6.267318 2.80135,0.575699 5.69951,3.232433 8.84184,6.382557 3.14237,3.150177 6.63576,6.855357 11.67164,7.839832 4.77311,0.933108 10.18358,-1.159669 16.33234,-6.96495 l 0.0739,0.07441 1.06092,-1.058334 c 5.97663,-5.960567 9.60555,-6.859431 12.4566,-6.273519 2.80134,0.575699 5.69952,3.232433 8.84184,6.382557 3.02957,3.037086 6.39008,6.582931 11.13989,7.716324 -0.60352,-2.314469 -1.26587,-4.646464 -1.98644,-6.988204 -1.68676,-1.172123 -3.42477,-2.811486 -5.24878,-4.640027 -3.13774,-3.145523 -6.61696,-6.860884 -11.63701,-7.892542 -5.05854,-1.039569 -10.82701,1.156653 -17.32608,7.667749 -6.14559,6.156976 -9.80529,7.103084 -12.65039,6.546887 -2.79715,-0.546822 -5.68644,-3.176476 -8.82427,-6.322094 -3.13773,-3.145525 -6.61645,-6.860884 -11.63649,-7.892542 -0.51853,-0.106563 -1.05395,-0.157004 -1.59216,-0.195336 l -0.0723,-0.03152 -0.27699,-0.01138 c -0.26996,-0.0113 -0.54163,-0.0132 -0.81494,-0.0057 z m 0,31.750001 c -4.099532,0.11284 -8.579032,2.35313 -13.571792,7.02334 l -0.0723,-0.0724 -1.0666,1.07384 c -5.99305,6.03886 -9.66469,6.99365 -12.50777,6.43785 -2.79716,-0.54682 -5.68644,-3.17493 -8.82427,-6.32054 -3.13773,-3.14553 -6.616452,-6.86089 -11.636495,-7.89255 -5.058542,-1.03957 -10.827009,1.1551 -17.326073,7.6662 -6.145593,6.15697 -9.805299,7.10309 -12.65039,6.54689 -0.284253,-0.0556 -0.56996,-0.13822 -0.856279,-0.23513 -0.05392,1.24554 -0.08527,2.47271 -0.08527,3.67213 0,0.67525 0.0087,1.34742 0.02584,2.01641 4.738861,0.86535 10.101975,-1.24 16.190742,-6.98872 l 0.07441,0.0744 1.060399,-1.05885 c 5.976634,-5.96056 9.606077,-6.85944 12.457121,-6.27352 2.801345,0.57569 5.699519,3.23296 8.841835,6.38308 3.14238,3.15018 6.63576,6.85742 11.67164,7.84189 4.77189,0.93286 10.18135,-1.16099 16.3282,-6.96288 l 0.0703,0.0703 1.0666,-1.06246 0.006,-0.006 c 5.97259,-5.95446 9.60094,-6.85302 12.450922,-6.26732 2.80135,0.5757 5.69951,3.23244 8.84184,6.38256 3.14237,3.15018 6.63576,6.85536 11.67164,7.83983 4.77311,0.93311 10.18358,-1.15967 16.33234,-6.96495 l 0.0739,0.0744 1.06092,-1.05885 c 5.97663,-5.96057 9.60555,-6.85943 12.4566,-6.27352 2.80134,0.5757 5.69952,3.23295 8.84184,6.38307 3.14238,3.15018 6.63629,6.85535 11.67216,7.83983 1.20586,0.23574 2.45167,0.28106 3.73775,0.13333 0.019,-0.70395 0.03,-1.41095 0.03,-2.12184 -1e-5,-1.11698 -0.0292,-2.25972 -0.076,-3.41684 -0.96454,0.16213 -1.83379,0.13234 -2.63498,-0.0243 -2.79717,-0.54683 -5.68645,-3.17647 -8.82427,-6.32209 -3.13774,-3.14552 -6.61696,-6.86089 -11.63701,-7.89255 -5.05854,-1.03957 -10.82701,1.15666 -17.32608,7.66775 -6.14559,6.15698 -9.80529,7.10308 -12.65039,6.54689 -2.79715,-0.54683 -5.68644,-3.17647 -8.82427,-6.32209 -3.13773,-3.14552 -6.61645,-6.86089 -11.63649,-7.89255 -0.51853,-0.10656 -1.05395,-0.157 -1.59216,-0.19533 l -0.0723,-0.0315 -0.27699,-0.0114 c -0.26996,-0.0113 -0.54163,-0.0132 -0.81494,-0.006 z m 0,31.75 c -4.099532,0.11283 -8.579032,2.35314 -13.571792,7.02334 l -0.0723,-0.0724 -1.0666,1.07384 c -5.99305,6.03887 -9.66469,6.99366 -12.50777,6.43785 -2.79716,-0.54682 -5.68644,-3.17493 -8.82427,-6.32054 -3.13773,-3.14552 -6.616452,-6.86089 -11.636495,-7.89255 -5.05854,-1.03957 -10.827009,1.1551 -17.326073,7.6662 -3.405806,3.41211 -6.046001,5.2196 -8.209319,6.06216 0.689612,1.67512 1.440719,3.31429 2.251027,4.91547 2.689217,-1.13906 5.545407,-3.09816 8.582938,-5.96605 l 0.07441,0.0744 1.060399,-1.05885 c 5.976634,-5.96057 9.606077,-6.85943 12.457121,-6.27352 2.801345,0.5757 5.699519,3.23295 8.841842,6.38307 3.142381,3.15018 6.635761,6.8569 11.67164,7.84138 4.77189,0.93287 10.18135,-1.16098 16.3282,-6.96288 l 0.0703,0.0708 1.0666,-1.06299 0.006,-0.006 c 5.97259,-5.95446 9.60094,-6.85352 12.450922,-6.26783 2.80135,0.5757 5.69951,3.23295 8.84184,6.38307 3.14237,3.15018 6.63576,6.85536 11.67164,7.83983 4.77311,0.93311 10.18358,-1.15967 16.33234,-6.96495 l 0.0739,0.0744 1.06092,-1.05885 c 5.97663,-5.96057 9.60555,-6.85943 12.4566,-6.27352 2.80134,0.5757 5.69952,3.23295 8.84184,6.38307 2.30598,2.3117 4.80428,4.91796 7.95921,6.53293 0.83096,-1.66263 1.59742,-3.36614 2.29856,-5.10769 -2.03042,-1.15317 -4.12857,-3.1076 -6.3531,-5.33766 -3.13774,-3.14552 -6.61696,-6.86089 -11.63701,-7.89254 -5.05854,-1.03958 -10.82701,1.15717 -17.32608,7.66826 -6.14559,6.15698 -9.80529,7.10309 -12.65039,6.54689 -2.79715,-0.54682 -5.68644,-3.17699 -8.82427,-6.32261 -3.13773,-3.14552 -6.61645,-6.86089 -11.63649,-7.89254 -0.51853,-0.10657 -1.05395,-0.157 -1.59216,-0.19534 l -0.0723,-0.031 -0.27699,-0.0114 c -0.26996,-0.0113 -0.54163,-0.0132 -0.81494,-0.006 z m 0,31.75 c -4.099532,0.11283 -8.579032,2.35313 -13.571792,7.02334 l -0.0723,-0.0724 -1.0666,1.07384 c -5.99305,6.03886 -9.66469,6.99365 -12.50777,6.43785 -2.79716,-0.54682 -5.68644,-3.17493 -8.82427,-6.32054 -3.13773,-3.14554 -6.616452,-6.8609 -11.636495,-7.89255 -3.606779,-0.74122 -7.576844,0.17304 -11.912968,3.11247 1.275837,1.36145 2.607167,2.67256 3.988388,3.9331 2.858412,-1.762 4.996804,-1.99941 6.815087,-1.62574 2.801345,0.5757 5.699519,3.23295 8.841838,6.38307 3.142381,3.15017 6.635761,6.85743 11.67164,7.8419 4.77189,0.93287 10.18135,-1.16098 16.3282,-6.96288 l 0.0703,0.0703 1.0666,-1.06246 0.006,-0.006 c 5.97259,-5.95446 9.60094,-6.85302 12.450922,-6.26732 2.80135,0.57569 5.69951,3.23244 8.84184,6.38256 3.14237,3.15017 6.63576,6.85536 11.67164,7.83983 4.77311,0.93311 10.18358,-1.15967 16.33234,-6.96495 l 0.0739,0.0744 1.06092,-1.05885 c 5.97663,-5.96056 9.60555,-6.85892 12.4566,-6.273 0.71242,0.1464 1.43169,0.42957 2.15904,0.81907 1.39693,-1.31771 2.73938,-2.68864 4.02353,-4.11189 -1.51569,-0.97393 -3.18534,-1.74113 -5.07307,-2.12907 -5.05854,-1.03957 -10.82701,1.15665 -17.32608,7.66775 -6.14559,6.15698 -9.80529,7.10308 -12.65039,6.54688 -2.79715,-0.54683 -5.68644,-3.17647 -8.82427,-6.32209 -3.13773,-3.14553 -6.61645,-6.86088 -11.63649,-7.89254 -0.51853,-0.10656 -1.05395,-0.15701 -1.59216,-0.19534 l -0.0723,-0.0315 -0.27699,-0.0114 c -0.26996,-0.0113 -0.54163,-0.0132 -0.81494,-0.006 z" />
  </g>
</svg>
