<?xml version="1.0" encoding="UTF-8" standalone="no"?>
<!-- Created with Inkscape (http://www.inkscape.org/) -->

<svg
   width="200mm"
   height="200mm"
   viewBox="0 0 200 200"
   version="1.1"
   id="svg3739"
   sodipodi:docname="egg3.svg"
   inkscape:version="1.1.2 (0a00cf5339, 2022-02-04)"
   inkscape:export-filename="/home/remo/art/egghunt/egg3.png"
   inkscape:export-xdpi="123.14"
   inkscape:export-ydpi="123.14"
   xmlns:inkscape="http://www.inkscape.org/namespaces/inkscape"
   xmlns:sodipodi="http://sodipodi.sourceforge.net/DTD/sodipodi-0.dtd"
   xmlns="http://www.w3.org/2000/svg"
   xmlns:svg="http://www.w3.org/2000/svg">
  <sodipodi:namedview
     id="namedview3741"
     pagecolor="#b4004e"
     bordercolor="#666666"
     borderopacity="1.0"
     inkscape:pageshadow="2"
     inkscape:pageopacity="0"
     inkscape:pagecheckerboard="0"
     inkscape:document-units="mm"
     showgrid="false"
     inkscape:snap-page="false"
     inkscape:zoom="1.0027708"
     inkscape:cx="377.95276"
     inkscape:cy="134.12835"
     inkscape:window-width="1600"
     inkscape:window-height="863"
     inkscape:window-x="0"
     inkscape:window-y="0"
     inkscape:window-maximized="1"
     inkscape:current-layer="g3379" />
  <defs
     id="defs3736">
    <inkscape:path-effect
       effect="powerstroke"
       id="path-effect18733"
       is_visible="true"
       lpeversion="1"
       offset_points="1,3.33024"
       not_jump="false"
       sort_points="true"
       interpolator_type="CubicBezierJohan"
       interpolator_beta="0.2"
       start_linecap_type="zerowidth"
       linejoin_type="extrp_arc"
       miter_limit="4"
       scale_width="1"
       end_linecap_type="zerowidth" />
    <inkscape:path-effect
       effect="powerstroke"
       id="path-effect16712"
       is_visible="true"
       lpeversion="1"
       offset_points="1,3.33024"
       not_jump="false"
       sort_points="true"
       interpolator_type="CubicBezierJohan"
       interpolator_beta="0.2"
       start_linecap_type="zerowidth"
       linejoin_type="extrp_arc"
       miter_limit="4"
       scale_width="1"
       end_linecap_type="zerowidth" />
    <inkscape:path-effect
       effect="powerstroke"
       id="path-effect13765"
       is_visible="true"
       lpeversion="1"
       offset_points="1,1.9684151"
       not_jump="false"
       sort_points="true"
       interpolator_type="CubicBezierJohan"
       interpolator_beta="0.2"
       start_linecap_type="zerowidth"
       linejoin_type="extrp_arc"
       miter_limit="4"
       scale_width="1"
       end_linecap_type="zerowidth" />
    <inkscape:path-effect
       effect="powerstroke"
       id="path-effect11045"
       is_visible="true"
       lpeversion="1"
       offset_points="1,7.1454502"
       not_jump="false"
       sort_points="true"
       interpolator_type="CubicBezierJohan"
       interpolator_beta="0.2"
       start_linecap_type="zerowidth"
       linejoin_type="extrp_arc"
       miter_limit="4"
       scale_width="1"
       end_linecap_type="zerowidth" />
    <inkscape:path-effect
       effect="powerstroke"
       id="path-effect4349"
       is_visible="true"
       lpeversion="1"
       offset_points="1,1.7415223"
       not_jump="false"
       sort_points="true"
       interpolator_type="CubicBezierJohan"
       interpolator_beta="0.2"
       start_linecap_type="zerowidth"
       linejoin_type="extrp_arc"
       miter_limit="4"
       scale_width="1"
       end_linecap_type="zerowidth" />
    <inkscape:path-effect
       effect="powerstroke"
       id="path-effect4345"
       is_visible="true"
       lpeversion="1"
       offset_points="3,4.99214"
       not_jump="false"
       sort_points="true"
       interpolator_type="CubicBezierJohan"
       interpolator_beta="0.2"
       start_linecap_type="zerowidth"
       linejoin_type="extrp_arc"
       miter_limit="4"
       scale_width="1"
       end_linecap_type="zerowidth" />
    <inkscape:path-effect
       effect="powerstroke"
       id="path-effect4341"
       is_visible="true"
       lpeversion="1"
       offset_points="8,4.99214"
       not_jump="false"
       sort_points="true"
       interpolator_type="CubicBezierJohan"
       interpolator_beta="0.2"
       start_linecap_type="zerowidth"
       linejoin_type="extrp_arc"
       miter_limit="4"
       scale_width="1"
       end_linecap_type="zerowidth" />
    <inkscape:path-effect
       effect="powerstroke"
       id="path-effect4337"
       is_visible="true"
       lpeversion="1"
       offset_points="9,4.99214"
       not_jump="false"
       sort_points="true"
       interpolator_type="CubicBezierJohan"
       interpolator_beta="0.2"
       start_linecap_type="zerowidth"
       linejoin_type="extrp_arc"
       miter_limit="4"
       scale_width="1"
       end_linecap_type="zerowidth" />
    <inkscape:path-effect
       effect="powerstroke"
       id="path-effect4333"
       is_visible="true"
       lpeversion="1"
       offset_points="3,4.99214"
       not_jump="false"
       sort_points="true"
       interpolator_type="CubicBezierJohan"
       interpolator_beta="0.2"
       start_linecap_type="zerowidth"
       linejoin_type="extrp_arc"
       miter_limit="4"
       scale_width="1"
       end_linecap_type="zerowidth" />
    <inkscape:path-effect
       effect="powerstroke"
       id="path-effect13765-6"
       is_visible="true"
       lpeversion="1"
       offset_points="1,3.33024"
       not_jump="false"
       sort_points="true"
       interpolator_type="CubicBezierJohan"
       interpolator_beta="0.2"
       start_linecap_type="zerowidth"
       linejoin_type="extrp_arc"
       miter_limit="4"
       scale_width="1"
       end_linecap_type="zerowidth" />
  </defs>
  <g
     inkscape:label="Layer 1"
     inkscape:groupmode="layer"
     id="layer1">
    <g
       id="g3379">
      <path
         id="path4562-7"
         style="fill:#ffffff;stroke:#ffffff;stroke-width:10.0484;stroke-linecap:round;stroke-linejoin:round;stroke-miterlimit:4;stroke-dasharray:none;stroke-opacity:1"
         d="m 177.4816,121.62097 c 0,42.79183 -34.68972,73.15741 -77.481639,73.15741 -42.79187,-1e-4 -77.481548,-30.36563 -77.481563,-73.15746 0,-42.791926 34.689694,-116.3993025 77.481593,-116.3993025 42.791889,5e-5 77.481559,73.6074265 77.481609,116.3993525 z"
         sodipodi:nodetypes="sssss" />
      <g
         id="g3335"
         transform="matrix(1.089,0,0,1.089,-8.9000002,-8.9470957)"
         style="fill:#a8b545;fill-opacity:1">
        <path
           d="m 57.190416,80.445469 c -2.016971,0 -3.728296,0.703368 -5.135033,2.110105 -1.406737,1.406737 -2.110317,3.094778 -2.110317,5.064972 v 30.250134 c 0,2.01951 0.703369,3.72936 2.110317,5.1363 1.406737,1.40674 3.118062,2.11032 5.135033,2.11032 2.01549,0 3.716443,-0.70337 5.101378,-2.11032 1.382184,-1.40673 2.07518,-3.11679 2.07518,-5.1363 V 87.620546 c 0,-1.970405 -0.703368,-3.658235 -2.110316,-5.064972 -1.406949,-1.406737 -3.096049,-2.110105 -5.066242,-2.110105 z"
           id="path2"
           style="fill:#a8b545;fill-opacity:1;stroke-width:0.211667" />
        <path
           d="m 115.96982,52.231573 4.99491,-9.214273 c 0.32788,-0.610024 0.21125,-1.077807 -0.35094,-1.406737 -0.61023,-0.283633 -1.07908,-0.139912 -1.40674,0.421005 l -5.06476,9.287933 c -4.45664,-1.970405 -9.17024,-2.957407 -14.14081,-2.957407 -4.971626,0 -9.685655,0.987214 -14.140603,2.957407 L 80.795906,42.031568 C 80.466764,41.470651 79.997922,41.3282 79.389169,41.610563 78.825712,41.940975 78.709084,42.407276 79.038226,43.0173 l 4.995121,9.214273 c -5.064971,2.582968 -9.098914,6.180243 -12.100348,10.799656 -3.001433,4.621953 -4.502784,9.672743 -4.502784,15.16126 h 65.071835 c 0,-5.487247 -1.50156,-10.538248 -4.50279,-15.16126 -3.00164,-4.619413 -7.0123,-8.216688 -12.02944,-10.799656 z M 87.091507,65.633882 c -0.540173,0.541444 -1.185333,0.810895 -1.935268,0.810895 -0.751417,0 -1.383453,-0.269451 -1.899073,-0.810895 -0.51562,-0.538903 -0.77343,-1.181523 -0.77343,-1.933998 0,-0.749935 0.25781,-1.393825 0.77343,-1.933998 0.51562,-0.538904 1.149138,-0.808355 1.899073,-0.808355 0.749935,0 1.395095,0.269451 1.935268,0.808355 0.538904,0.541443 0.809625,1.184063 0.809625,1.933998 -0.0015,0.751205 -0.271991,1.395095 -0.809625,1.933998 z m 29.651533,0 c -0.51668,0.541444 -1.15019,0.810895 -1.89886,0.810895 -0.75163,0 -1.39658,-0.269451 -1.93569,-0.810895 -0.53996,-0.538903 -0.80941,-1.181523 -0.80941,-1.933998 0,-0.749935 0.26945,-1.393825 0.80941,-1.933998 0.53911,-0.538904 1.18406,-0.808355 1.93569,-0.808355 0.74994,0 1.38197,0.269451 1.89886,0.808355 0.51605,0.541443 0.77343,1.184063 0.77343,1.933998 0,0.751205 -0.2576,1.395095 -0.77343,1.933998 z"
           id="path4"
           style="fill:#a8b545;fill-opacity:1;stroke-width:0.211667" />
        <path
           d="m 67.709615,128.63414 c 0,2.15943 0.749934,3.98738 2.250016,5.48746 1.501352,1.50008 3.329305,2.25002 5.487247,2.25002 h 5.206153 l 0.07133,15.97109 c 0,2.01676 0.703369,3.72936 2.110105,5.13631 1.406737,1.40694 3.096049,2.11031 5.064972,2.11031 2.015701,0 3.728085,-0.70337 5.135033,-2.11031 1.406948,-1.40695 2.110317,-3.11934 2.110317,-5.13631 V 136.3731 h 9.707882 v 15.96961 c 0,2.01676 0.70315,3.72936 2.1101,5.13631 1.40695,1.40694 3.11785,2.11031 5.13504,2.11031 2.0157,0 3.72808,-0.70337 5.13503,-2.11031 1.40695,-1.40695 2.1101,-3.11934 2.1101,-5.13631 V 136.3731 h 5.27643 c 2.11011,0 3.91456,-0.75015 5.4174,-2.25023 1.49987,-1.50008 2.25023,-3.32803 2.25023,-5.48725 V 81.780874 H 67.709615 Z"
           id="path6"
           style="fill:#a8b545;fill-opacity:1;stroke-width:0.211667" />
        <path
           d="m 142.8098,80.445469 c -1.97041,0 -3.65824,0.692997 -5.06519,2.07518 -1.40673,1.384723 -2.1101,3.085677 -2.1101,5.099897 v 30.250134 c 0,2.01951 0.70315,3.72936 2.1101,5.1363 1.40695,1.40695 3.09605,2.11032 5.06519,2.11032 2.0157,0 3.72808,-0.70337 5.13503,-2.11032 1.40695,-1.40694 2.1101,-3.11679 2.1101,-5.1363 V 87.620546 c 0,-2.014432 -0.70315,-3.715174 -2.1101,-5.099897 -1.40695,-1.382183 -3.11933,-2.07518 -5.13503,-2.07518 z"
           id="path8"
           style="fill:#a8b545;fill-opacity:1;stroke-width:0.211667" />
      </g>
    </g>
  </g>
</svg>
